<svg width="32" height="51" viewBox="0 0 32 51" fill="none" xmlns="http://www.w3.org/2000/svg">
<path d="M31.1409 0.884724C30.4288 0.189584 29.4577 0 27.6451 0H3.95177C3.1102 0 2.39811 0.315973 1.81548 0.884724C1.2976 1.39028 0.90918 2.14862 0.90918 2.97015V9.98475V39.6862V48.0911C0.90918 48.8494 1.23286 49.5446 1.81548 50.1133C2.33337 50.6189 3.1102 50.998 3.95177 50.998H28.8751C29.7167 50.998 30.4288 50.6821 31.0114 50.1133C31.5293 49.6078 31.9177 48.8494 31.9177 48.0279V39.623V9.92155V4.10765C31.9177 2.52778 31.853 1.57987 31.1409 0.884724ZM3.30441 2.90695C3.30441 2.78056 3.36915 2.59098 3.49862 2.52778C3.62809 2.4014 3.75756 2.3382 3.88703 2.3382H27.5157C28.6162 2.3382 29.1341 2.3382 29.2635 2.46459C29.393 2.59098 29.393 3.09654 29.393 4.10765V6.69863C29.0046 6.57224 28.6809 6.44585 28.2277 6.44585H4.46966C4.08124 6.44585 3.69283 6.57224 3.30441 6.69863V2.90695ZM3.62809 9.16322C3.8223 8.97363 4.14598 8.84725 4.40492 8.84725H28.2277C28.5514 8.84725 28.8104 8.97363 29.0046 9.16322C29.1988 9.3528 29.3283 9.66877 29.3283 9.92155V39.623C29.3283 39.939 29.1988 40.1918 29.0046 40.3814C28.8104 40.5709 28.4867 40.6973 28.2277 40.6973H4.46966C4.14598 40.6973 3.88703 40.5709 3.69283 40.3814C3.49862 40.1918 3.36915 39.8758 3.36915 39.623V9.92155H3.30441C3.30441 9.60558 3.43388 9.3528 3.62809 9.16322ZM29.4577 48.0279C29.4577 48.2175 29.393 48.3439 29.2635 48.4071C29.1341 48.5335 29.0046 48.5967 28.8104 48.5967H3.95177C3.75756 48.5967 3.62809 48.5335 3.49862 48.4071C3.36915 48.2807 3.30441 48.1543 3.30441 48.0279V42.8459C3.69283 42.9723 4.01651 43.0987 4.46966 43.0987H28.2925C28.6809 43.0987 29.0693 42.9723 29.4577 42.8459V48.0279Z" fill="black" fill-opacity="0.4"/>
<path d="M17.935 44.6792H14.8276C14.1155 44.6792 13.5977 45.248 13.5977 45.8799C13.5977 46.575 14.1803 47.0806 14.8276 47.0806H17.935C18.6471 47.0806 19.165 46.5118 19.165 45.8799C19.165 45.248 18.5823 44.6792 17.935 44.6792Z" fill="black" fill-opacity="0.4"/>
<path d="M12.8853 5.62369C13.5646 5.62369 14.1152 5.08612 14.1152 4.42299C14.1152 3.75986 13.5646 3.22229 12.8853 3.22229C12.206 3.22229 11.6553 3.75986 11.6553 4.42299C11.6553 5.08612 12.206 5.62369 12.8853 5.62369Z" fill="black" fill-opacity="0.4"/>
<path d="M16.3809 5.62369C17.0602 5.62369 17.6108 5.08612 17.6108 4.42299C17.6108 3.75986 17.0602 3.22229 16.3809 3.22229C15.7016 3.22229 15.1509 3.75986 15.1509 4.42299C15.1509 5.08612 15.7016 5.62369 16.3809 5.62369Z" fill="black" fill-opacity="0.4"/>
<path d="M19.877 5.62369C20.5563 5.62369 21.1069 5.08612 21.1069 4.42299C21.1069 3.75986 20.5563 3.22229 19.877 3.22229C19.1977 3.22229 18.647 3.75986 18.647 4.42299C18.647 5.08612 19.1977 5.62369 19.877 5.62369Z" fill="black" fill-opacity="0.4"/>
</svg>
