<svg width="67" height="49" viewBox="0 0 67 49" fill="none" xmlns="http://www.w3.org/2000/svg">
<path d="M57.3024 4.64172H8.84935C8.124 4.64172 7.47119 5.222 7.47119 6.01988V36.2668C7.54373 36.9921 8.124 37.5724 8.84935 37.5724H57.3024C58.0277 37.5724 58.6805 36.9921 58.6805 36.1942V6.01988C58.6805 5.29453 58.1003 4.64172 57.3024 4.64172ZM55.9968 34.8886H10.2275V7.3255H55.9968V34.8886Z" fill="black" fill-opacity="0.4"/>
<path d="M65.3535 39.1686H63.105C63.25 38.7334 63.3951 38.3707 63.3951 37.863V3.9894C63.3951 2.90138 62.9599 1.8859 62.2346 1.16055C61.5092 0.435207 60.4937 0 59.4057 0H6.81824C5.73022 0 4.71474 0.435207 3.9894 1.16055C3.26405 1.8859 2.82884 2.90138 2.82884 3.9894V37.7905C2.82884 38.2257 2.97391 38.6609 3.11898 39.0961H1.37815C0.65281 39.0961 0 39.6764 0 40.4742C0 42.5777 0.870413 44.5362 2.24857 45.9869C3.62672 47.365 5.58515 48.2354 7.76119 48.2354H58.898C61.0015 48.2354 62.9599 47.365 64.4106 45.9869C65.7888 44.6087 66.7317 42.6503 66.7317 40.4742C66.7317 39.7489 66.1514 39.1686 65.3535 39.1686ZM5.87529 3.11898C6.0929 2.90138 6.45557 2.75631 6.74571 2.75631H59.3332C59.6959 2.75631 59.986 2.90138 60.2036 3.11898C60.4212 3.33658 60.5663 3.69926 60.5663 3.9894V37.7905C60.5663 38.1531 60.4212 38.4433 60.2036 38.6609C59.986 38.8785 59.6233 39.0235 59.3332 39.0235H6.81824C6.45557 39.0235 6.16543 38.8785 5.94783 38.6609C5.73022 38.4433 5.58515 38.0806 5.58515 37.7905V3.9894H5.51262C5.51262 3.62672 5.65769 3.33658 5.87529 3.11898ZM62.5247 44.101C61.5818 45.0439 60.3487 45.6242 58.898 45.6242H7.76119C6.38303 45.6242 5.07741 45.0439 4.207 44.101C3.62672 43.5207 3.11898 42.7228 2.90138 41.8524H63.8303C63.6127 42.7228 63.1775 43.4481 62.5247 44.101Z" fill="black" fill-opacity="0.4"/>
</svg>
