<svg width="62" height="53" viewBox="0 0 62 53" fill="none" xmlns="http://www.w3.org/2000/svg">
<path d="M59.9986 1.17213C59.266 0.43955 58.2404 0 57.1415 0H4.02921C2.93033 0 1.90472 0.43955 1.17213 1.17213C0.43955 1.90472 0 2.93033 0 4.02921V38.1676C0 39.2665 0.43955 40.2921 1.17213 41.0247C1.97798 41.7573 2.93033 42.2701 4.02921 42.2701H21.9775V45.4202H21.2449C20.2926 45.4202 19.4867 45.7865 18.9007 46.3725C18.3146 46.9586 17.9483 47.8377 17.9483 48.7168C17.9483 49.6692 18.3146 50.475 18.9007 51.0611C19.4867 51.6471 20.3658 52.0134 21.2449 52.0134H40.4386C41.391 52.0134 42.1968 51.6471 42.7829 51.0611C43.3689 50.475 43.7352 49.5959 43.7352 48.7168C43.7352 47.7644 43.3689 46.9586 42.7829 46.3725C42.1968 45.7865 41.3177 45.4202 40.4386 45.4202H39.706V42.2701H57.1415C58.2404 42.2701 59.266 41.8305 59.9986 41.0979C60.7312 40.3654 61.1707 39.3397 61.1707 38.2409V4.02921C61.1707 2.93033 60.7312 1.90472 59.9986 1.17213ZM2.78382 4.02921C2.78382 3.73618 2.93033 3.36988 3.15011 3.15011C3.36988 2.93033 3.73618 2.78382 4.02921 2.78382H57.1415C57.5078 2.78382 57.8008 2.93033 58.0206 3.15011C58.2404 3.36988 58.3869 3.73618 58.3869 4.02921V33.3326H2.78382V4.02921ZM40.3654 48.0575C40.6584 48.1307 40.8049 48.204 40.9514 48.2773C41.0979 48.4238 41.1712 48.5703 41.1712 48.7168C41.1712 48.8633 41.0979 49.0831 40.9514 49.1564C40.8049 49.3029 40.6584 49.3761 40.5119 49.3761H21.3182C21.1717 49.3761 20.9519 49.3029 20.8786 49.1564C20.7321 49.0098 20.6589 48.8633 20.6589 48.7168C20.6589 48.5703 20.7321 48.3505 20.8054 48.2773C20.9519 48.1307 21.0984 48.0575 21.2449 48.0575H23.2962H38.3141H40.3654ZM24.7613 45.4202V42.2701H37.0687V45.4202H36.9955H24.7613ZM58.4602 38.2409C58.4602 38.6072 58.3137 38.9002 58.0939 39.12C57.8741 39.3397 57.5078 39.4863 57.2148 39.4863H38.3874H23.3694H4.02921C3.66292 39.4863 3.36988 39.3397 3.15011 39.12C2.93033 38.9002 2.78382 38.6072 2.78382 38.2409V36.1164H58.4602V38.2409Z" fill="black" fill-opacity="0.4"/>
<path d="M55.0902 4.68909H6.15363C5.42104 4.68909 4.76172 5.27515 4.76172 6.081V30.4028C4.76172 31.1354 5.42104 31.7214 6.15363 31.7214H55.0902C55.8228 31.7214 56.4821 31.1354 56.4821 30.3295V6.081C56.4821 5.34841 55.8961 4.68909 55.0902 4.68909ZM53.6983 29.0109H7.47228V7.39965H53.6983V29.0109Z" fill="black" fill-opacity="0.4"/>
</svg>
