<svg width="50" height="50" viewBox="0 0 50 50" fill="none" xmlns="http://www.w3.org/2000/svg">
<g clip-path="url(#clip0)">
<path d="M16.908 4.2038L0.854563 17.6104C0.680247 17.756 0.694114 18.0281 0.882395 18.1551L6.85709 22.1876C6.90914 22.2227 6.95055 22.2715 6.97662 22.3287L10.1329 29.2437C10.2264 29.4487 10.4895 29.5083 10.6624 29.3637L26.7308 15.9153L16.908 4.2038Z" fill="#FF4C4C"/>
<path d="M39.7553 41.4188L35.1272 41.7513L30.8005 46.1936C30.6784 46.3188 30.511 46.3895 30.3361 46.3895H15.117C14.498 46.3895 14.2312 45.6047 14.7219 45.2273L28.7241 34.4611L33.2919 26.8475C34.0575 25.5713 35.8279 25.3744 36.8553 26.451L45.4261 33.0172C46.7216 34.0097 46.8019 35.9331 45.5935 37.0301L41.991 40.3005C41.3634 40.8777 40.587 41.2661 39.7553 41.4188Z" fill="#FED9A8"/>
<path d="M45.4258 33.0172L43.3303 31.4119C43.5557 32.3093 43.3025 33.3086 42.5525 33.9894L38.9499 37.2598C38.3223 37.8371 37.5459 38.2254 36.7143 38.3782L32.0863 38.7107L24.6071 46.3896H30.3359C30.5108 46.3896 30.6783 46.3189 30.8002 46.1936L35.127 41.7513L39.7549 41.4188C40.5866 41.2661 41.363 40.8778 41.9905 40.3004L45.5931 37.03C46.8016 35.9332 46.7213 34.0097 45.4258 33.0172Z" fill="#F4C28C"/>
<path d="M45.9728 35.9324L33.6573 21.2085C33.4116 20.9147 32.9744 20.8757 32.6804 21.1211L30.6725 22.7979C30.3783 23.0437 30.3391 23.4814 30.5851 23.7755L42.9042 38.5036C43.1503 38.7977 43.5883 38.8365 43.8822 38.59L45.8866 36.9088C46.1797 36.6629 46.2184 36.2259 45.9728 35.9324Z" fill="#AF8A82"/>
<path d="M38.9029 29.2807L39.7678 30.211C39.2809 30.263 38.782 30.0976 38.4289 29.7178L37.6419 28.8713C38.0943 28.7882 38.5725 28.9254 38.9029 29.2807Z" fill="#E8D06B"/>
<path d="M43.7174 36.8775C44.4165 37.6305 45.5938 37.6741 46.3466 36.9748L48.675 34.8116C49.4275 34.1126 49.4709 32.9361 48.7722 32.1834C48.0731 31.4304 46.8958 31.3868 46.143 32.0861L43.8146 34.2493C43.0623 34.9483 43.0187 36.1249 43.7174 36.8775Z" fill="#F4C28C"/>
<path d="M43.8146 34.2494L46.143 32.0862C46.8958 31.3869 48.0731 31.4304 48.7722 32.1835C49.1776 32.6201 49.3326 33.1994 49.2449 33.7454C48.5366 33.1419 47.4729 33.1508 46.7745 33.7997L44.446 35.9629C44.1301 36.2563 43.9397 36.6341 43.8762 37.0292C43.8211 36.9822 43.7679 36.932 43.7174 36.8776C43.0187 36.125 43.0623 34.9484 43.8146 34.2494Z" fill="#FED9A8"/>
<path d="M41.852 33.5209C42.5617 34.2854 43.7567 34.3295 44.5209 33.6197L46.8082 31.4948C47.5719 30.7852 47.6161 29.591 46.9068 28.8269C46.1971 28.0625 45.0021 28.0183 44.238 28.7282L41.9507 30.8531C41.187 31.5627 41.1427 32.757 41.852 33.5209Z" fill="#F4C28C"/>
<path d="M41.9507 30.8531L44.238 28.7282C45.0021 28.0182 46.1971 28.0624 46.9068 28.8269C47.3134 29.2648 47.4719 29.844 47.3897 30.3923C46.6708 29.7666 45.5808 29.7714 44.8669 30.4347L42.5796 32.5596C42.2536 32.8624 42.0592 33.2537 41.998 33.662C41.9475 33.6181 41.8987 33.5711 41.852 33.5209C41.1427 32.7569 41.1868 31.5626 41.9507 30.8531Z" fill="#FED9A8"/>
<path d="M39.2703 30.7776C39.98 31.5421 41.175 31.5862 41.9391 30.8764L44.2264 28.7515C44.9902 28.0419 45.0343 26.8477 44.3251 26.0836C43.6154 25.3192 42.4204 25.275 41.6562 25.9849L39.3689 28.1098C38.6052 28.8193 38.561 30.0137 39.2703 30.7776Z" fill="#F4C28C"/>
<path d="M39.3689 28.1097L41.6563 25.9848C42.4204 25.2749 43.6154 25.3191 44.3251 26.0836C44.374 26.1363 44.4191 26.1913 44.4608 26.2478C44.0458 26.2769 43.6376 26.4424 43.3091 26.7476L41.0218 28.8725C40.3107 29.5331 40.2237 30.6136 40.7874 31.3761C40.2371 31.4148 39.6748 31.2135 39.2703 30.7777C38.561 30.0137 38.6052 28.8193 39.3689 28.1097Z" fill="#FED9A8"/>
<path d="M36.7837 27.9316C37.4934 28.6961 38.6884 28.7402 39.4526 28.0303L41.7399 25.9054C42.5036 25.1959 42.5478 24.0016 41.8385 23.2376C41.1288 22.4731 39.9338 22.429 39.1697 23.1388L36.8824 25.2637C36.1186 25.9733 36.0745 27.1676 36.7837 27.9316Z" fill="#F4C28C"/>
<path d="M36.8824 25.2637L39.1697 23.1388C39.9338 22.4289 41.1288 22.4731 41.8385 23.2375C42.2447 23.675 42.4033 24.2535 42.3217 24.8012C41.6028 24.1744 40.512 24.1789 39.7975 24.8425L37.5102 26.9674C37.1837 27.2707 36.9892 27.6626 36.9284 28.0716C36.8783 28.028 36.8299 27.9814 36.7837 27.9316C36.0745 27.1676 36.1186 25.9733 36.8824 25.2637Z" fill="#FED9A8"/>
<path d="M41.1541 29.3766L40.7299 29.7707C40.0625 30.3907 39.0328 30.367 38.4292 29.7179L37.3612 28.5692C36.8384 28.0069 35.9455 27.9894 35.371 28.53C35.6924 33.5046 28.7244 34.4612 28.7244 34.4612L31.6861 27.1763C31.8687 26.6328 32.1847 26.1405 32.6049 25.7451L34.7083 23.7655C35.7309 22.803 37.3203 22.8336 38.2515 23.8338L41.2691 27.0749C41.874 27.7246 41.8225 28.7556 41.1541 29.3766Z" fill="#FED9A8"/>
<path d="M13.535 7.02125L23.407 18.6976L26.7309 15.9156L16.8621 4.24274L13.535 7.02125Z" fill="#EA2828"/>
<path d="M49.3091 31.6852C48.9557 31.3045 48.5069 31.0441 48.0126 30.9269C48.2978 30.0511 48.1135 29.05 47.4438 28.3286C46.9674 27.8155 46.3198 27.5186 45.6202 27.4927C45.5991 27.492 45.5782 27.4923 45.5572 27.492C45.5893 26.8128 45.3599 26.1216 44.862 25.5853C44.3915 25.0785 43.7538 24.7832 43.0639 24.751C43.1261 24.0385 42.8991 23.3033 42.3753 22.7391C41.8991 22.2261 41.2513 21.9292 40.5517 21.9033C39.8529 21.8773 39.1843 22.1256 38.6714 22.6021L38.3237 22.9251C37.8187 22.5606 37.2145 22.3536 36.5727 22.3324C36.2546 22.3227 35.9413 22.3588 35.6402 22.437L34.2196 20.7385C33.7154 20.1357 32.8146 20.0554 32.2117 20.5589L31.8415 20.868L16.9721 3.13966C16.7121 2.8298 16.2504 2.78927 15.9403 3.04913C15.6305 3.309 15.59 3.77101 15.8498 4.08077L15.8761 4.11202L0.385878 17.0483C0.12455 17.2666 -0.0154885 17.5869 0.00179658 17.927C0.0191794 18.2672 0.190956 18.5716 0.473378 18.7623L6.35676 22.7331L9.46731 29.5478C9.60764 29.8552 9.87707 30.0744 10.2067 30.1491C10.2867 30.1673 10.3673 30.1761 10.4471 30.1761C10.6956 30.1761 10.9368 30.0895 11.133 29.9254L26.6404 16.9465L30.7173 21.8072L30.2037 22.236C29.9112 22.4803 29.7314 22.824 29.6973 23.2035C29.6634 23.5832 29.7794 23.9533 30.0239 24.2455L31.4669 25.9707C31.2723 26.2665 31.1141 26.5856 30.9995 26.9205L28.1207 34.0016L14.2758 44.6469C13.7996 45.0132 13.6169 45.6172 13.8104 46.186C14.0037 46.7546 14.5168 47.122 15.1174 47.122H30.3366C30.7067 47.122 31.0672 46.9699 31.3256 46.7047L35.458 42.4619L39.8082 42.1493C39.8349 42.1473 39.8616 42.144 39.888 42.1392C40.8577 41.9611 41.7564 41.5117 42.4836 40.8427L44.311 39.1837C44.3251 39.1728 44.3396 39.1627 44.3533 39.1512L45.5283 38.1658C46.0176 38.081 46.4727 37.8573 46.8452 37.5114L49.1737 35.3482C50.2205 34.3756 50.2813 32.7325 49.3091 31.6852ZM10.5867 28.4726L7.64358 22.0246C7.56135 21.8445 7.43118 21.6909 7.2676 21.5806L1.72406 17.8392L16.8173 5.23438L25.6993 15.8242L10.5867 28.4726ZM42.4206 28.273C42.4489 27.706 42.2766 27.1644 41.9336 26.7269L42.1548 26.5214C42.381 26.3113 42.6756 26.2026 42.9841 26.2132C43.2927 26.2246 43.5784 26.3555 43.7884 26.5818C44.1935 27.0182 44.196 27.6866 43.8136 28.1261C43.7887 28.1476 43.7639 28.1691 43.7397 28.1916L41.4524 30.3166C41.4187 30.3479 41.386 30.3799 41.3544 30.4126C41.1824 30.5441 40.9793 30.6226 40.7644 30.6426C40.9281 30.5507 41.0847 30.4407 41.2285 30.3072L41.6527 29.913C42.1167 29.4822 42.3893 28.8997 42.4206 28.273ZM39.6682 23.6754C39.8944 23.4652 40.1882 23.3548 40.4976 23.3672C40.8062 23.3785 41.0919 23.5094 41.3019 23.7357C41.7354 24.2026 41.7083 24.9352 41.2416 25.3688L40.9412 25.6478L39.3661 23.956L39.6682 23.6754ZM31.1723 23.3354L33.121 21.7081L34.3146 23.1351C34.2781 23.1667 34.2419 23.1988 34.2064 23.2321L32.4604 24.8755L31.1723 23.3354ZM41.4957 39.7616C40.9781 40.2376 40.3445 40.5586 39.6613 40.6913L35.0753 41.0209C34.8964 41.0338 34.7283 41.112 34.6032 41.2404L30.3012 45.6574H15.3647L29.1709 35.0418C29.181 35.0339 29.1901 35.0253 29.1998 35.0171C29.2064 35.0115 29.2132 35.0062 29.2195 35.0003C29.2429 34.979 29.2646 34.9564 29.2846 34.9327C29.2885 34.928 29.2921 34.923 29.2959 34.9182C29.3141 34.8954 29.3308 34.8717 29.3461 34.8472C29.3489 34.8426 29.3519 34.8382 29.3548 34.8335C29.3721 34.8043 29.387 34.7741 29.3999 34.743C29.4008 34.741 29.4019 34.7392 29.4028 34.7372L32.3644 27.4522C32.3702 27.4382 32.3754 27.424 32.3802 27.4096C32.5241 26.9816 32.7753 26.5905 33.1067 26.2786L35.2101 24.2989C35.5714 23.9591 36.0383 23.78 36.5244 23.7967C36.9845 23.8118 37.4076 24.0023 37.7155 24.333L37.7938 24.4171L37.7939 24.4172L37.794 24.4173L40.3664 27.1802C40.3666 27.1805 40.3668 27.1807 40.3671 27.181C40.3672 27.1812 40.3674 27.1814 40.3676 27.1816C40.3677 27.1817 40.3678 27.1819 40.3679 27.182C40.3681 27.1822 40.3683 27.1824 40.3685 27.1826L40.7331 27.5741C40.8896 27.7423 40.9694 27.9647 40.9577 28.2002C40.9456 28.4433 40.8383 28.6707 40.6557 28.8403L40.2316 29.2343C39.938 29.507 39.5206 29.5585 39.1968 29.393C39.1888 29.3886 39.1804 29.3851 39.1723 29.381C39.0969 29.3393 39.027 29.2854 38.9656 29.2194L37.8976 28.0708C37.5159 27.6601 36.9944 27.4237 36.4294 27.4048C35.8493 27.3853 35.2954 27.5956 34.8691 27.9968C34.71 28.1465 34.6261 28.3595 34.6402 28.5774C34.6579 28.8503 34.65 29.1117 34.6179 29.3635C34.6162 29.3766 34.614 29.3897 34.613 29.4029C34.527 30.0268 34.2875 30.5901 33.888 31.1087C33.6411 31.4291 33.7007 31.8888 34.0211 32.1357C34.3414 32.3824 34.8012 32.3229 35.0481 32.0025C35.2964 31.6804 35.5007 31.3413 35.6624 30.987L42.3428 38.9739C42.3458 38.9774 42.3492 38.9805 42.3522 38.984L41.4957 39.7616ZM43.4373 37.9989L36.1011 29.2284C36.1081 29.1238 36.113 29.0186 36.1139 28.9122C36.1986 28.8804 36.2886 28.8649 36.3804 28.8684C36.5528 28.8742 36.7107 28.945 36.8249 29.0678L37.8928 30.2165C38.0021 30.334 38.1212 30.4376 38.2474 30.527C38.3651 30.8034 38.5279 31.0545 38.7336 31.2759C39.2098 31.789 39.8576 32.0859 40.5572 32.1119C40.5782 32.1126 40.5992 32.1128 40.6201 32.113C40.5881 32.7921 40.8174 33.483 41.3153 34.0193C41.6721 34.4037 42.1252 34.6667 42.6242 34.7853C42.3327 35.6564 42.513 36.6567 43.1807 37.3759C43.3282 37.5348 43.4923 37.6727 43.6694 37.788L43.4373 37.9989ZM43.1932 33.3914C42.8847 33.38 42.5991 33.2491 42.389 33.0228C41.9839 32.5864 41.9813 31.9181 42.3636 31.4787C42.3885 31.4572 42.4134 31.4355 42.4377 31.413L44.725 29.2881C44.7587 29.2568 44.7914 29.2247 44.8231 29.1921C45.0355 29.0299 45.2956 28.9473 45.5659 28.9566C45.8745 28.968 46.1601 29.099 46.3702 29.3253C46.8037 29.7921 46.7765 30.5248 46.3098 30.9584L45.888 31.3503C45.8038 31.4116 45.7223 31.4778 45.6448 31.5498L43.8565 33.2111C43.6604 33.3366 43.4315 33.4003 43.1932 33.3914ZM48.1768 34.2751L45.8484 36.4382C45.6602 36.6131 45.4241 36.7162 45.1714 36.7357C45.1614 36.7364 45.1513 36.7369 45.1414 36.7379C45.1075 36.7396 45.0735 36.7403 45.0391 36.7389C44.738 36.7279 44.4593 36.6 44.2544 36.3793C43.8315 35.9237 43.8579 35.2089 44.3132 34.7859L44.7752 34.3567C44.8598 34.2951 44.9417 34.2286 45.0196 34.1562L46.8065 32.4961C46.9973 32.3748 47.2198 32.3134 47.451 32.3219C47.7522 32.3331 48.0309 32.4609 48.2359 32.6816C48.6586 33.1373 48.6322 33.8521 48.1768 34.2751Z" fill="black"/>
</g>
<defs>
<clipPath id="clip0">
<rect width="50" height="50" fill="white"/>
</clipPath>
</defs>
</svg>
