<svg width="62" height="46" viewBox="0 0 62 46" fill="none" xmlns="http://www.w3.org/2000/svg">
<path d="M16.0049 25.0033L24.4385 18.3108C25.2977 17.6288 26.3622 17.2576 27.459 17.2576H40.0158C41.0209 17.2576 42.0013 17.5698 42.8219 18.15L52.5104 25.0033H16.0049Z" fill="#D5F3F7"/>
<path d="M10.0504 37.0367H2.6033C1.7309 37.0367 1.0239 36.3297 1.0239 35.4573V33.9111V33.7111V29.2455C1.0239 27.7005 2.06396 26.3495 3.55722 25.9541C3.55734 25.9541 3.55746 25.954 3.55759 25.954L12.4958 23.5597L12.4959 23.5597C13.6363 23.2544 14.8123 23.0995 15.9933 23.0995H16.6393L23.7565 17.4517C24.8055 16.6189 26.1197 16.1611 27.4588 16.1611H40.0156C41.2542 16.1611 42.444 16.5393 43.4551 17.2547C43.4551 17.2547 43.4551 17.2547 43.4552 17.2547L51.7181 23.0995H56.7895V23.0994L56.9895 23.0994L58.8546 23.0995C60.0264 23.0995 60.976 24.0491 60.976 25.2209V35.4573C60.976 35.9712 60.7307 36.4277 60.3508 36.7161C60.1663 36.8561 59.9502 36.9565 59.7149 37.0047C59.6461 37.0187 59.5757 37.0283 59.5039 37.0332C59.4684 37.0355 59.4327 37.0367 59.3966 37.0367L52.8195 37.0367C52.5672 39.3297 50.6235 41.1135 48.2633 41.1135C48.0936 41.1135 47.9261 41.1043 47.7612 41.0864C46.3835 40.9363 45.1892 40.1758 44.4544 39.081L44.1513 38.6518L44.2102 38.673C43.9463 38.1749 43.7715 37.6224 43.707 37.0367M43.707 37.0367C43.707 37.0368 43.707 37.0367 43.707 37.0367Z" fill="#838383" stroke="black" stroke-width="0.4"/>
<path d="M37.2194 13.0651C35.1781 11.7983 33.823 9.54609 33.8 6.94817L33.8 6.94817C33.7781 4.45043 35.0155 2.24008 36.9151 0.914061L36.9154 0.913876C37.3258 0.628348 37.8979 0.910838 37.8979 1.42109V5.05632C37.8979 5.91635 38.5953 6.61374 39.4554 6.61374H42.8298C43.6902 6.61374 44.3872 5.91639 44.3872 5.05632V4.39331L44.3871 4.39318L44.3871 4.35615L44.3872 1.52423C44.3872 1.00568 44.9749 0.726337 45.3832 1.02695L45.3833 1.02703C47.1787 2.35066 48.3452 4.47977 48.3452 6.88234C48.3452 9.48361 46.9793 11.7658 44.9257 13.0512V33.1725C46.9793 34.4578 48.3452 36.74 48.3452 39.3413C48.3452 41.7835 47.1405 43.9434 45.2947 45.2614L37.2194 13.0651ZM37.2194 13.0651V33.156M37.2194 13.0651V33.156M37.2194 33.156C35.186 34.4158 33.8346 36.6536 33.8005 39.2437C33.7678 41.7209 34.9749 43.9173 36.8395 45.2541L36.956 45.0915M37.2194 33.156L36.956 45.0915M36.956 45.0915L36.8395 45.2541C37.2494 45.5479 37.828 45.2632 37.828 44.7508M36.956 45.0915L37.828 44.7508M37.828 44.7508V40.9092M37.828 44.7508V40.9092M37.828 40.9092C37.828 40.0492 38.5249 39.3518 39.3854 39.3518M37.828 40.9092L39.3854 39.3518M39.3854 39.3518H42.7598M39.3854 39.3518H42.7598M42.7598 39.3518C43.6199 39.3518 44.3172 40.0492 44.3172 40.9092M42.7598 39.3518L44.3172 40.9092M44.3172 40.9092V44.7512M44.3172 40.9092V44.7512M44.3172 44.7512C44.3172 45.2471 44.8805 45.5576 45.2945 45.2615L44.3172 44.7512Z" fill="#838383" stroke="black" stroke-width="0.4"/>
<path d="M42.8219 18.15C42.0009 17.5698 41.0205 17.2576 40.0154 17.2576H33.2797C34.2852 17.2576 35.2657 17.5698 36.0862 18.15L45.7747 25.0033H52.5104L42.8219 18.15Z" fill="#A7E8F1"/>
<path d="M32.583 17.6162H34.3768V24.1361H32.583V17.6162Z" fill="#00915D"/>
<path d="M55.3316 25.8999H13.4321L23.8812 17.6081C24.8948 16.8034 26.1652 16.3609 27.4592 16.3609H40.016C41.2132 16.3609 42.3627 16.7262 43.34 17.4177L55.3316 25.8999ZM18.578 24.1061H49.6899L42.3045 18.882C41.6316 18.4059 40.8402 18.1542 40.016 18.1542H27.4592C26.5687 18.1542 25.694 18.4595 24.9962 19.0129L18.578 24.1061Z" fill="#6DCC6D"/>
<path d="M59.3966 36.8365H2.6033C1.84136 36.8365 1.2239 36.219 1.2239 35.4571V29.2453C1.2239 27.7909 2.20302 26.5192 3.60876 26.1471L12.5476 23.7527C13.6712 23.4519 14.8298 23.2992 15.9933 23.2992H58.8546C59.9159 23.2992 60.776 24.1593 60.776 25.2207V35.4571C60.776 36.219 60.1585 36.8365 59.3966 36.8365Z" fill="#6DCC6D"/>
<path d="M60.776 30.0678H56.6782C55.705 30.0678 54.9163 29.2791 54.9163 28.3063C54.9163 27.3331 55.705 26.5444 56.6782 26.5444H60.776V30.0678Z" fill="#FF6930"/>
<path d="M6.64529 29.5344C6.9438 30.1669 6.24183 31.1251 5.0778 31.674C3.91376 32.2233 3.11865 31.972 2.82014 31.3391C2.52164 30.7067 2.83287 29.9329 3.9969 29.3836C5.1614 28.8343 6.34679 28.9015 6.64529 29.5344Z" fill="#E7E7E7"/>
<path d="M31.4179 28.4733H29.6241C29.1289 28.4733 28.7272 28.0717 28.7272 27.5764C28.7272 27.0812 29.1289 26.6796 29.6241 26.6796H31.4179C31.9131 26.6796 32.3148 27.0812 32.3148 27.5764C32.3148 28.0717 31.9131 28.4733 31.4179 28.4733Z" fill="#007C4F"/>
<path d="M58.8546 23.2995H56.9895V32.5318C56.9895 33.2933 56.3716 33.9112 55.6101 33.9112H1.2239V35.4574C1.2239 36.2193 1.84136 36.8368 2.6033 36.8368H59.3971C60.1585 36.8368 60.776 36.2193 60.776 35.4574V25.2209C60.776 24.1596 59.9159 23.2995 58.8546 23.2995Z" fill="#007B4E"/>
<path d="M56.989 26.5444H60.7755V30.0678H56.989V26.5444Z" fill="#FF5426"/>
<path d="M14.607 29.3129C18.2063 29.3129 21.1242 32.2307 21.1242 35.8301V36.8364H8.08985V35.8301C8.08985 32.2307 11.0077 29.3129 14.607 29.3129Z" fill="#5A5A5A"/>
<path d="M14.6069 29.3129C14.0067 29.3129 13.4265 29.3956 12.875 29.5473C15.9754 30.0489 18.3439 32.7369 18.3439 35.9795V36.8364H21.1241V35.8301C21.1241 32.2307 18.2063 29.3129 14.6069 29.3129Z" fill="#444444"/>
<path d="M48.2633 29.3129C51.8627 29.3129 54.7805 32.2307 54.7805 35.8301V36.8364H41.7462V35.8301C41.7462 32.2307 44.664 29.3129 48.2633 29.3129Z" fill="#5A5A5A"/>
<path d="M48.2633 29.3129C47.6635 29.3129 47.0829 29.3956 46.5313 29.5473C49.6322 30.0489 52.0003 32.7369 52.0003 35.9795V36.8364H54.7804V35.8301C54.7804 32.2307 51.8626 29.3129 48.2633 29.3129Z" fill="#444444"/>
<path d="M18.991 36.5297C18.991 38.9509 17.0282 40.9137 14.607 40.9137C12.1858 40.9137 10.223 38.9509 10.223 36.5297C10.223 34.1085 12.1858 32.1457 14.607 32.1457C17.0282 32.1457 18.991 34.1085 18.991 36.5297Z" fill="#9C9C9C"/>
<path d="M16.0904 32.4036C16.5947 33.1174 16.8919 33.9884 16.8919 34.9289C16.8919 37.3501 14.9291 39.3129 12.5079 39.3129C11.9872 39.3129 11.4879 39.2216 11.0244 39.0548C11.8182 40.1789 13.1262 40.9136 14.607 40.9136C17.0282 40.9136 18.991 38.9508 18.991 36.5296C18.991 34.629 17.7815 33.0115 16.0904 32.4036Z" fill="#838383"/>
<path d="M16.5355 36.5296C16.5355 37.5951 15.6718 38.4583 14.6064 38.4583C13.5409 38.4583 12.6772 37.5951 12.6772 36.5296C12.6772 35.4642 13.5409 34.6005 14.6064 34.6005C15.6718 34.6005 16.5355 35.4642 16.5355 36.5296Z" fill="#E7E7E7"/>
<path d="M15.2584 34.7162C15.3093 34.8889 15.3379 35.072 15.3379 35.2614C15.3379 36.3269 14.4742 37.1901 13.4088 37.1901C13.1793 37.1901 12.9603 37.1483 12.7563 37.0747C12.9917 37.8744 13.73 38.4582 14.606 38.4582C15.671 38.4582 16.5347 37.595 16.5347 36.5295C16.5347 35.6935 16.0022 34.9838 15.2584 34.7162Z" fill="#CECECE"/>
<path d="M52.6473 36.5297C52.6473 38.9509 50.6845 40.9137 48.2633 40.9137C45.8421 40.9137 43.8793 38.9509 43.8793 36.5297C43.8793 34.1085 45.8421 32.1457 48.2633 32.1457C50.6845 32.1457 52.6473 34.1085 52.6473 36.5297Z" fill="#9C9C9C"/>
<path d="M49.7467 32.4036C50.251 33.1174 50.5486 33.9884 50.5486 34.9289C50.5486 37.3501 48.5854 39.3129 46.1646 39.3129C45.6435 39.3129 45.1442 39.2216 44.6807 39.0548C45.4745 40.1789 46.7826 40.9136 48.2633 40.9136C50.6845 40.9136 52.6473 38.9508 52.6473 36.5296C52.6473 34.629 51.4378 33.0115 49.7467 32.4036Z" fill="#838383"/>
<path d="M50.1926 36.5296C50.1926 37.5951 49.3289 38.4583 48.2634 38.4583C47.198 38.4583 46.3347 37.5951 46.3347 36.5296C46.3347 35.4642 47.198 34.6005 48.2634 34.6005C49.3289 34.6005 50.1926 35.4642 50.1926 36.5296Z" fill="#E7E7E7"/>
<path d="M48.9159 34.7162C48.9668 34.8889 48.9954 35.072 48.9954 35.2614C48.9954 36.3269 48.1317 37.1901 47.0662 37.1901C46.8368 37.1901 46.6178 37.1483 46.4138 37.0747C46.6496 37.8744 47.3875 38.4582 48.2635 38.4582C49.3289 38.4582 50.1926 37.595 50.1926 36.5295C50.1926 35.6935 49.6597 34.9838 48.9159 34.7162Z" fill="#CECECE"/>
<path d="M37.4193 10.6071H44.7257V37.3132H37.4193V10.6071Z" fill="#9C9C9C"/>
<path d="M42.2184 10.6071H44.7255V37.3132H42.2184V10.6071Z" fill="#838383"/>
<path d="M44.5872 1.52423V5.05632C44.5872 6.02681 43.8007 6.81374 42.8298 6.81374H39.4554C38.4849 6.81374 37.6979 6.02681 37.6979 5.05632V1.42109C37.6979 1.0776 37.3117 0.881779 37.0296 1.07806C35.1818 2.36795 33.9787 4.51747 34 6.94641C34.0345 10.8533 37.1654 13.9552 41.0724 13.9547C44.9784 13.9547 48.1452 10.7884 48.1452 6.88235C48.1452 4.54609 47.0111 2.47563 45.2646 1.18801C44.9838 0.981281 44.5872 1.17529 44.5872 1.52423Z" fill="#9C9C9C"/>
<path d="M41.0723 32.2693C37.1722 32.2693 34.0517 35.3466 34.0004 39.2467C33.9686 41.6556 35.1421 43.7915 36.9559 45.0918C37.2367 45.2931 37.6279 45.0968 37.6279 44.7511V40.9096C37.6279 39.9391 38.4143 39.1522 39.3853 39.1522H42.7597C43.7302 39.1522 44.5171 39.9391 44.5171 40.9096V44.7515C44.5171 45.0914 44.902 45.2968 45.1782 45.0991C46.9738 43.8169 48.1451 41.7165 48.1451 39.3416C48.1451 35.4356 44.9783 32.2693 41.0723 32.2693Z" fill="#9C9C9C"/>
<path d="M45.2647 1.18832C44.9839 0.981588 44.5873 1.17559 44.5873 1.52453V4.35648C44.888 5.14114 45.0534 5.99213 45.0534 6.88266C45.0534 10.2598 42.6858 13.0822 39.5199 13.7851C40.0193 13.8951 40.5381 13.955 41.0724 13.955C44.9785 13.955 48.1453 10.7887 48.1453 6.88266C48.1453 4.5464 47.0112 2.47594 45.2647 1.18832Z" fill="#838383"/>
<path d="M41.0722 32.2693C40.5374 32.2693 40.0181 32.3288 39.5188 32.4387C42.6847 33.1412 45.0532 35.964 45.0532 39.3417C45.0532 40.2999 44.8623 41.2136 44.517 42.0464V44.752C44.517 45.0919 44.9019 45.2968 45.1781 45.0991C46.9737 43.817 48.145 41.7165 48.145 39.3417C48.145 35.4356 44.9782 32.2693 41.0722 32.2693Z" fill="#838383"/>
</svg>
