<svg width="50" height="50" viewBox="0 0 50 50" fill="none" xmlns="http://www.w3.org/2000/svg">
<path d="M21.7773 15.7032C21.7773 21.582 17.0116 26.3477 11.1328 26.3477C5.25398 26.3477 0.488281 21.582 0.488281 15.7032C0.488281 9.82436 5.25398 5.05865 11.1328 5.05865C17.0116 5.05865 21.7773 9.82436 21.7773 15.7032Z" fill="#FFCD29"/>
<path d="M9.0233 18.0469L13.6913 21.3085L16.7969 9.94147L3.5351 14.8437L6.95306 16.8358L16.7969 9.94147L9.0233 18.0469Z" fill="#CAECFC"/>
<path d="M6.95306 16.8358L7.55846 22.2267L9.0233 18.0469L16.7969 9.94147L6.95306 16.8358Z" fill="#ACDEF9"/>
<path d="M9.02328 18.0469L10.918 19.3748L7.55844 22.2267L9.02328 18.0469Z" fill="#55ACD5"/>
<path d="M46.2696 11.211H20.7813C23.2616 16.5428 20.9373 22.871 15.6055 25.3319C12.9688 26.5625 9.96094 26.6407 7.26547 25.5859V39.1407C7.26547 40.9374 8.71086 42.3828 10.508 42.3828H46.2696C48.0663 42.3828 49.5117 40.9374 49.5117 39.1407V14.4531C49.5117 12.6758 48.0663 11.211 46.2696 11.211Z" fill="#55ACD5"/>
<path d="M31.5041 28.5545C29.9416 30.2734 27.285 30.41 25.5665 28.8475C25.4688 28.7498 25.3712 28.6522 25.2735 28.5545L24.0822 27.4414L8.00781 41.2304C8.63266 41.9727 9.55086 42.4023 10.508 42.4023H46.2696C47.2462 42.4023 48.164 41.9727 48.7694 41.2304L32.6954 27.4414L31.5041 28.5545Z" fill="#ACDEF9"/>
<path d="M46.2696 11.211H20.7813C22.5586 15.0585 21.8945 19.59 19.0819 22.7539L25.2735 28.5545C26.7967 30.2345 29.707 30.2147 31.5041 28.5545L48.7892 12.3829C48.164 11.6405 47.2462 11.211 46.2696 11.211Z" fill="#ACDEF9"/>
<path d="M19.9219 2.12898H19.5702V1.75781C19.5702 1.4843 19.3554 1.26953 19.1017 1.26953C18.8477 1.26953 18.6134 1.4843 18.6134 1.73836V1.75781V2.10953H18.2617C17.9882 2.10953 17.7734 2.3243 17.7734 2.57797C17.7734 2.83203 17.9882 3.06625 18.2423 3.06625H18.2617H18.6134V3.41797C18.6134 3.69148 18.8282 3.90625 19.0819 3.90625C19.3554 3.90625 19.5702 3.69148 19.5702 3.43742V3.41797V3.06625H19.9219C20.1954 3.06625 20.4102 2.83203 20.3907 2.57797C20.3907 2.34375 20.1759 2.12898 19.9219 2.12898Z" fill="#EA4647"/>
<path d="M45.7804 44.9413C45.7804 44.9024 45.761 44.883 45.761 44.8437C45.7411 44.8242 45.7411 44.7853 45.7217 44.7655C45.7022 44.746 45.6828 44.7071 45.6633 44.6876C45.468 44.5118 45.175 44.5118 44.9797 44.6876C44.9599 44.7071 44.9404 44.7266 44.921 44.7655C44.8821 44.8242 44.8622 44.883 44.8428 44.9413C44.8233 45.0001 44.8233 45.0783 44.8428 45.1366C44.8428 45.1759 44.8622 45.1954 44.8622 45.2343C44.8821 45.2537 44.8821 45.293 44.9015 45.3125C44.921 45.332 44.9404 45.3712 44.9599 45.3907C45.1552 45.586 45.4482 45.586 45.6435 45.3907C45.6633 45.3712 45.6828 45.3514 45.7022 45.3125C45.7217 45.293 45.7411 45.2537 45.7411 45.2343C45.761 45.2148 45.761 45.1759 45.761 45.1366C45.7804 45.0783 45.7804 45.0195 45.7804 44.9413Z" fill="#6DCC6D"/>
<path d="M22.2258 6.38658C22.2258 6.34767 22.206 6.32821 22.206 6.28892C22.1865 6.26947 22.1865 6.23056 22.1671 6.2111C22.1476 6.19127 22.1282 6.15236 22.1083 6.1329C21.913 5.95704 21.6201 5.95704 21.4247 6.1329C21.4053 6.15236 21.3858 6.17181 21.3664 6.2111C21.3271 6.26947 21.3076 6.32821 21.2882 6.38658C21.2687 6.44532 21.2687 6.52353 21.2882 6.58189C21.2882 6.62118 21.3076 6.64064 21.3076 6.67955C21.3271 6.69938 21.3271 6.73829 21.3469 6.75775C21.3664 6.7772 21.3858 6.81649 21.4053 6.83595C21.6006 7.03126 21.8936 7.03126 22.0889 6.83595C22.1083 6.81649 22.1282 6.79704 22.1476 6.75775C22.1671 6.73829 22.1865 6.69938 22.1865 6.67955C22.206 6.66009 22.206 6.62118 22.206 6.58189C22.2453 6.50407 22.2453 6.44532 22.2258 6.38658Z" fill="#FFCD29"/>
<path d="M42.0112 47.2267C41.23 47.0703 40.6051 46.4649 40.4682 45.6837C40.4682 45.6642 40.4487 45.6444 40.4293 45.6642C40.4098 45.6642 40.4098 45.6837 40.4098 45.6837C40.2534 46.4649 39.648 47.0898 38.8667 47.2267C38.8473 47.2267 38.8278 47.2462 38.8473 47.2656C38.8473 47.2851 38.8667 47.2851 38.8667 47.2851C39.648 47.4415 40.2728 48.0469 40.4098 48.8281C40.4098 48.8476 40.4293 48.867 40.4487 48.8476C40.4682 48.8476 40.4682 48.8281 40.4682 48.8281C40.6246 48.0469 41.23 47.422 42.0112 47.2851C42.0307 47.2851 42.0505 47.2656 42.0307 47.2462C42.0307 47.2462 42.0307 47.2267 42.0112 47.2267Z" fill="#55ACD5"/>
<path d="M46.2689 42.91H10.5073C9.39377 42.91 8.339 42.4217 7.6165 41.5627C7.44064 41.3475 7.47993 41.0545 7.67525 40.8791L23.7492 27.0897C23.9445 26.9337 24.2181 26.9337 24.3939 27.1095L25.5852 28.2227C25.6047 28.2227 25.6047 28.2421 25.6047 28.2421C26.9913 29.7657 29.3351 29.8828 30.8392 28.4962C30.9369 28.418 31.0151 28.3398 31.0929 28.2421C31.1127 28.2227 31.1127 28.2227 31.1322 28.2032L32.3235 27.0897C32.4994 26.9142 32.7924 26.9142 32.9682 27.0702L49.0422 40.8592C49.2375 41.0351 49.2768 41.3281 49.101 41.5428C48.4368 42.4023 47.382 42.91 46.2689 42.91ZM8.71017 41.2697C9.21791 41.6992 9.84314 41.9334 10.5073 41.9334H46.2689C46.9331 41.9334 47.5579 41.6992 48.0656 41.2697L32.7142 28.1056L31.8547 28.9063C30.1163 30.8205 27.1477 30.957 25.2335 29.1992C25.1359 29.1016 25.0382 29.0039 24.9406 28.9063L24.0815 28.1056L8.71017 41.2697Z" fill="black"/>
<path d="M11.1328 26.8166C4.98047 26.8166 0 21.8361 0 15.6837C0 9.5314 4.98047 4.55093 11.1328 4.55093C17.2852 4.55093 22.2656 9.5314 22.2656 15.6837C22.2462 21.8361 17.2657 26.8166 11.1328 26.8166ZM11.1328 5.54695C5.5275 5.54695 0.976562 10.0975 0.976562 15.7032C0.976562 21.3085 5.5275 25.8595 11.1328 25.8595C16.7381 25.8595 21.2891 21.3085 21.2891 15.7032C21.2696 10.0975 16.7187 5.54695 11.1328 5.54695Z" fill="black"/>
<path d="M13.6922 21.7968C13.5945 21.7968 13.4969 21.7579 13.4187 21.7186L8.75101 18.457C8.53587 18.3006 8.4775 18.0076 8.63352 17.7734C8.65336 17.754 8.67281 17.7345 8.67281 17.7147L12.9891 13.203L7.24688 17.2462C7.09086 17.3633 6.89555 17.3633 6.71969 17.2657L3.30172 15.2733C3.06712 15.1367 2.9893 14.8437 3.12586 14.6095C3.18461 14.5119 3.26243 14.4337 3.37992 14.3944L16.6219 9.4921C16.6806 9.47264 16.7588 9.45319 16.8366 9.45319H16.8759C16.993 9.47264 17.0907 9.53139 17.1689 9.60921C17.1884 9.62904 17.1884 9.62904 17.2078 9.6485C17.3055 9.76561 17.3249 9.92201 17.286 10.078L14.1805 21.4454C14.1221 21.6602 13.9268 21.7968 13.6922 21.7968ZM9.76649 17.9882L13.3992 20.5273L15.8212 11.66L9.76649 17.9882ZM4.68836 14.9414L6.93446 16.2498L13.4187 11.6993L4.68836 14.9414Z" fill="black"/>
<path d="M7.55765 22.715C7.5382 22.715 7.51874 22.715 7.49929 22.715C7.26468 22.6951 7.08921 22.5197 7.06937 22.2851L6.46398 16.914C6.44452 16.7381 6.52272 16.5626 6.65929 16.465L16.5031 9.57028C16.7179 9.41388 17.0303 9.47263 17.1867 9.68739C17.3233 9.88271 17.3038 10.1368 17.1478 10.3126L9.45241 18.3204L8.02648 22.3827C7.94828 22.578 7.7728 22.715 7.55765 22.715ZM7.47983 17.0704L7.81171 20.039L8.5735 17.8905C8.59296 17.8322 8.63187 17.7734 8.69062 17.7147L13.0069 13.203L7.47983 17.0704Z" fill="black"/>
<path d="M7.55844 22.7149C7.28531 22.7149 7.07016 22.4998 7.07016 22.2266C7.07016 22.1679 7.07016 22.1092 7.09 22.0702L8.55484 17.9099C8.6525 17.6563 8.92563 17.5193 9.17969 17.617C9.2186 17.6368 9.25789 17.6563 9.2968 17.6757L11.1916 18.9842C11.4063 19.1406 11.4647 19.4335 11.3087 19.6678C11.2892 19.707 11.2499 19.7265 11.2305 19.7654L7.87125 22.6173C7.79305 22.6756 7.67593 22.7149 7.55844 22.7149ZM9.27734 18.8281L8.63266 20.6836L10.1368 19.4141L9.27734 18.8281Z" fill="black"/>
<path d="M46.2696 42.91H10.508C8.43735 42.91 6.77719 41.2304 6.77719 39.1796V25.6249C6.77719 25.3517 6.99234 25.1366 7.26547 25.1366C7.32422 25.1366 7.38297 25.1564 7.44133 25.1759C12.6564 27.2072 18.5547 24.6288 20.586 19.4142C21.582 16.8358 21.5038 13.9649 20.332 11.4453C20.2148 11.1916 20.332 10.9181 20.5666 10.8009C20.6249 10.7617 20.7031 10.7617 20.7813 10.7617H46.2696C48.3398 10.7617 50 12.4413 50 14.4921V39.1991C50 41.2304 48.3398 42.91 46.2696 42.91ZM7.75375 26.289V39.1602C7.75375 40.6838 8.98438 41.914 10.508 41.914H46.2696C47.7928 41.914 49.0234 40.6838 49.0234 39.1602V14.4531C49.0234 12.9296 47.7928 11.6993 46.2696 11.6993H21.5038C21.9921 12.9688 22.2462 14.3166 22.2462 15.6838C22.2462 21.8361 17.2657 26.8166 11.1134 26.8166C9.98039 26.8166 8.82797 26.6407 7.75375 26.289Z" fill="black"/>
<path d="M28.2809 30.2929C28.2027 30.2929 28.1245 30.2929 28.0463 30.2929C26.855 30.254 25.7419 29.7657 24.9213 28.9062L18.7495 23.1056C18.5542 22.9297 18.5348 22.6173 18.7106 22.422C21.4057 19.3947 22.0309 15.078 20.3315 11.4063C20.2144 11.1523 20.3315 10.8787 20.5661 10.7616C20.6245 10.7227 20.7027 10.7227 20.7809 10.7227H46.2691C47.3823 10.7227 48.437 11.211 49.1595 12.0899C49.3159 12.2852 49.2965 12.5782 49.1206 12.754L31.8355 28.9257C30.8589 29.8046 29.5894 30.2929 28.2809 30.2929ZM19.7455 22.715L25.6049 28.2032L25.6244 28.2226C26.2691 28.9062 27.148 29.2969 28.0658 29.3163C29.1987 29.3751 30.3119 28.965 31.1519 28.2032L48.0659 12.3829C47.5581 11.953 46.9134 11.6993 46.2497 11.6993H21.5034C22.9487 15.4297 22.2652 19.6289 19.7455 22.715Z" fill="black"/>
</svg>
