<svg width="50" height="50" viewBox="0 0 50 50" fill="none" xmlns="http://www.w3.org/2000/svg">
<g clip-path="url(#clip0)">
<path d="M42.4416 41.0744L41.7187 28.1445C41.6603 27.129 40.9569 26.2695 39.9609 26.0155L35.3905 24.8634L32.6366 23.5157L31.7188 26.1913C31.6601 26.3477 31.5235 26.4454 31.3477 26.4454H28.4962C28.3398 26.4454 28.1837 26.3477 28.125 26.1913L27.2072 23.5157L24.453 24.8634L19.883 26.0155C18.8866 26.2695 18.1835 27.129 18.1252 28.1445L18.0077 30.3905C23.2811 30.8205 27.2072 35.4492 26.7578 40.7227C26.6991 41.3868 26.582 42.0311 26.3866 42.6758H40.918C41.758 42.6758 42.4416 41.9922 42.4416 41.1522C42.4416 41.1327 42.4416 41.1133 42.4416 41.0744Z" fill="#55ACD5"/>
<path d="M23.5741 11.5623C23.6916 11.5623 23.8281 11.5822 23.9452 11.6016V11.3281C23.9452 11.1523 24.0822 11.0157 24.2577 11.0157H24.3164C25.3906 11.2305 28.5545 11.6211 30.703 8.90617C30.8205 8.76961 31.0158 8.75015 31.1523 8.84781L31.1718 8.86726C31.6601 9.35555 32.9491 10.3321 35.4103 10.3905C35.5858 10.3905 35.7033 10.5274 35.7227 10.7033V10.8009V11.5822C36.4845 11.4647 37.2459 11.6993 37.8124 12.2459V7.83195C37.8124 5.97649 36.3087 4.47273 34.4532 4.47273C33.8478 4.47273 33.2619 4.64859 32.7343 4.96101C32.1289 3.94516 31.0352 3.32031 29.8439 3.32031H28.125C24.7658 3.33977 22.0509 6.05469 22.0509 9.39445V12.1288C22.4804 11.7577 23.008 11.5623 23.5741 11.5623Z" fill="#6D6C6B"/>
<path d="M36.1134 11.5623C35.9764 11.5623 35.8593 11.5822 35.7227 11.6016C35.7227 11.7382 35.7422 11.8752 35.7422 11.9923V16.0545C35.7422 16.1915 35.7422 16.3281 35.7227 16.4452C37.0705 16.6603 38.3202 15.7616 38.5353 14.4142C38.7501 13.0665 37.8517 11.8164 36.504 11.6016C36.367 11.5822 36.2499 11.5623 36.1134 11.5623Z" fill="#F9D0B4"/>
<path d="M23.9447 16.0546V11.9923C23.9447 11.8553 23.9447 11.7188 23.9642 11.6017C22.6168 11.3671 21.3473 12.2853 21.1321 13.6132C20.9174 14.9414 21.8157 16.2304 23.144 16.4452C23.4175 16.4845 23.691 16.4845 23.9642 16.4452C23.9642 16.3281 23.9447 16.1915 23.9447 16.0546Z" fill="#F9D0B4"/>
<path d="M30.7228 8.90618C28.5744 11.6211 25.3906 11.2305 24.3359 11.0157C24.16 10.9764 24.004 11.0939 23.9647 11.2499V11.3087V16.0545C23.9647 19.297 26.6014 21.9338 29.8634 21.9532C33.1055 21.9532 35.7422 19.3165 35.7616 16.0545V10.8204C35.7616 10.7811 35.7616 10.7616 35.7616 10.7227C35.7616 10.5469 35.6251 10.4103 35.4492 10.4103C33.0078 10.3321 31.7188 9.375 31.2111 8.88672C31.0936 8.76961 30.8788 8.76961 30.7617 8.88672C30.7423 8.88672 30.7228 8.90618 30.7228 8.90618Z" fill="#F9D0B4"/>
<path d="M29.8439 21.9532C28.9257 21.9532 28.0273 21.7384 27.2072 21.328V23.5157L28.125 26.1719C28.1837 26.3283 28.3203 26.4259 28.4962 26.4259H31.3282C31.4842 26.4259 31.6406 26.3283 31.6994 26.1719L32.6172 23.4962V21.2303C31.7772 21.6991 30.8205 21.9532 29.8439 21.9532Z" fill="#F9D0B4"/>
<path d="M26.7967 39.922C26.7967 45.2183 22.5033 49.5117 17.207 49.5117C11.9106 49.5117 7.61719 45.2183 7.61719 39.922C7.61719 34.6256 11.9106 30.3322 17.207 30.3322C22.5033 30.3322 26.7967 34.6256 26.7967 39.922Z" fill="#6DCC6D"/>
<path d="M18.9454 42.5976L20.215 41.8751C20.4297 41.758 20.7032 41.8163 20.8203 42.0311L22.4023 44.7853C22.5198 45.0001 22.461 45.2736 22.2463 45.3907L20.9767 46.1132C20.762 46.2303 20.4885 46.172 20.3714 45.9572L18.789 43.2228C18.6525 43.0077 18.7307 42.7345 18.9454 42.5976Z" fill="#E9E9EA"/>
<path d="M13.8281 33.7501L15.0977 33.0273C15.3124 32.9102 15.5859 32.9689 15.7031 33.1837L17.285 35.9375C17.4021 36.1523 17.3438 36.4258 17.1286 36.5429L15.8591 37.2658C15.6443 37.3829 15.3708 37.3241 15.2537 37.1094L13.6717 34.3555C13.5546 34.1408 13.613 33.8673 13.8281 33.7501Z" fill="#E9E9EA"/>
<path d="M19.2187 43.9648L18.4569 44.3947C18.0857 44.6094 17.6169 44.4725 17.4021 44.1017L13.7888 37.8319C13.574 37.4611 13.7106 36.9923 14.0818 36.7775L14.8436 36.3476L13.7304 34.4139C11.7575 35.7422 11.1521 38.3594 12.324 40.4102L14.4724 44.1212C15.6637 46.1719 18.2421 46.9532 20.3711 45.8984L19.2187 43.9648Z" fill="#E9E9EA"/>
<path d="M29.121 48.1834H28.7697V47.8321C28.7697 47.5586 28.5545 47.3438 28.2814 47.3438C28.0079 47.3438 27.7931 47.5586 27.7931 47.8321V48.1834H27.4414C27.1679 48.1834 26.9531 48.3986 26.9531 48.6717C26.9531 48.9452 27.1679 49.16 27.4414 49.16H27.7931V49.5117C27.7931 49.7852 28.0079 50 28.2814 50C28.5545 50 28.7697 49.7852 28.7697 49.5117V49.16H29.121C29.3945 49.16 29.6093 48.9452 29.6093 48.6717C29.6093 48.3986 29.3945 48.1834 29.121 48.1834Z" fill="#FFCD29"/>
<path d="M18.5741 6.71884C18.5741 6.67955 18.5547 6.66009 18.5547 6.62118C18.5352 6.60173 18.5352 6.56244 18.5158 6.54298C18.4959 6.52353 18.4765 6.48423 18.457 6.46478C18.2617 6.28892 17.9687 6.28892 17.7734 6.46478C17.754 6.48423 17.7345 6.50407 17.7147 6.54298C17.6758 6.60173 17.6563 6.66009 17.6369 6.71884C17.617 6.7772 17.617 6.8554 17.6369 6.91415C17.6369 6.95306 17.6563 6.97252 17.6563 7.01181C17.6758 7.05072 17.6758 7.07017 17.6952 7.09001C17.7147 7.10946 17.7345 7.14837 17.754 7.16783C17.9493 7.36314 18.2423 7.36314 18.4376 7.16783C18.457 7.14837 18.4765 7.12892 18.4959 7.09001C18.5158 7.07017 18.5352 7.03126 18.5352 7.01181C18.5547 6.99235 18.5547 6.95306 18.5547 6.91415C18.5936 6.83595 18.5936 6.7772 18.5741 6.71884Z" fill="#6DCC6D"/>
<path d="M32.7922 45.9373C32.7922 45.8984 32.7727 45.879 32.7727 45.8397C32.7529 45.8202 32.7529 45.7813 32.7334 45.7619C32.714 45.742 32.6945 45.7031 32.6751 45.6837C32.4797 45.5078 32.1868 45.5078 31.9915 45.6837C31.9716 45.7031 31.9522 45.7226 31.9327 45.7619C31.8938 45.8202 31.874 45.879 31.8545 45.9373C31.8351 45.9961 31.8351 46.0743 31.8545 46.1327C31.8545 46.1719 31.874 46.1914 31.874 46.2303C31.8938 46.2696 31.8938 46.2891 31.9133 46.3085C31.9327 46.328 31.9522 46.3673 31.9716 46.3867C32.1669 46.582 32.4599 46.582 32.6552 46.3867C32.6751 46.3673 32.6945 46.3478 32.714 46.3085C32.7334 46.2891 32.7529 46.2501 32.7529 46.2303C32.7727 46.2109 32.7727 46.1719 32.7727 46.1327C32.7922 46.0548 32.7922 45.9961 32.7922 45.9373Z" fill="#EA4647"/>
<path d="M23.6328 1.60141C22.8321 1.44539 22.2267 0.82016 22.0703 0.03891C22.0703 0.019455 22.0509 0 22.0314 0C22.0116 0 22.0116 0.019455 21.9921 0.03891C21.8361 0.839996 21.2109 1.44539 20.4296 1.60141C20.4102 1.60141 20.3907 1.62125 20.3907 1.6407C20.3907 1.66016 20.4102 1.66016 20.4296 1.67961C21.2303 1.83601 21.8361 2.46086 21.9921 3.24211C21.9921 3.26157 22.0116 3.2814 22.0314 3.2814C22.0509 3.2814 22.0509 3.26157 22.0703 3.24211C22.2267 2.44141 22.8516 1.83601 23.6328 1.67961C23.6523 1.67961 23.6717 1.66016 23.6717 1.6407C23.6717 1.60141 23.6523 1.60141 23.6328 1.60141Z" fill="#55ACD5"/>
<path d="M39.3749 21.2303C38.9843 21.1525 38.6719 20.8397 38.5937 20.4491L38.5742 20.4296C38.5742 20.4296 38.5548 20.4296 38.5548 20.4491C38.4766 20.8397 38.1641 21.1525 37.7735 21.2303L37.7541 21.2502C37.7541 21.2502 37.7541 21.2696 37.7735 21.2696C38.1641 21.3478 38.4766 21.6602 38.5548 22.0509L38.5742 22.0703C38.5742 22.0703 38.5937 22.0703 38.5937 22.0509C38.6719 21.6602 38.9843 21.3478 39.3749 21.2696C39.3749 21.2502 39.3944 21.2502 39.3749 21.2303Z" fill="#6DCC6D"/>
<path d="M36.1139 16.9727C35.9575 16.9727 35.8014 16.9533 35.645 16.9334C35.391 16.8945 35.2155 16.6797 35.2349 16.4257C35.2349 16.2891 35.2544 16.172 35.2544 16.0545V11.9923C35.2544 11.8751 35.2544 11.7576 35.2349 11.6211C35.2155 11.367 35.391 11.1523 35.645 11.1133C37.2464 10.8593 38.77 11.953 39.0241 13.5548C39.2778 15.1562 38.1841 16.6797 36.5827 16.9334C36.4263 16.9727 36.2699 16.9727 36.1139 16.9727ZM36.231 12.0705V16.0156C37.3246 15.9569 38.1452 15.0196 38.0864 13.9454C38.0277 12.9101 37.227 12.1094 36.231 12.0705Z" fill="#231F20"/>
<path d="M23.5741 16.9727C21.9532 16.9727 20.6249 15.6639 20.6249 14.0236C20.6249 12.4023 21.9337 11.074 23.5741 11.074C23.7305 11.074 23.8869 11.0939 24.0429 11.1133C24.297 11.1522 24.4728 11.367 24.453 11.6211C24.453 11.7576 24.4335 11.8751 24.4335 11.9922V16.0545C24.4335 16.1522 24.4335 16.2697 24.453 16.4257C24.4728 16.6797 24.297 16.8945 24.0429 16.9334C23.8869 16.9727 23.7305 16.9727 23.5741 16.9727ZM23.457 12.0704C22.3633 12.1288 21.5431 13.0665 21.6015 14.1407C21.6602 15.1367 22.4609 15.9374 23.457 15.9961V12.0704Z" fill="#231F20"/>
<path d="M29.8439 22.4415C26.3283 22.4415 23.4764 19.59 23.457 16.0546V11.3282C23.457 10.8788 23.8087 10.5275 24.2577 10.5275C24.3164 10.5275 24.3752 10.5275 24.4335 10.5469C25.5665 10.7811 28.3985 11.0741 30.3516 8.61324C30.6252 8.2619 31.1329 8.20316 31.4842 8.47667C31.5041 8.49613 31.5235 8.51558 31.543 8.53504C31.953 8.92566 33.1249 9.86331 35.4492 9.92206C35.8788 9.94151 36.211 10.2734 36.2305 10.7033V16.0546C36.211 19.59 33.3595 22.4415 29.8439 22.4415ZM24.4335 11.5235V16.0546C24.4335 19.043 26.8555 21.465 29.8439 21.465C32.832 21.465 35.2345 19.043 35.2539 16.0546V10.8986C32.9689 10.801 31.6406 9.94151 30.9959 9.37503C28.7891 11.9923 25.6447 11.7382 24.4335 11.5235Z" fill="#231F20"/>
<path d="M37.8124 12.754C37.6953 12.754 37.5587 12.6953 37.4805 12.6171C37.1094 12.2658 36.6211 12.0704 36.1134 12.0704C36.0157 12.0704 35.918 12.0704 35.8009 12.0899C35.5274 12.1288 35.2928 11.953 35.2345 11.6798C35.2345 11.66 35.2345 11.6211 35.2345 11.6016V10.8986C32.9491 10.8009 31.6212 9.94147 30.9765 9.37498C28.7697 11.9922 25.6248 11.7576 24.4335 11.5429V11.6211C24.4335 11.8946 24.2188 12.1094 23.9452 12.1094C23.9258 12.1094 23.8869 12.1094 23.867 12.1094C23.7694 12.0899 23.6717 12.0899 23.5546 12.0899C23.1056 12.0899 22.6757 12.2459 22.3244 12.5194C22.1092 12.6953 21.7968 12.6564 21.6408 12.4412C21.5626 12.3634 21.5431 12.2459 21.5431 12.1288V9.37498C21.5431 5.74225 24.4923 2.81256 28.1055 2.81256H29.8241C31.0158 2.81256 32.1484 3.37904 32.8712 4.31631C33.3595 4.10155 33.8867 3.98444 34.4337 3.98444C36.5623 3.98444 38.2812 5.70296 38.2812 7.83194V12.2459C38.3007 12.5389 38.0859 12.754 37.8124 12.754ZM36.2305 11.0741C36.6211 11.0939 36.9923 11.1717 37.3436 11.3281V7.81248C37.3436 6.23053 36.0741 4.94154 34.4921 4.94154C33.9649 4.94154 33.4572 5.07811 33.0078 5.35162C32.7736 5.48819 32.4806 5.40999 32.3437 5.17577C31.8165 4.31631 30.8983 3.76967 29.8828 3.76967H28.1639C25.0782 3.76967 22.578 6.26944 22.578 9.35553V11.2499C22.8905 11.1328 23.2227 11.0741 23.5546 11.0546C23.6717 10.664 24.0822 10.4297 24.4923 10.5079C25.6248 10.7422 28.4569 11.0351 30.41 8.57428C30.6835 8.22256 31.1913 8.1642 31.543 8.43733C31.5624 8.45717 31.5819 8.47662 31.6017 8.49608C32.0118 8.8867 33.1837 9.82436 35.508 9.88272C35.9375 9.90218 36.2694 10.2344 36.2892 10.664L36.2305 11.0741Z" fill="#231F20"/>
<path d="M29.9217 30.1563C29.7852 30.1563 29.668 30.0976 29.5704 30.0194C29.5509 29.9999 29.5311 29.9805 29.5116 29.9415C29.4727 29.8828 29.4533 29.8241 29.4334 29.7657C29.4334 29.7264 29.414 29.7069 29.414 29.668C29.414 29.5311 29.4727 29.414 29.5509 29.3163C29.5704 29.2969 29.5898 29.2774 29.6288 29.258C29.6486 29.2381 29.6875 29.2187 29.707 29.2187C29.7462 29.1992 29.7657 29.1992 29.8046 29.1992C29.8634 29.1798 29.9217 29.1798 29.9999 29.1992C30.0392 29.1992 30.0587 29.2187 30.0976 29.2187C30.117 29.2381 30.1563 29.2381 30.1758 29.258C30.1952 29.2774 30.2345 29.2969 30.254 29.3163C30.2734 29.3358 30.2929 29.3556 30.3123 29.3945C30.3322 29.414 30.3516 29.4533 30.3516 29.4727C30.3711 29.4922 30.3711 29.5311 30.3711 29.5704C30.3711 29.6093 30.3711 29.6287 30.3905 29.668C30.3905 29.7069 30.3905 29.7264 30.3711 29.7657C30.3711 29.8046 30.3516 29.8241 30.3516 29.8633C30.3322 29.8828 30.3322 29.9217 30.3123 29.9415C30.2929 29.961 30.2734 29.9999 30.254 30.0194C30.2345 30.0392 30.2147 30.0587 30.1758 30.0781C30.1563 30.0976 30.117 30.117 30.0976 30.117C30.0587 30.1369 30.0392 30.1369 29.9999 30.1369C29.9999 30.1563 29.961 30.1563 29.9217 30.1563Z" fill="#231F20"/>
<path d="M29.9217 33.3008C29.8828 33.3008 29.8634 33.3008 29.8241 33.2813C29.7852 33.2813 29.7657 33.2619 29.7264 33.2619C29.707 33.242 29.668 33.242 29.6486 33.2226C29.6288 33.2031 29.5898 33.1837 29.5704 33.1642C29.4727 33.0666 29.4334 32.9491 29.4334 32.8125C29.4334 32.7736 29.4334 32.7538 29.4533 32.7149C29.4533 32.6759 29.4727 32.6561 29.4727 32.6172C29.4922 32.5783 29.4922 32.5584 29.5116 32.539C29.5311 32.5195 29.5509 32.4806 29.5704 32.4608C29.707 32.3242 29.9217 32.2853 30.0976 32.3631C30.1369 32.383 30.1563 32.383 30.1758 32.4024C30.1952 32.4219 30.2345 32.4413 30.254 32.4608C30.2734 32.4806 30.2929 32.5001 30.3123 32.539C30.3322 32.5584 30.3516 32.5977 30.3516 32.6172C30.3711 32.6561 30.3711 32.6759 30.3711 32.7149C30.3711 32.7538 30.3711 32.7736 30.3905 32.8125C30.3905 32.9491 30.3322 33.0666 30.254 33.1642C30.2345 33.1837 30.2147 33.2031 30.1758 33.2226C30.1563 33.242 30.117 33.2619 30.0976 33.2619C30.0587 33.2813 30.0392 33.2813 29.9999 33.2813C29.9999 33.3008 29.961 33.3008 29.9217 33.3008Z" fill="#231F20"/>
<path d="M29.9217 36.4452C29.8828 36.4452 29.8634 36.4452 29.8241 36.4257C29.7852 36.4257 29.7657 36.4063 29.7264 36.4063C29.6875 36.3868 29.668 36.3868 29.6486 36.367C29.6288 36.3475 29.5898 36.3281 29.5704 36.3086C29.5509 36.2892 29.5311 36.2693 29.5116 36.2304C29.4922 36.211 29.4727 36.1717 29.4727 36.1522C29.4533 36.1133 29.4533 36.0939 29.4533 36.0546C29.4533 36.0157 29.4334 35.9962 29.4334 35.9569C29.4334 35.918 29.4334 35.8986 29.4533 35.8593C29.4533 35.8204 29.4727 35.8009 29.4727 35.7616C29.4922 35.7227 29.4922 35.7032 29.5116 35.6834C29.5311 35.6639 29.5509 35.625 29.5704 35.6056C29.5898 35.5857 29.6093 35.5663 29.6486 35.5468C29.668 35.5274 29.707 35.5079 29.7264 35.5079C29.9023 35.4297 30.117 35.4686 30.254 35.625C30.2734 35.6445 30.2929 35.6639 30.3123 35.7032C30.3322 35.7227 30.3516 35.7616 30.3516 35.7811C30.3711 35.8009 30.3711 35.8398 30.3711 35.8787C30.3711 35.918 30.3711 35.9375 30.3905 35.9764C30.3905 36.0157 30.3905 36.0351 30.3711 36.074C30.3711 36.1133 30.3516 36.1328 30.3516 36.1717C30.3322 36.1915 30.3322 36.2304 30.3123 36.2499C30.2929 36.2693 30.2734 36.3086 30.254 36.3281C30.1758 36.4063 30.0587 36.4452 29.9217 36.4452Z" fill="#231F20"/>
<path d="M29.9217 39.6095C29.8828 39.6095 29.8634 39.6095 29.8241 39.5897C29.7852 39.5897 29.7657 39.5702 29.7264 39.5702C29.707 39.5508 29.668 39.5508 29.6486 39.5313C29.6288 39.5119 29.5898 39.492 29.5704 39.4726C29.5509 39.4531 29.5311 39.4337 29.5116 39.3944C29.4922 39.3749 29.4727 39.336 29.4727 39.3166C29.4533 39.2773 29.4533 39.2578 29.4533 39.2189C29.4334 39.1602 29.4334 39.0819 29.4533 39.0236C29.4727 38.9648 29.4922 38.9061 29.5311 38.8477C29.5509 38.8283 29.5704 38.789 29.5898 38.7695C29.6093 38.7501 29.6288 38.7306 29.668 38.7108C29.6875 38.6913 29.7264 38.6719 29.7462 38.6719C29.9217 38.5937 30.1369 38.633 30.2734 38.7695C30.2929 38.789 30.3123 38.8084 30.3322 38.8477C30.3516 38.8672 30.3711 38.9061 30.3711 38.9259C30.3905 38.9648 30.3905 38.9843 30.3905 39.0236C30.41 39.0819 30.41 39.1602 30.3905 39.2189C30.3905 39.2578 30.3711 39.2773 30.3711 39.3166C30.3516 39.336 30.3516 39.3749 30.3322 39.3944C30.3123 39.4142 30.2929 39.4531 30.2734 39.4726C30.254 39.492 30.2345 39.5119 30.1952 39.5313C30.1758 39.5508 30.1369 39.5702 30.117 39.5702C30.0781 39.5897 30.0587 39.5897 30.0194 39.5897C29.9999 39.5897 29.961 39.6095 29.9217 39.6095Z" fill="#231F20"/>
<path d="M36.8164 43.164C36.5429 43.164 36.3281 42.9493 36.3281 42.6758V33.789C36.3281 33.5155 36.5429 33.3008 36.8164 33.3008C37.0899 33.3008 37.3047 33.5155 37.3047 33.789V42.6758C37.3047 42.9493 37.0899 43.164 36.8164 43.164Z" fill="#231F20"/>
<path d="M31.3477 26.9142H28.5156C28.1445 26.9142 27.8126 26.6796 27.6955 26.3283L26.7773 23.6523C26.7578 23.5939 26.7578 23.5546 26.7578 23.4963V21.3085C26.7578 21.035 26.9726 20.8202 27.2461 20.8202C27.3243 20.8202 27.4025 20.8397 27.4609 20.879C28.2032 21.2502 29.0234 21.4455 29.8634 21.4455C30.7617 21.4455 31.6406 21.2109 32.4219 20.8008C32.6561 20.6642 32.9491 20.7619 33.086 20.9961C33.1249 21.0743 33.1444 21.1525 33.1444 21.2303V23.4963C33.1444 23.5546 33.1444 23.6134 33.1249 23.6523L32.2071 26.3283C32.0507 26.6796 31.7188 26.9142 31.3477 26.9142ZM28.5744 25.9377H31.2695L32.1484 23.4181V21.9921C31.4064 22.2851 30.6252 22.422 29.8439 22.422C29.121 22.422 28.3985 22.3045 27.6955 22.0509V23.3986L28.5744 25.9377Z" fill="#231F20"/>
<path d="M20.7618 46.6797C20.6836 46.6797 20.6054 46.6602 20.5272 46.6408C20.293 46.582 20.0782 46.4256 19.9607 46.2109L18.3788 43.457C18.1251 43.0077 18.2811 42.4416 18.7305 42.1681L20 41.4452C20.449 41.1915 21.0155 41.3475 21.289 41.7969L22.8709 44.5507C23.125 45.0001 22.9686 45.5666 22.5196 45.8397L21.2501 46.5626C21.0937 46.6408 20.9178 46.6797 20.7618 46.6797ZM19.2382 43.0077L20.7812 45.6837L21.9726 45.0001L20.4295 42.3241L19.2382 43.0077Z" fill="#231F20"/>
<path d="M15.6445 37.8124C15.3126 37.8124 15.0002 37.6366 14.8243 37.3436L13.2423 34.5898C12.9883 34.1408 13.1447 33.5743 13.5937 33.3008L14.8632 32.5783C15.3126 32.3242 15.8791 32.4806 16.1522 32.9296L17.7345 35.6834C17.9882 36.1328 17.8322 36.6993 17.3828 36.9728L16.1133 37.6953C15.9767 37.7735 15.8009 37.8124 15.6445 37.8124ZM14.1212 34.1408L15.6639 36.8164L16.8556 36.1328L15.3126 33.4572L14.1212 34.1408Z" fill="#231F20"/>
<path d="M18.3586 46.8555C16.5814 46.8555 14.9212 45.8984 14.0229 44.3554L11.8744 40.6445C10.5656 38.3595 11.2492 35.4492 13.4369 34.0038C13.6517 33.8478 13.9641 33.9062 14.1205 34.1408L14.14 34.1602L15.2531 36.0939C15.39 36.3281 15.3118 36.6211 15.0772 36.7577L14.3158 37.1876C14.1789 37.2658 14.14 37.4413 14.2182 37.5782L17.8314 43.8477C17.9093 43.9842 18.0851 44.0235 18.2221 43.9453L18.9835 43.5547C19.2181 43.4181 19.5111 43.4959 19.6476 43.7305L20.7611 45.6642C20.8977 45.8984 20.8195 46.1914 20.5853 46.328L20.5658 46.3478C19.8624 46.6797 19.1204 46.8555 18.3586 46.8555ZM13.554 35.1368C12.1086 36.4063 11.7569 38.496 12.714 40.1756L14.8625 43.8866C15.8196 45.5467 17.8314 46.2891 19.6282 45.6837L19.0228 44.6484L18.6905 44.8437C18.0851 45.1954 17.3039 44.9806 16.9525 44.3748L13.3587 38.0859C13.007 37.4806 13.2218 36.6993 13.8275 36.3476L14.1594 36.1523L13.554 35.1368Z" fill="#231F20"/>
<path d="M17.207 50C11.6405 50 7.12891 45.4883 7.12891 39.9219C7.12891 34.3555 11.6405 29.8439 17.207 29.8439C22.7734 29.8439 27.285 34.3555 27.285 39.9219C27.285 45.4883 22.7734 50 17.207 50ZM17.207 30.8399C12.1876 30.8399 8.10547 34.9022 8.10547 39.9414C8.10547 44.9806 12.1876 49.0234 17.207 49.0234C22.2267 49.0234 26.3084 44.9608 26.3084 39.9219C26.3084 34.9022 22.2267 30.8399 17.207 30.8399Z" fill="#231F20"/>
<path d="M40.9374 43.164H26.4061C26.133 43.164 25.9178 42.9493 25.9178 42.6758C25.9178 42.6369 25.9178 42.5781 25.9377 42.5392C27.3827 37.7342 24.6483 32.6561 19.8242 31.2305C19.2188 31.0547 18.5936 30.9376 17.9688 30.8788C17.6952 30.8594 17.4999 30.6251 17.5194 30.3711L17.6369 28.125C17.6952 26.8944 18.5547 25.8594 19.7655 25.547L24.297 24.414L27.0119 23.0858C27.2461 22.9687 27.5391 23.0663 27.6562 23.3009C27.6562 23.3204 27.6756 23.3398 27.6756 23.3593L28.5744 25.9571H31.2695L32.1678 23.3593C32.2655 23.1056 32.539 22.9687 32.7931 23.0663C32.8125 23.0663 32.832 23.0858 32.8514 23.0858L35.5663 24.414L40.0978 25.547C41.2891 25.84 42.1486 26.8944 42.2264 28.125L42.9493 41.0545C43.0077 42.168 42.1681 43.1053 41.0545 43.164C40.9962 43.164 40.9767 43.164 40.9374 43.164ZM27.0313 42.1875H40.9374C41.5039 42.1875 41.9727 41.7187 41.9727 41.1522C41.9727 41.1327 41.9727 41.1133 41.9727 41.0938L41.2499 28.1639C41.2109 27.3632 40.6445 26.6796 39.8632 26.4843L35.2928 25.3319C35.2539 25.3319 35.2345 25.3124 35.1952 25.293L32.9296 24.1798L32.1877 26.3283C32.0702 26.6796 31.7383 26.9142 31.3671 26.9142H28.5351C28.1639 26.9142 27.832 26.6796 27.7149 26.3283L26.9726 24.1798L24.707 25.293C24.6681 25.3124 24.6483 25.3124 24.6094 25.3319L20.039 26.4843C19.2577 26.6796 18.6913 27.3632 18.6524 28.1639L18.5547 29.9415C24.0624 30.664 27.9492 35.7227 27.2266 41.2304C27.1484 41.5626 27.0897 41.8751 27.0313 42.1875Z" fill="#231F20"/>
</g>
<defs>
<clipPath id="clip0">
<rect width="50" height="50" fill="white"/>
</clipPath>
</defs>
</svg>
