<svg width="50" height="50" viewBox="0 0 50 50" fill="none" xmlns="http://www.w3.org/2000/svg">
<g clip-path="url(#clip0)">
<path d="M35.5673 49.5749H10.3413C9.40141 49.5749 8.64014 48.8136 8.64014 47.8737V2.12644C8.64014 1.18657 9.40141 0.425293 10.3413 0.425293H35.5665C36.5063 0.425293 37.2676 1.18657 37.2676 2.12644V47.8729C37.2684 48.8128 36.5063 49.5749 35.5673 49.5749Z" fill="#82D9FF"/>
<path d="M10.3413 3.04844C10.3413 2.57913 10.7221 2.19787 11.1919 2.19787H37.2676V2.12644C37.2676 1.18657 36.5063 0.425293 35.5665 0.425293H10.3413C9.40141 0.425293 8.64014 1.18657 8.64014 2.12644V47.8729C8.64014 48.8128 9.40141 49.574 10.3413 49.574V3.04844Z" fill="#82D9FF"/>
<path d="M37.2729 2.12815V6.43209H8.64258V2.12815C8.64258 1.18413 9.3997 0.427002 10.3437 0.427002H35.5718C36.5071 0.427002 37.2729 1.18413 37.2729 2.12815Z" fill="#F9DD9D"/>
<path d="M41.9748 5.33074H41.4303V4.78561C41.4303 4.36168 41.0974 4.02881 40.6735 4.02881C40.2495 4.02881 39.9167 4.36168 39.9167 4.78561V5.33074H39.3715C38.9476 5.33074 38.6147 5.66361 38.6147 6.08753C38.6147 6.51087 38.9476 6.84433 39.3715 6.84433H39.9167V7.38887C39.9167 7.81279 40.2495 8.14567 40.6735 8.14567C41.0974 8.14567 41.4303 7.81279 41.4303 7.38887V6.84433H41.9748C42.3987 6.84433 42.7316 6.51087 42.7316 6.08753C42.7316 5.66361 42.3987 5.33074 41.9748 5.33074Z" fill="#6DCC6D"/>
<path d="M46.0003 12.2022C46.0003 12.1419 45.9702 12.1112 45.9702 12.0509C45.94 12.0207 45.94 11.9598 45.9093 11.9297C45.8791 11.8995 45.849 11.8392 45.8188 11.8085C45.5161 11.5365 45.062 11.5365 44.7593 11.8085C44.7291 11.8392 44.6984 11.8694 44.6682 11.9297C44.6079 12.0207 44.5778 12.1112 44.547 12.2022C44.5169 12.2933 44.5169 12.4139 44.547 12.505C44.547 12.5653 44.5778 12.596 44.5778 12.6563C44.6079 12.7166 44.6079 12.7474 44.6381 12.7775C44.6682 12.8077 44.6984 12.868 44.7291 12.8987C45.0319 13.2015 45.4859 13.2015 45.7886 12.8987C45.8188 12.868 45.849 12.8378 45.8791 12.7775C45.9093 12.7474 45.94 12.6865 45.94 12.6563C45.9702 12.6262 45.9702 12.5653 45.9702 12.505C46.0003 12.3838 46.0003 12.2933 46.0003 12.2022Z" fill="#55ACD5"/>
<path d="M4.4759 19.5978C4.4759 19.5374 4.44575 19.5067 4.44575 19.4464C4.4156 19.4162 4.4156 19.3553 4.38485 19.3252C4.3547 19.295 4.32454 19.2347 4.29439 19.204C3.99167 18.932 3.53759 18.932 3.23487 19.204C3.20472 19.2347 3.17397 19.2649 3.14382 19.3252C3.08351 19.4162 3.05336 19.5067 3.02262 19.5978C2.99246 19.6888 2.99246 19.8094 3.02262 19.9005C3.02262 19.9608 3.05336 19.9915 3.05336 20.0518C3.08351 20.1121 3.08351 20.1429 3.11367 20.173C3.14382 20.2032 3.17397 20.2635 3.20472 20.2942C3.50744 20.597 3.96152 20.597 4.26424 20.2942C4.29439 20.2635 4.32454 20.2333 4.3547 20.173C4.38485 20.1429 4.4156 20.082 4.4156 20.0518C4.44575 20.0217 4.44575 19.9608 4.44575 19.9005C4.4759 19.7793 4.4759 19.6888 4.4759 19.5978Z" fill="#6DCC6D"/>
<path d="M45.3944 43.9876C45.3944 43.9273 45.3642 43.8966 45.3642 43.8363C45.3341 43.8061 45.3341 43.7452 45.3033 43.7151C45.2732 43.6849 45.243 43.6246 45.2128 43.5939C44.9101 43.3219 44.456 43.3219 44.1533 43.5939C44.1232 43.6246 44.0924 43.6548 44.0623 43.7151C44.002 43.8061 43.9718 43.8966 43.9411 43.9876C43.9109 44.0787 43.9109 44.1993 43.9411 44.2904C43.9411 44.3507 43.9718 44.3814 43.9718 44.4417C44.002 44.502 44.002 44.5328 44.0321 44.5629C44.0623 44.5931 44.0924 44.6534 44.1232 44.6841C44.4259 44.9869 44.88 44.9869 45.1827 44.6841C45.2128 44.6534 45.243 44.6232 45.2732 44.5629C45.3033 44.5328 45.3341 44.4719 45.3341 44.4417C45.3642 44.4116 45.3642 44.3507 45.3642 44.2904C45.3944 44.1692 45.3944 44.0787 45.3944 43.9876Z" fill="#FFCD29"/>
<path d="M7.49587 46.1369C6.49666 45.9554 5.70971 45.1684 5.49745 44.139C5.49745 44.1089 5.4673 44.1089 5.43714 44.1089C5.40699 44.1089 5.40699 44.139 5.40699 44.139C5.22548 45.1382 4.43793 45.9252 3.40916 46.1369C3.37842 46.1369 3.37842 46.167 3.37842 46.1978C3.37842 46.2279 3.40916 46.2279 3.40916 46.2279C4.40778 46.4094 5.19473 47.1964 5.40699 48.2257C5.40699 48.2559 5.43714 48.2559 5.4673 48.2559C5.49745 48.2559 5.49745 48.2257 5.49745 48.2257C5.67955 47.2265 6.46651 46.4396 7.49587 46.2279C7.52602 46.2279 7.52602 46.1978 7.52602 46.167C7.52602 46.1369 7.52602 46.1369 7.49587 46.1369Z" fill="#FFCD29"/>
<path d="M37.2729 42.0115V47.872C37.2729 48.816 36.5071 49.5732 35.5718 49.5732H10.3437C9.3997 49.5732 8.64258 48.816 8.64258 47.872V42.0115H37.2729Z" fill="#F9DD9D"/>
<path d="M37.2729 2.12815V2.19626H11.1943C10.7266 2.19626 10.3437 2.57918 10.3437 3.04683V6.43209H8.64258V2.12815C8.64258 1.18413 9.3997 0.427002 10.3437 0.427002H35.5718C36.5071 0.427002 37.2729 1.18413 37.2729 2.12815Z" fill="#F9DD9D"/>
<path d="M35.5678 50.0001H10.3418C9.16973 50.0001 8.21533 49.0466 8.21533 47.8737V2.12643C8.21533 0.95357 9.16973 0 10.3418 0H35.5669C36.739 0 37.6934 0.95357 37.6934 2.12643V47.8729C37.6942 49.0466 36.7402 50.0001 35.5678 50.0001ZM10.3418 0.850571C9.63821 0.850571 9.0659 1.42288 9.0659 2.12643V47.8729C9.0659 48.576 9.63821 49.1487 10.3418 49.1487H35.5669C36.2705 49.1487 36.8428 48.576 36.8428 47.8729V2.12643C36.8428 1.42288 36.2705 0.850571 35.5669 0.850571H10.3418Z" fill="black"/>
<path d="M8.64014 41.5863H37.2676V42.4369H8.64014V41.5863Z" fill="black"/>
<path d="M8.64014 6.00684H37.2676V6.85741H8.64014V6.00684Z" fill="black"/>
<path d="M21.561 44.4303H24.3545V47.2237H21.561V44.4303Z" fill="#F8F3F3"/>
<path d="M24.3549 47.6482H21.5615C21.3269 47.6482 21.1362 47.4576 21.1362 47.2229V44.4303C21.1362 44.1956 21.3269 44.005 21.5615 44.005H24.3549C24.5896 44.005 24.7802 44.1956 24.7802 44.4303V47.2229C24.7802 47.4576 24.5896 47.6482 24.3549 47.6482ZM21.9868 46.7976H23.9297V44.8556H21.9868V46.7976Z" fill="black"/>
<path d="M30.5923 18.4805C30.5923 23.3804 22.9617 32.8372 22.9617 32.8372C22.9617 32.8372 15.3311 23.4078 15.3311 18.4805C15.3311 14.2658 18.747 10.8499 22.9617 10.8499C27.1763 10.8499 30.5923 14.2658 30.5923 18.4805Z" fill="#F9A287"/>
<path d="M22.962 33.2625C22.8337 33.2625 22.712 33.2048 22.631 33.1043C22.3158 32.7147 14.9053 23.5004 14.9053 18.4805C14.9053 14.0387 18.5194 10.4246 22.9612 10.4246C27.403 10.4246 31.0171 14.0387 31.0171 18.4805C31.0171 23.4734 23.6074 32.713 23.2922 33.1043C23.2129 33.2048 23.0912 33.2625 22.962 33.2625ZM22.962 11.2751C18.9891 11.2751 15.7567 14.5076 15.7567 18.4805C15.7567 22.6262 21.5068 30.2788 22.962 32.149C24.4165 30.2755 30.1674 22.6004 30.1674 18.4805C30.1674 14.5076 26.935 11.2751 22.962 11.2751Z" fill="black"/>
<path d="M26.9567 18.7969C26.9567 21.003 25.1683 22.7918 22.9617 22.7918C20.7552 22.7918 18.9668 21.003 18.9668 18.7969C18.9668 16.5903 20.7552 14.8015 22.9617 14.8015C25.1683 14.8015 26.9567 16.5903 26.9567 18.7969Z" fill="#F8F3F3"/>
<path d="M22.9622 23.2171C20.5243 23.2171 18.542 21.2344 18.542 18.7969C18.542 16.3589 20.5251 14.3762 22.9622 14.3762C25.3993 14.3762 27.3825 16.3589 27.3825 18.7969C27.3825 21.2344 25.4001 23.2171 22.9622 23.2171ZM22.9622 15.2268C20.994 15.2268 19.3926 16.8287 19.3926 18.7969C19.3926 20.7651 20.994 22.3665 22.9622 22.3665C24.9304 22.3665 26.5319 20.7651 26.5319 18.7969C26.5319 16.8287 24.9304 15.2268 22.9622 15.2268Z" fill="#63312D"/>
<path d="M27.1191 35.3133H18.8036C18.12 35.3133 17.5664 34.7589 17.5664 34.0757C17.5664 33.3916 18.1209 32.838 18.8036 32.838H27.1199C27.8036 32.838 28.3576 33.3925 28.3576 34.0757C28.3576 34.7589 27.8027 35.3133 27.1191 35.3133Z" fill="#F8F3F3"/>
<path d="M27.1204 35.7386H18.8041C17.8875 35.7386 17.1416 34.9927 17.1416 34.0756C17.1416 33.1586 17.8875 32.4119 18.8041 32.4119H27.1204C28.037 32.4119 28.7842 33.1586 28.7842 34.0756C28.7842 34.9927 28.037 35.7386 27.1204 35.7386ZM18.8041 33.2624C18.356 33.2624 17.9922 33.6275 17.9922 34.0756C17.9922 34.5229 18.356 34.888 18.8041 34.888H27.1204C27.5686 34.888 27.9336 34.5229 27.9336 34.0756C27.9336 33.6275 27.5686 33.2624 27.1204 33.2624H18.8041Z" fill="black"/>
</g>
<defs>
<clipPath id="clip0">
<rect width="50" height="50" fill="white"/>
</clipPath>
</defs>
</svg>
