<svg width="50" height="50" viewBox="0 0 50 50" fill="none" xmlns="http://www.w3.org/2000/svg">
<path d="M20.428 11.0831H23.7613C25.464 11.0831 26.8446 12.4637 26.8446 14.1664V28.9162H17.3447V14.1664C17.3447 12.4637 18.7253 11.0831 20.428 11.0831Z" fill="#3E8CC7" stroke="black" stroke-width="0.5"/>
<path d="M32.9247 4.84H32.5734V4.48828C32.5734 4.21477 32.3586 4 32.0851 4C31.8116 4 31.5968 4.21477 31.5968 4.48828V4.84H31.2451C30.9716 4.84 30.7568 5.05476 30.7568 5.32828C30.7568 5.60141 30.9716 5.81656 31.2451 5.81656H31.5968V6.16789C31.5968 6.44141 31.8116 6.65617 32.0851 6.65617C32.3586 6.65617 32.5734 6.44141 32.5734 6.16789V5.81656H32.9247C33.1982 5.81656 33.413 5.60141 33.413 5.32828C33.413 5.05476 33.1982 4.84 32.9247 4.84Z" fill="#6DCC6D"/>
<path d="M35.5216 9.27336C35.5216 9.23445 35.5021 9.21462 35.5021 9.17571C35.4827 9.15625 35.4827 9.11696 35.4628 9.0975C35.4434 9.07805 35.4239 9.03914 35.4045 9.0193C35.2092 8.84383 34.9162 8.84383 34.7209 9.0193C34.7014 9.03914 34.6816 9.05859 34.6621 9.0975C34.6232 9.15625 34.6038 9.21462 34.5839 9.27336C34.5645 9.33211 34.5645 9.40993 34.5839 9.46867C34.5839 9.50758 34.6038 9.52742 34.6038 9.56633C34.6232 9.60524 34.6232 9.62508 34.6427 9.64453C34.6621 9.66399 34.6816 9.7029 34.7014 9.72273C34.8967 9.91805 35.1897 9.91805 35.385 9.72273C35.4045 9.7029 35.4239 9.68344 35.4434 9.64453C35.4628 9.62508 35.4827 9.58579 35.4827 9.56633C35.5021 9.54688 35.5021 9.50758 35.5021 9.46867C35.5216 9.39047 35.5216 9.33211 35.5216 9.27336Z" fill="#55ACD5"/>
<path d="M5.63877 36.0312C5.63877 35.9923 5.61931 35.9724 5.61931 35.9335C5.59986 35.9141 5.59986 35.8748 5.58002 35.8553C5.56057 35.8359 5.54111 35.797 5.52166 35.7771C5.32634 35.6016 5.03337 35.6016 4.83806 35.7771C4.81861 35.797 4.79877 35.8164 4.77932 35.8553C4.74041 35.9141 4.72095 35.9724 4.70111 36.0312C4.68166 36.0899 4.68166 36.1677 4.70111 36.2265C4.70111 36.2654 4.72095 36.2852 4.72095 36.3241C4.74041 36.3631 4.74041 36.3829 4.75986 36.4023C4.77932 36.4218 4.79877 36.4607 4.81861 36.4805C5.01392 36.6759 5.30689 36.6759 5.5022 36.4805C5.52166 36.4607 5.54111 36.4413 5.56057 36.4023C5.58002 36.3829 5.59986 36.3436 5.59986 36.3241C5.61931 36.3047 5.61931 36.2654 5.61931 36.2265C5.63877 36.1483 5.63877 36.0899 5.63877 36.0312Z" fill="#EA4647"/>
<path d="M35.131 29.7812C35.131 29.7423 35.1115 29.7224 35.1115 29.6835C35.092 29.6641 35.092 29.6248 35.0722 29.6053C35.0528 29.5859 35.0333 29.547 35.0138 29.5271C34.8185 29.3516 34.5256 29.3516 34.3302 29.5271C34.3108 29.547 34.291 29.5664 34.2715 29.6053C34.2326 29.6641 34.2131 29.7224 34.1933 29.7812C34.1738 29.8399 34.1738 29.9177 34.1933 29.9765C34.1933 30.0154 34.2131 30.0352 34.2131 30.0741C34.2326 30.1131 34.2326 30.1329 34.252 30.1523C34.2715 30.1718 34.291 30.2107 34.3108 30.2305C34.5061 30.4259 34.7991 30.4259 34.9944 30.2305C35.0138 30.2107 35.0333 30.1913 35.0528 30.1523C35.0722 30.1329 35.092 30.0936 35.092 30.0741C35.1115 30.0547 35.1115 30.0154 35.1115 29.9765C35.131 29.8983 35.131 29.8399 35.131 29.7812Z" fill="#FFCD29"/>
<path d="M10.679 31.1678C10.0343 31.0507 9.5266 30.543 9.38965 29.8788C9.38965 29.8594 9.37019 29.8594 9.35074 29.8594C9.33128 29.8594 9.33128 29.8788 9.33128 29.8788C9.21417 30.5235 8.70605 31.0312 8.0423 31.1678C8.02246 31.1678 8.02246 31.1873 8.02246 31.2071C8.02246 31.2266 8.0423 31.2266 8.0423 31.2266C8.6866 31.3437 9.19434 31.8514 9.33128 32.5155C9.33128 32.535 9.35074 32.535 9.37019 32.535C9.38965 32.535 9.38965 32.5155 9.38965 32.5155C9.50714 31.8709 10.0149 31.3631 10.679 31.2266C10.6985 31.2266 10.6985 31.2071 10.6985 31.1873C10.6985 31.1678 10.6985 31.1678 10.679 31.1678Z" fill="#FFCD29"/>
<path d="M26.2618 2.5L19.7002 3.33331C19.6302 3.60577 19.5952 3.88585 19.5952 4.16661V7.49993C19.5952 9.34076 21.0877 10.8333 22.9285 10.8333C24.7694 10.8333 26.2619 9.34076 26.2619 7.49993V4.16661C26.296 3.61163 26.296 3.05498 26.2618 2.5Z" fill="#FEC9A3"/>
<path d="M19.5942 3.33339V6.66671L22.9276 3.33339H25.4276C26.8083 3.33339 27.9276 2.21424 27.9276 0.833374H22.0944C20.7134 0.833374 19.5942 1.95252 19.5942 3.33339Z" fill="#75462E"/>
<path d="M26.94 29.4164L34.2591 44.0547L31.3623 45.503L24.4317 33.1815C24.4317 33.1815 24.4317 33.1815 24.4317 33.1814C24.1082 32.606 23.4991 32.2498 22.8388 32.2498C21.829 32.2498 21.0113 33.0685 21.0113 34.0773V37.7772C21.0113 39.0221 20.2628 40.1452 19.1135 40.6239L19.1135 40.6239L11.3806 43.8458L9.93533 40.9552L17.1962 37.7281L17.3447 37.6621V37.4996V29.4164H26.94Z" fill="#75462E" stroke="black" stroke-width="0.5"/>
<path d="M9.35732 48.1328L9.35745 48.133C9.59668 48.6129 10.0874 48.9162 10.6244 48.9163C10.6245 48.9163 10.6245 48.9163 10.6245 48.9163H11.0645C11.6006 48.9163 12.0914 48.6132 12.3316 48.1329L9.35732 48.1328ZM9.35732 48.1328L6.59664 42.6114M9.35732 48.1328L6.59664 42.6114M6.59664 42.6114L9.48274 41.1684L12.3316 46.8663C12.5307 47.2651 12.5307 47.734 12.3317 48.1328L6.59664 42.6114Z" fill="#3E8CC7" stroke="black" stroke-width="0.5"/>
<path d="M37.8164 46.4427L33.0401 48.8309L31.5971 45.9448L36.3734 43.5566C36.3734 43.5566 36.3734 43.5566 36.3734 43.5565C37.1709 43.1582 38.1397 43.4809 38.538 44.2779C38.9362 45.0753 38.6129 46.0443 37.8164 46.4426C37.8164 46.4427 37.8164 46.4427 37.8164 46.4427Z" fill="#3E8CC7" stroke="black" stroke-width="0.5"/>
<path d="M27.3442 15.6904L31.0688 20.1599L31.2441 20.3702L31.4376 20.1766L35.5892 16.025L35.5893 16.0249C35.6506 15.9636 35.7147 15.9075 35.7825 15.8571L35.7833 15.8565C36.5836 15.2561 37.7202 15.4186 38.3207 16.2189L27.3442 15.6904ZM27.3442 15.6904V21.5908L27.6664 22.0736C28.9348 23.9746 31.5038 24.4885 33.4055 23.2202C33.6329 23.0683 33.8441 22.8955 34.0362 22.7026L34.0365 22.7023L38.1522 18.5866C38.7894 17.9486 38.8611 16.9403 38.3208 16.219L27.3442 15.6904Z" fill="#FEC9A3" stroke="black" stroke-width="0.5"/>
<path d="M17.7969 17.3772L17.475 17.5734L17.7811 17.7936L23.4477 21.8694L23.4476 21.8695L23.4547 21.8743C24.2966 22.4374 24.5224 23.5755 23.9593 24.4174L23.9591 24.4176C23.9421 24.4432 23.9239 24.4687 23.9044 24.495C23.3213 25.2703 22.2361 25.4569 21.4277 24.9219L14.4551 19.9784L14.4552 19.9783L14.4495 19.9745C13.654 19.4426 13.1764 18.5482 13.1772 17.591V17.5907C13.1772 16.6348 13.6542 15.7415 14.4493 15.2101L20.5883 11.3947L20.5883 11.3948L20.5947 11.3906C21.4034 10.8532 22.4906 11.0393 23.0744 11.8154C23.6791 12.6272 23.5118 13.7754 22.7 14.3812L22.8496 14.5815L22.7005 14.3808C22.6768 14.3984 22.6518 14.4159 22.6258 14.4333L17.7969 17.3772Z" fill="#FEC9A3" stroke="black" stroke-width="0.5"/>
</svg>
