<svg width="50" height="50" viewBox="0 0 50 50" fill="none" xmlns="http://www.w3.org/2000/svg">
<path d="M43.569 37.0899H42.9247C42.7294 37.0899 42.5536 36.9529 42.4948 36.7775C42.3582 36.3281 42.1824 35.918 41.9676 35.5079C41.87 35.3321 41.9089 35.1173 42.0458 34.9804L42.5146 34.5115C43.0224 34.0038 43.0224 33.1642 42.5146 32.6561L41.284 31.4258C40.7763 30.9181 39.9363 30.9181 39.4286 31.4258L38.9597 31.8947C38.8232 32.0312 38.6084 32.0701 38.4325 31.9725C38.0225 31.7577 37.5925 31.5818 37.163 31.4453C36.9677 31.3865 36.8506 31.2111 36.8506 31.0157V30.3711C36.8506 29.6486 36.2646 29.0626 35.5418 29.0626H33.784C33.0614 29.0626 32.4755 29.6486 32.4755 30.3711V31.0157C32.4755 31.2111 32.3386 31.3865 32.1631 31.4453C31.7137 31.5818 31.3036 31.7577 30.8936 31.9725C30.7177 32.0701 30.5029 32.0312 30.366 31.8947L29.8972 31.4453C29.3894 30.9375 28.5498 30.9375 28.0417 31.4453L26.8114 32.6759C26.3037 33.1836 26.3037 34.0233 26.8114 34.5314L27.2803 34.9998C27.4168 35.1368 27.4557 35.3515 27.3581 35.5274C27.1433 35.9375 26.9675 36.367 26.8309 36.7969C26.7722 36.9922 26.5967 37.1093 26.4014 37.1093H25.7567C25.0342 37.1093 24.4482 37.6953 24.4482 38.4178V40.1756C24.4482 40.8985 25.0342 41.4844 25.7567 41.4844H26.4014C26.5967 41.4844 26.7722 41.621 26.8309 41.7968C26.9675 42.2462 27.1433 42.6563 27.3581 43.0664C27.4557 43.2422 27.4168 43.457 27.2803 43.5936L26.8114 44.0624C26.3037 44.5701 26.3037 45.4101 26.8114 45.9179L28.0417 47.1485C28.5498 47.6562 29.3894 47.6562 29.8972 47.1485L30.366 46.6797C30.5029 46.5431 30.7177 46.5038 30.8936 46.6015C31.3036 46.8162 31.7332 46.9921 32.1631 47.129C32.3584 47.1874 32.4755 47.3633 32.4755 47.5586V48.2032C32.4755 48.9258 33.0614 49.5117 33.784 49.5117H35.5418C36.2646 49.5117 36.8506 48.9258 36.8506 48.2032V47.5586C36.8506 47.3633 36.9872 47.1874 37.163 47.129C37.612 46.9921 38.0225 46.8162 38.4325 46.6015C38.6084 46.5038 38.8232 46.5431 38.9597 46.6797L39.4286 47.1485C39.9363 47.6562 40.7763 47.6562 41.284 47.1485L42.5146 45.9179C43.0224 45.4101 43.0224 44.5701 42.5146 44.0624L42.0458 43.5936C41.9089 43.457 41.87 43.2422 41.9676 43.0664C42.1824 42.6563 42.3582 42.2264 42.4948 41.7968C42.5536 41.6015 42.7294 41.4844 42.9247 41.4844H43.569C44.2919 41.4844 44.8779 40.8985 44.8779 40.1756V38.4178C44.8779 37.6758 44.2919 37.0899 43.569 37.0899Z" fill="#FFCD29"/>
<path d="M34.624 33.3202C31.3426 33.3202 28.667 35.9764 28.667 39.2772C28.667 42.5781 31.3232 45.2343 34.624 45.2343C37.9249 45.2343 40.5811 42.5781 40.5811 39.2772C40.5811 35.9764 37.9249 33.3202 34.624 33.3202Z" fill="#88E288"/>
<path d="M34.6241 43.3399C32.378 43.3399 30.542 41.5233 30.542 39.2578C30.542 36.9922 32.3586 35.1757 34.6241 35.1757C36.8702 35.1757 38.7062 36.9922 38.7062 39.2578C38.7062 41.5233 36.8896 43.3399 34.6241 43.3399Z" fill="#6DCC6D"/>
<path d="M29.9955 24.453C29.2925 24.453 28.7065 23.8869 28.7065 23.164V14.7267C28.6871 14.0236 29.2536 13.4377 29.9566 13.4178C30.6597 13.3984 31.2456 13.9649 31.2651 14.6679V14.7072V23.1446C31.2849 23.8869 30.699 24.453 29.9955 24.453Z" fill="#FA7682"/>
<path d="M13.0615 24.453C13.7646 24.453 14.3505 23.8869 14.3505 23.164V14.7267C14.37 14.0236 13.8039 13.4377 13.1004 13.4178C12.3974 13.3984 11.8114 13.9649 11.792 14.6679V14.7072V23.1446C11.792 23.8869 12.3585 24.453 13.0615 24.453Z" fill="#FA7682"/>
<path d="M11.7925 14.629C11.7925 14.6679 11.773 14.6874 11.773 14.7267V23.164C11.773 23.2033 11.773 23.2228 11.7925 23.2617C9.40982 22.8905 7.76912 20.6643 8.14029 18.2812C8.43326 16.4063 9.91756 14.922 11.7925 14.629Z" fill="#EA4647"/>
<path d="M31.2646 14.629C31.2646 14.6679 31.2845 14.6874 31.2845 14.7267V23.164C31.2845 23.2033 31.2845 23.2228 31.2646 23.2617C33.6477 22.8905 35.2884 20.6643 34.9172 18.2812C34.6242 16.4063 33.1594 14.922 31.2646 14.629Z" fill="#EA4647"/>
<path d="M32.1435 14.8632L32.1633 13.1248C32.1633 7.24597 27.3976 2.46082 21.4989 2.46082C15.6201 2.46082 10.835 7.22652 10.835 13.1248V14.9025C11.0303 9.60918 15.3859 5.42979 20.6788 5.42979H22.2802C27.5929 5.42979 31.9287 9.58972 32.1435 14.8632Z" fill="#E9E9EA"/>
<path d="M32.1436 14.8632C31.9288 9.5898 27.5735 5.41003 22.3001 5.41003H20.6983C15.4054 5.41003 11.0498 9.5898 10.8545 14.8827C11.1673 14.7656 11.4797 14.6679 11.8116 14.629C11.8116 14.6679 11.7921 14.6874 11.7921 14.7267C11.8116 14.0236 12.3781 13.4571 13.1006 13.4766C13.7842 13.496 14.3507 14.0431 14.3507 14.7267V15.8985V15.7814C14.3507 15.5663 14.5265 15.4103 14.7413 15.4103H14.8195C16.1279 15.6838 19.9953 16.1522 22.6125 12.8712C22.7491 12.6953 22.9837 12.6759 23.1592 12.8125C23.179 12.8125 23.179 12.8319 23.1985 12.8319C23.8039 13.4178 25.3664 14.6096 28.3548 14.7072C28.5501 14.7072 28.7256 14.8827 28.7256 15.078V15.0978V14.7267C28.7454 14.0236 29.3115 13.4571 30.0344 13.4766C30.718 13.496 31.2845 14.0431 31.2845 14.7267C31.2845 14.6874 31.2845 14.6679 31.2646 14.629C31.5576 14.6874 31.8704 14.7656 32.1436 14.8632Z" fill="#6D6C6B"/>
<path d="M23.3347 28.5156C23.374 28.6327 23.3935 28.7697 23.3935 28.8868C23.3935 29.5898 22.827 30.1758 22.1045 30.1758H21.1863C20.4832 30.1758 19.9168 29.6287 19.8973 28.9257C19.8973 28.8086 19.9168 28.6915 19.9362 28.5743C19.3701 28.4374 18.8036 28.2421 18.2959 27.9884V30.664L19.4285 33.9061C19.4872 34.1015 19.6825 34.2186 19.8779 34.2186H23.3347C23.53 34.2186 23.7059 34.082 23.7841 33.9061L24.9167 30.664V27.8907C24.4284 28.1639 23.9012 28.379 23.3347 28.5156Z" fill="#F9D0B4"/>
<path d="M28.7061 15.078C28.7061 14.8826 28.5303 14.7072 28.335 14.7072C25.3469 14.6095 23.7844 13.4376 23.179 12.8319C23.0226 12.6758 22.7884 12.6758 22.632 12.8319C22.6125 12.8517 22.6125 12.8517 22.6125 12.8712C19.9953 16.172 16.1085 15.7032 14.8195 15.4102C14.6047 15.3709 14.4094 15.4884 14.3701 15.7032V15.7814V21.5626C14.3701 24.9218 16.7139 27.8515 19.9953 28.5744C20.1318 28.0079 20.64 27.6172 21.2259 27.6172H22.1437C22.7102 27.6172 23.1985 27.9884 23.3545 28.5156C26.4993 27.6756 28.7061 24.8436 28.7256 21.582L28.7454 15.1756C28.7256 15.1562 28.7256 15.1172 28.7061 15.078Z" fill="#F9D0B4"/>
<path d="M19.9365 28.9062C19.9365 29.6093 20.503 30.1952 21.2259 30.1952H22.1437C22.8468 30.1758 23.4132 29.6093 23.3938 28.8868C23.3743 28.2032 22.8273 27.6367 22.1437 27.6367H21.2259C20.503 27.6172 19.9365 28.2032 19.9365 28.9062Z" fill="#F9D0B4"/>
<path d="M32.4565 48.2033V47.5586C32.4565 47.3633 32.3196 47.1874 32.1437 47.1291C31.6947 46.9921 31.2847 46.8163 30.8742 46.6015C30.6987 46.5038 30.4836 46.5431 30.347 46.6797L29.8782 47.1485C29.3704 47.6562 28.5304 47.6562 28.0227 47.1485L26.7925 45.9179C26.2844 45.4102 26.2844 44.5702 26.7925 44.0624L27.2609 43.5936C27.3979 43.457 27.4368 43.2423 27.3391 43.0664C27.1243 42.6563 26.9485 42.2264 26.8119 41.7969C26.7532 41.6016 26.5773 41.4845 26.382 41.4845H25.7377C25.0148 41.4845 24.4289 40.8985 24.4289 40.1756V38.4178C24.4289 37.6953 25.0148 37.1094 25.7377 37.1094H26.382C26.5773 37.1094 26.7532 36.9728 26.8119 36.797C26.9485 36.3476 27.1243 35.9375 27.3391 35.5274C27.4368 35.3516 27.3979 35.1368 27.2609 34.9998L26.7925 34.5314C26.2844 34.0233 26.2844 33.1837 26.7925 32.6759L27.515 31.953L24.9565 30.6835L23.8235 33.9256C23.7651 34.1209 23.5698 34.2384 23.3745 34.2384H19.8978C19.7025 34.2384 19.5266 34.1015 19.4484 33.9256L18.3158 30.6641L14.9562 32.3242L9.37037 33.7303C8.15958 34.0233 7.30013 35.078 7.24138 36.3281L6.59708 48.0469C6.55779 48.8087 7.14373 49.453 7.88607 49.4923H7.96427H33.472C32.8861 49.3553 32.4565 48.8281 32.4565 48.2033Z" fill="#E9E9EA"/>
<path d="M32.9247 0.839996H32.5734V0.488281C32.5734 0.214767 32.3586 0 32.0851 0C31.8116 0 31.5968 0.214767 31.5968 0.488281V0.839996H31.2451C30.9716 0.839996 30.7568 1.05476 30.7568 1.32828C30.7568 1.60141 30.9716 1.81656 31.2451 1.81656H31.5968V2.16789C31.5968 2.44141 31.8116 2.65617 32.0851 2.65617C32.3586 2.65617 32.5734 2.44141 32.5734 2.16789V1.81656H32.9247C33.1982 1.81656 33.413 1.60141 33.413 1.32828C33.413 1.05476 33.1982 0.839996 32.9247 0.839996Z" fill="#6DCC6D"/>
<path d="M35.5216 5.27348C35.5216 5.23457 35.5021 5.21474 35.5021 5.17583C35.4827 5.15637 35.4827 5.11708 35.4628 5.09763C35.4434 5.07817 35.4239 5.03926 35.4045 5.01942C35.2092 4.84395 34.9162 4.84395 34.7209 5.01942C34.7014 5.03926 34.6816 5.05872 34.6621 5.09763C34.6232 5.15637 34.6038 5.21474 34.5839 5.27348C34.5645 5.33223 34.5645 5.41005 34.5839 5.4688C34.5839 5.50771 34.6038 5.52754 34.6038 5.56645C34.6232 5.60536 34.6232 5.6252 34.6427 5.64465C34.6621 5.66411 34.6816 5.70302 34.7014 5.72286C34.8967 5.91817 35.1897 5.91817 35.385 5.72286C35.4045 5.70302 35.4239 5.68356 35.4434 5.64465C35.4628 5.6252 35.4827 5.58591 35.4827 5.56645C35.5021 5.547 35.5021 5.50771 35.5021 5.4688C35.5216 5.3906 35.5216 5.33223 35.5216 5.27348Z" fill="#55ACD5"/>
<path d="M5.63877 32.0313C5.63877 31.9924 5.61931 31.9725 5.61931 31.9336C5.59986 31.9142 5.59986 31.8749 5.58002 31.8554C5.56057 31.836 5.54111 31.7971 5.52166 31.7772C5.32634 31.6018 5.03337 31.6018 4.83806 31.7772C4.81861 31.7971 4.79877 31.8165 4.77932 31.8554C4.74041 31.9142 4.72095 31.9725 4.70111 32.0313C4.68166 32.09 4.68166 32.1679 4.70111 32.2266C4.70111 32.2655 4.72095 32.2854 4.72095 32.3243C4.74041 32.3632 4.74041 32.383 4.75986 32.4025C4.77932 32.4219 4.79877 32.4608 4.81861 32.4807C5.01392 32.676 5.30689 32.676 5.5022 32.4807C5.52166 32.4608 5.54111 32.4414 5.56057 32.4025C5.58002 32.383 5.59986 32.3437 5.59986 32.3243C5.61931 32.3048 5.61931 32.2655 5.61931 32.2266C5.63877 32.1484 5.63877 32.09 5.63877 32.0313Z" fill="#EA4647"/>
<path d="M35.131 25.7813C35.131 25.7424 35.1115 25.7225 35.1115 25.6836C35.092 25.6642 35.092 25.6249 35.0722 25.6054C35.0528 25.586 35.0333 25.5471 35.0138 25.5272C34.8185 25.3518 34.5256 25.3518 34.3302 25.5272C34.3108 25.5471 34.291 25.5665 34.2715 25.6054C34.2326 25.6642 34.2131 25.7225 34.1933 25.7813C34.1738 25.84 34.1738 25.9179 34.1933 25.9766C34.1933 26.0155 34.2131 26.0354 34.2131 26.0743C34.2326 26.1132 34.2326 26.133 34.252 26.1525C34.2715 26.1719 34.291 26.2108 34.3108 26.2307C34.5061 26.426 34.7991 26.426 34.9944 26.2307C35.0138 26.2108 35.0333 26.1914 35.0528 26.1525C35.0722 26.133 35.092 26.0937 35.092 26.0743C35.1115 26.0548 35.1115 26.0155 35.1115 25.9766C35.131 25.8984 35.131 25.84 35.131 25.7813Z" fill="#FFCD29"/>
<path d="M10.679 27.1679C10.0343 27.0508 9.5266 26.5431 9.38965 25.879C9.38965 25.8595 9.37019 25.8595 9.35074 25.8595C9.33128 25.8595 9.33128 25.879 9.33128 25.879C9.21417 26.5236 8.70605 27.0314 8.0423 27.1679C8.02246 27.1679 8.02246 27.1874 8.02246 27.2072C8.02246 27.2267 8.0423 27.2267 8.0423 27.2267C8.6866 27.3438 9.19434 27.8515 9.33128 28.5157C9.33128 28.5351 9.35074 28.5351 9.37019 28.5351C9.38965 28.5351 9.38965 28.5157 9.38965 28.5157C9.50714 27.871 10.0149 27.3633 10.679 27.2267C10.6985 27.2267 10.6985 27.2072 10.6985 27.1874C10.6985 27.1679 10.6985 27.1679 10.679 27.1679Z" fill="#FFCD29"/>
<path d="M21.6357 38.1641C21.5965 38.1641 21.577 38.1641 21.5381 38.1446C21.4793 38.1248 21.421 38.1053 21.3622 38.0664C21.3428 38.047 21.3035 38.0271 21.284 38.0077C21.1864 37.91 21.1475 37.7929 21.1475 37.6564C21.1475 37.6171 21.1475 37.5976 21.1669 37.5587C21.1864 37.5 21.2058 37.4412 21.2451 37.3828C21.2646 37.3634 21.284 37.3241 21.3035 37.3046C21.3233 37.2852 21.3428 37.2657 21.3817 37.2459C21.4404 37.207 21.4988 37.1875 21.5575 37.1681C21.6163 37.1482 21.6941 37.1482 21.7529 37.1681C21.8116 37.1875 21.87 37.207 21.9287 37.2459C21.9482 37.2657 21.9871 37.2852 22.0069 37.3046C22.0264 37.3241 22.0458 37.3436 22.0653 37.3828C22.1046 37.4412 22.124 37.5 22.1435 37.5587C22.1435 37.5976 22.1435 37.6171 22.1629 37.6564C22.124 37.9493 21.9093 38.1641 21.6357 38.1641Z" fill="#231F20"/>
<path d="M21.6357 41.1133C21.4988 41.1133 21.3817 41.0545 21.284 40.9767C21.1864 40.879 21.1475 40.7615 21.1475 40.625C21.1475 40.5861 21.1475 40.5662 21.1669 40.5273C21.1669 40.4884 21.1864 40.4686 21.1864 40.4297C21.2058 40.3907 21.2058 40.3709 21.2257 40.3515C21.2451 40.332 21.2646 40.2931 21.284 40.2732C21.421 40.1367 21.6357 40.0978 21.8116 40.1561C21.8311 40.1756 21.87 40.1756 21.8894 40.1954C21.9093 40.2149 21.9482 40.2343 21.9676 40.2538C22.0653 40.3515 22.1046 40.4686 22.1046 40.6055C22.1046 40.7421 22.0458 40.8592 21.9676 40.9569C21.8894 41.0743 21.7529 41.1133 21.6357 41.1133Z" fill="#231F20"/>
<path d="M21.6357 44.0819C21.3622 44.0819 21.1475 43.8671 21.1475 43.5936C21.1475 43.457 21.2058 43.3399 21.284 43.2422C21.3035 43.2228 21.3233 43.2029 21.3622 43.1835C21.421 43.1446 21.4793 43.1251 21.5381 43.1053C21.5965 43.0858 21.6747 43.0858 21.7334 43.1053C21.7723 43.1053 21.7918 43.1251 21.8311 43.1251C21.87 43.1446 21.8894 43.1446 21.9093 43.164C21.9287 43.1835 21.9676 43.2029 21.9871 43.2228C22.0847 43.3204 22.124 43.4375 22.124 43.5741C22.124 43.6329 22.1046 43.7111 22.0847 43.7694C22.0653 43.8087 22.0653 43.8282 22.0458 43.8476C22.0264 43.8671 22.0069 43.9064 21.9871 43.9258C21.9676 43.9453 21.9482 43.9647 21.9093 43.9842C21.8894 44.004 21.8505 44.0235 21.8311 44.0235C21.7918 44.0429 21.7723 44.0429 21.7334 44.0429C21.6941 44.0819 21.6552 44.0819 21.6357 44.0819Z" fill="#231F20"/>
<path d="M21.6357 47.0314C21.3622 47.0314 21.1475 46.8162 21.1475 46.5431C21.1475 46.5038 21.1475 46.4844 21.1669 46.4455C21.1669 46.4062 21.1864 46.3867 21.1864 46.3478C21.2058 46.3085 21.2058 46.2891 21.2257 46.2696C21.2451 46.2501 21.2646 46.2108 21.284 46.1914C21.3035 46.1719 21.3233 46.1525 21.3622 46.1326C21.3817 46.1132 21.421 46.0937 21.4404 46.0937C21.4793 46.0743 21.4988 46.0743 21.5381 46.0743C21.5965 46.0548 21.6747 46.0548 21.7334 46.0743C21.7723 46.0743 21.7918 46.0937 21.8311 46.0937C21.87 46.1132 21.8894 46.1132 21.9093 46.1326C21.9287 46.1525 21.9676 46.1719 21.9871 46.1914C22.0069 46.2108 22.0264 46.2303 22.0458 46.2696C22.0653 46.2891 22.0847 46.328 22.0847 46.3478C22.1046 46.3867 22.1046 46.4062 22.1046 46.4455C22.1046 46.4844 22.1046 46.5038 22.124 46.5431C22.124 46.6797 22.0653 46.7968 21.9871 46.8944C21.9676 46.9139 21.9482 46.9337 21.9093 46.9532C21.8894 46.9726 21.8505 46.9921 21.8311 46.9921C21.7918 47.0116 21.7723 47.0116 21.7334 47.0116C21.6941 47.0314 21.6552 47.0314 21.6357 47.0314Z" fill="#231F20"/>
<path d="M13.0225 49.9805C12.7489 49.9805 12.5342 49.7657 12.5342 49.4922V42.0116C12.5342 41.7381 12.7489 41.5233 13.0225 41.5233C13.2956 41.5233 13.5107 41.7381 13.5107 42.0116V49.4922C13.5107 49.7459 13.2956 49.9805 13.0225 49.9805Z" fill="#231F20"/>
<path d="M29.9954 24.9413C29.0188 24.9413 28.2376 24.1406 28.2181 23.164V14.7267C28.1987 13.7501 28.9799 12.9494 29.9565 12.9296C30.9331 12.9101 31.7338 13.6914 31.7532 14.6679V14.7267V23.164C31.7532 24.16 30.972 24.9413 29.9954 24.9413ZM29.9954 13.9454C29.5659 13.9454 29.2141 14.2967 29.1947 14.7461V23.1835C29.1947 23.6134 29.527 23.9846 29.9759 23.9846C30.4253 23.9846 30.7767 23.6523 30.7767 23.2033C30.7767 23.1835 30.7767 23.1835 30.7767 23.164V14.7267C30.7965 14.2967 30.4253 13.9454 29.9954 13.9454Z" fill="#231F20"/>
<path d="M13.0618 24.9413C12.0852 24.9413 11.304 24.1406 11.2845 23.164V14.7267C11.2651 13.7501 12.0463 12.9494 13.0229 12.9296C13.9995 12.9101 14.8002 13.6914 14.8196 14.6679V14.7267V23.164C14.8391 24.16 14.0384 24.9413 13.0618 24.9413ZM13.0618 13.9454C12.6323 13.9454 12.2806 14.2967 12.2611 14.7461V23.1835C12.2611 23.6134 12.593 23.9846 13.0423 23.9846C13.4719 23.9846 13.8431 23.6523 13.8431 23.2033C13.8431 23.1835 13.8431 23.1835 13.8431 23.164V14.7267C13.8625 14.2967 13.5112 13.9454 13.0618 13.9454Z" fill="#231F20"/>
<path d="M11.7911 23.7694C11.7717 23.7694 11.7324 23.7694 11.7129 23.7694C9.05675 23.3593 7.24019 20.879 7.65065 18.2228C7.96307 16.1328 9.62323 14.4726 11.7129 14.1602C11.9864 14.1213 12.2207 14.2967 12.2794 14.5703V14.6874V14.7461V23.1835V23.2422C12.2989 23.5157 12.1035 23.7499 11.83 23.7694C11.83 23.7694 11.8106 23.7694 11.7911 23.7694ZM11.3028 15.2538C9.25206 15.8985 8.11909 18.0664 8.76378 20.1172C9.13495 21.328 10.0921 22.2851 11.3028 22.6563V15.2538Z" fill="#231F20"/>
<path d="M31.2645 23.7693C30.9914 23.7693 30.7762 23.5545 30.7762 23.281C30.7762 23.2616 30.7762 23.2616 30.7762 23.2421C30.7762 23.2227 30.7762 23.2032 30.7762 23.1834V14.7266C30.7762 14.7071 30.7762 14.6873 30.7762 14.6678C30.7568 14.3943 30.9521 14.1601 31.2256 14.1406H31.3427C33.9989 14.5507 35.8155 17.031 35.4054 19.6876C35.093 21.7773 33.4328 23.4374 31.3427 23.7498C31.3233 23.7693 31.2844 23.7693 31.2645 23.7693ZM31.7726 15.2538V22.6756C33.8234 22.0313 34.956 19.8631 34.3117 17.8123C33.9211 16.582 32.9834 15.6249 31.7726 15.2538Z" fill="#231F20"/>
<path d="M10.835 15.3907C10.5614 15.3907 10.3467 15.1756 10.3467 14.9025V13.1248C10.3467 6.97246 15.3466 1.97253 21.4989 1.97253C27.6513 1.97253 32.6318 6.953 32.6516 13.1248V14.8826C32.6516 15.1561 32.4364 15.3709 32.1633 15.3709C32.1046 15.3709 32.0458 15.3514 31.9875 15.332C31.8116 15.2538 31.675 15.0978 31.675 14.9025C31.4797 9.88269 27.3389 5.91808 22.3195 5.91808H20.7177C15.6789 5.89824 11.538 9.88269 11.3625 14.9219C11.3625 15.1172 11.245 15.2732 11.0696 15.3514H11.0497C10.9719 15.3709 10.9132 15.3907 10.835 15.3907ZM20.6982 4.94151H22.3C25.9133 4.94151 29.2725 6.81644 31.1475 9.90215C29.3507 4.57034 23.589 1.69902 18.2568 3.47667C15.2489 4.49214 12.8663 6.8748 11.8508 9.88269C13.7257 6.79698 17.085 4.92168 20.6982 4.94151Z" fill="#231F20"/>
<path d="M14.3507 16.3868C14.0771 16.3868 13.8624 16.1721 13.8624 15.8986V14.7267C13.8624 14.2968 13.511 13.9454 13.0617 13.9454C12.6711 13.9454 12.3392 14.2384 12.2804 14.6096V14.6679V14.7267C12.2804 15.0002 12.0657 15.215 11.7921 15.215C11.7139 15.215 11.6556 15.1955 11.5774 15.1757C11.3821 15.215 11.2062 15.2733 11.0303 15.3515C10.7767 15.4492 10.5032 15.3321 10.4055 15.078C10.386 15.0196 10.3662 14.9414 10.3662 14.8827C10.5615 9.31629 15.1319 4.92176 20.6983 4.9416H22.3001C27.8467 4.92176 32.4171 9.31629 32.6318 14.8632C32.6517 15.1368 32.4365 15.3515 32.1634 15.371C32.1046 15.371 32.0264 15.371 31.9681 15.3321C31.8117 15.2733 31.6358 15.215 31.4798 15.1757C31.2452 15.2932 30.9522 15.1955 30.8351 14.9414C30.7962 14.8827 30.7962 14.8049 30.7962 14.7267C30.7962 14.7072 30.7962 14.6874 30.7962 14.6679C30.7962 14.6485 30.7962 14.629 30.7962 14.6096C30.7375 14.1796 30.3274 13.8867 29.8975 13.9454C29.5068 14.0038 29.2337 14.3361 29.2337 14.7267V15.0978C29.2337 15.371 29.0186 15.5861 28.7454 15.5861C28.5108 15.5861 28.2961 15.4103 28.2571 15.1757C25.3275 15.0586 23.7062 13.9649 22.9444 13.2424C20.21 16.5821 16.2061 16.1721 14.8584 15.8986C14.8389 16.1915 14.6242 16.3868 14.3507 16.3868ZM14.8389 14.922C14.8584 14.922 14.8977 14.922 14.9171 14.9414C16.3038 15.2344 19.8194 15.5861 22.2219 12.5588C22.5149 12.1876 23.0814 12.1094 23.4521 12.4218C23.472 12.4413 23.4914 12.4611 23.5303 12.4806C24.0186 12.9689 25.4835 14.1014 28.2961 14.1991C28.589 13.2618 29.5656 12.7343 30.5032 13.0272C30.9522 13.1642 31.3428 13.4766 31.5576 13.9061C30.8939 9.29684 26.9483 5.87887 22.2803 5.89832H20.6789C15.9326 5.87887 11.9287 9.43378 11.3821 14.1407C11.6945 13.2225 12.71 12.7343 13.6282 13.0471C14.3312 13.3007 14.8195 13.9649 14.8195 14.7267L14.8389 14.922Z" fill="#231F20"/>
<path d="M28.4912 29.2969H23.4131C23.1396 29.2969 22.9248 29.0821 22.9248 28.8086C22.9248 28.5351 23.1396 28.3203 23.4131 28.3203H28.1788L30.2101 24.0822C30.3272 23.8476 30.6202 23.7305 30.8544 23.8476C31.089 23.9647 31.2061 24.2577 31.089 24.4923L28.9406 29.0233C28.8429 29.1797 28.6671 29.2969 28.4912 29.2969Z" fill="#231F20"/>
<path d="M23.3543 34.7069H19.8975C19.4874 34.7069 19.1162 34.4532 18.9991 34.0626L17.8661 30.8205C17.8467 30.7618 17.8467 30.7229 17.8467 30.6641V28.0079C17.8467 27.7344 18.0614 27.5197 18.335 27.5197C18.4132 27.5197 18.4914 27.5391 18.5497 27.578C19.038 27.8321 19.5457 28.0079 20.0928 28.125C20.3468 28.1838 20.5223 28.4375 20.4639 28.711V28.7304C20.3468 29.1405 20.5811 29.5704 20.9911 29.6875C21.0693 29.707 21.1475 29.7265 21.2257 29.707H22.1436C22.5731 29.707 22.9248 29.3557 22.9443 28.9063C22.9443 28.8281 22.9248 28.7499 22.9053 28.6721C22.8271 28.418 22.9637 28.1445 23.2178 28.0663H23.2372C23.7648 27.9297 24.2531 27.7344 24.7215 27.4804C24.9561 27.3438 25.2491 27.4415 25.3857 27.6757C25.425 27.7539 25.4444 27.8321 25.4444 27.9103V30.6641C25.4444 30.7229 25.4444 30.7812 25.425 30.8205L24.292 34.0626C24.1356 34.4532 23.7648 34.7069 23.3543 34.7069ZM18.8038 30.5664L19.8975 33.7304L23.3543 33.7109L24.4484 30.547V28.6328C24.2725 28.711 24.0772 28.7697 23.8819 28.8475V28.8868C23.8819 29.8634 23.0812 30.6447 22.1046 30.6641H21.1864C20.2293 30.6641 19.4481 29.9023 19.4286 28.9452C19.2139 28.8868 18.9991 28.8086 18.8038 28.7304V30.5664Z" fill="#231F20"/>
<path d="M19.9757 29.0821C19.9364 29.0821 19.8975 29.0821 19.8781 29.0626C16.3819 28.2616 13.8818 25.1564 13.8623 21.5626V15.7814C13.8623 15.5273 13.9794 15.2733 14.1747 15.0978C14.37 14.9219 14.6436 14.8632 14.8976 14.9219C16.2843 15.2149 19.7999 15.5662 22.2024 12.5389C22.4953 12.1681 23.0614 12.0899 23.4326 12.4023C23.4521 12.4218 23.4719 12.4412 23.5108 12.4611C24.0186 12.9494 25.4834 14.1014 28.3349 14.1991C28.8037 14.2189 29.1749 14.5897 29.1749 15.0585V15.1756L29.1554 21.5626C29.136 25.0389 26.7922 28.0861 23.4326 28.965C23.1789 29.0234 22.9249 28.8868 22.8467 28.6327C22.749 28.3008 22.4366 28.0662 22.1047 28.0662H21.1865C20.8352 28.0662 20.5029 28.3203 20.4247 28.672C20.3858 28.9257 20.1905 29.0821 19.9757 29.0821ZM14.8389 15.918V21.5626C14.8583 24.5506 16.8313 27.1679 19.6828 28.0079C19.9952 27.4609 20.5811 27.129 21.206 27.129H22.1242C22.7296 27.129 23.2766 27.4219 23.6085 27.9297C26.3623 27.0313 28.2178 24.4728 28.2178 21.582L28.2372 15.1756C25.3274 15.0585 23.6867 13.9454 22.9443 13.2423C20.1905 16.6016 16.2061 16.1915 14.8389 15.918Z" fill="#231F20"/>
<path d="M22.1243 30.664H21.2061C20.2296 30.6445 19.4483 29.8438 19.4681 28.8673C19.4876 27.9102 20.2494 27.1484 21.2061 27.1289H22.1243C23.1009 27.1484 23.8821 27.9491 23.8627 28.9256C23.8627 29.8827 23.0814 30.664 22.1243 30.664ZM21.2061 28.1055C20.7766 28.1055 20.4249 28.4766 20.4249 28.9062C20.4249 29.3357 20.7766 29.668 21.2061 29.6874H22.1243C22.5538 29.6874 22.9056 29.3163 22.9056 28.8867C22.9056 28.4568 22.5538 28.1249 22.1243 28.1055H21.2061Z" fill="#231F20"/>
<path d="M33.4911 49.9805H7.9834C6.94809 49.9805 6.12793 49.1405 6.12793 48.125C6.12793 48.0857 6.12793 48.0468 6.12793 48.0274L6.77261 36.3086C6.85043 34.8632 7.86629 33.6131 9.27238 33.2813L14.7999 31.8946L18.1007 30.2539C18.335 30.1368 18.6279 30.2345 18.745 30.4687C18.745 30.4881 18.7645 30.5076 18.7645 30.5274L19.8975 33.7695L23.3543 33.7501L24.4679 30.5076C24.5655 30.2539 24.839 30.117 25.0927 30.2146C25.1122 30.2146 25.132 30.2345 25.1514 30.2345L27.71 31.504C27.9442 31.6211 28.0418 31.9141 27.9247 32.1483C27.9053 32.1876 27.8664 32.246 27.8271 32.2852L27.1046 33.0077C26.7921 33.3202 26.7921 33.8477 27.1046 34.1602L27.5536 34.629C27.8465 34.922 27.9053 35.371 27.7294 35.7227C27.5341 36.1133 27.3582 36.5039 27.2411 36.9335C27.124 37.3241 26.7529 37.5976 26.3428 37.5976H25.6981C25.2491 37.5976 24.8779 37.9688 24.8779 38.4178V40.1756C24.8779 40.6249 25.2491 40.9961 25.6981 40.9961H26.3428C26.7529 40.9961 27.124 41.2696 27.2411 41.6602C27.3781 42.0703 27.5341 42.4804 27.7294 42.871C27.9247 43.2422 27.8465 43.6912 27.5536 43.9647L27.0851 44.4335C26.7723 44.746 26.7723 45.2735 27.0851 45.5859L28.3154 46.8162C28.6278 47.129 29.1554 47.129 29.4678 46.8162L29.9366 46.3477C30.2296 46.0548 30.6786 45.996 31.0303 46.1719C31.4209 46.3672 31.8115 46.5431 32.2216 46.6602C32.6122 46.7773 32.8857 47.1485 32.8857 47.5585V48.2032C32.8857 48.5938 33.1593 48.9257 33.5304 49.0039C33.8036 49.0623 33.96 49.3163 33.9012 49.5899C33.9211 49.8046 33.7257 49.9805 33.4911 49.9805ZM18.042 31.3476L15.1905 32.7537C15.1512 32.7735 15.1318 32.7735 15.0929 32.793L9.50699 34.1796C8.51059 34.4337 7.78809 35.2928 7.72934 36.3281L7.08504 48.0468C7.06558 48.5351 7.43637 48.9646 7.92465 48.9845H7.9834H32.1434C32.0263 48.7304 31.9481 48.4569 31.9481 48.1834V47.5585C31.4991 47.422 31.0497 47.2267 30.6397 47.0115L30.1903 47.4609C29.4872 48.1639 28.3546 48.1639 27.6512 47.4609L26.421 46.2303C25.7179 45.5272 25.7179 44.3946 26.421 43.6912L26.87 43.2422C26.6552 42.8123 26.4793 42.3827 26.3233 41.9334H25.6981C24.7021 41.9334 23.9014 41.1327 23.9014 40.1367V38.3788C23.9014 37.3828 24.7021 36.5821 25.6981 36.5821H26.3233C26.4599 36.1327 26.6552 35.6834 26.87 35.2733L26.421 34.8243C25.7179 34.1209 25.7179 32.9883 26.421 32.2852L26.6747 32.0312L25.2296 31.3087L24.2725 34.0431C24.1356 34.4337 23.7648 34.6874 23.3742 34.6874H19.8975C19.4874 34.6874 19.1162 34.4337 18.9991 34.0431L18.042 31.3476Z" fill="#231F20"/>
<path d="M30.0342 49.9805C29.7607 49.9805 29.5459 49.7658 29.5459 49.4923V46.9727C29.5459 46.6991 29.7607 46.4844 30.0342 46.4844C30.3077 46.4844 30.5225 46.6991 30.5225 46.9727V49.4923C30.5225 49.7459 30.3077 49.9805 30.0342 49.9805Z" fill="#231F20"/>
<path d="M35.503 49.9999H33.7452C32.7492 49.9999 31.9481 49.1992 31.9481 48.2032V47.578C31.4991 47.4414 31.0497 47.2461 30.6396 47.0313L30.1903 47.4803C29.4872 48.1833 28.3546 48.1833 27.6512 47.4803L26.421 46.2501C25.7179 45.5466 25.7179 44.414 26.421 43.711L26.87 43.2616C26.6552 42.8321 26.4793 42.4022 26.3233 41.9532H25.6981C24.7021 41.9532 23.9014 41.1521 23.9014 40.1561V38.3983C23.9014 37.4023 24.7021 36.6015 25.6981 36.6015H26.3233C26.4599 36.1522 26.6552 35.7032 26.87 35.2927L26.421 34.8437C25.7179 34.1407 25.7179 33.0077 26.421 32.3047L27.6512 31.0741C28.3546 30.371 29.4872 30.371 30.1903 31.0741L30.6396 31.5234C31.0692 31.3087 31.4991 31.1328 31.9481 30.9764V30.3515C31.9481 29.3555 32.7492 28.5544 33.7452 28.5544H35.503C36.499 28.5544 37.2997 29.3555 37.2997 30.3515V30.9764C37.7491 31.1133 38.1981 31.3087 38.6086 31.5234L39.0575 31.0741C39.7606 30.371 40.8936 30.371 41.5966 31.0741L42.8272 32.3047C43.5303 33.0077 43.5303 34.1407 42.8272 34.8437L42.3779 35.2927C42.5926 35.7226 42.7685 36.1522 42.9249 36.6015H43.5497C44.5457 36.6015 45.3468 37.4023 45.3468 38.3983V40.1561C45.3468 41.1521 44.5457 41.9532 43.5497 41.9532H42.9249C42.7879 42.4022 42.5926 42.8515 42.3779 43.2616L42.8272 43.711C43.5303 44.414 43.5303 45.5466 42.8272 46.2501L41.5966 47.4803C40.8936 48.1833 39.7606 48.1833 39.0575 47.4803L38.6086 47.0313C38.1786 47.2461 37.7491 47.4219 37.2997 47.578V48.2032C37.2997 49.1992 36.499 49.9999 35.503 49.9999ZM30.6396 46.0547C30.7961 46.0547 30.9326 46.0937 31.0692 46.1524C31.4598 46.3477 31.8504 46.5232 32.2609 46.6407C32.6515 46.7578 32.9247 47.129 32.9247 47.539V48.1833C32.9247 48.6327 33.2958 49.0039 33.7452 49.0039H35.503C35.952 49.0039 36.3232 48.6327 36.3232 48.1833V47.539C36.3232 47.129 36.5967 46.7578 36.9873 46.6407C37.3974 46.5037 37.8075 46.3477 38.1786 46.1524C38.5498 45.9571 38.9992 46.0349 39.2723 46.3279L39.7411 46.7967C40.0536 47.1091 40.5811 47.1091 40.8936 46.7967L42.1242 45.5665C42.4366 45.2537 42.4366 44.7265 42.1242 44.414L41.6553 43.9452C41.3624 43.6523 41.3036 43.2029 41.4795 42.8515C41.6748 42.4609 41.8507 42.0703 41.9678 41.6602C42.0849 41.2696 42.4561 40.9961 42.8661 40.9961H43.5108C43.9598 40.9961 44.331 40.6249 44.331 40.1755V38.4177C44.331 37.9687 43.9598 37.5976 43.5108 37.5976H42.9249C42.5148 37.5976 42.1436 37.3241 42.0265 36.9334C41.8896 36.5233 41.7336 36.1133 41.5382 35.7421C41.3429 35.3709 41.4207 34.9219 41.7137 34.6484L42.1825 34.1796C42.495 33.8672 42.495 33.3396 42.1825 33.0272L40.9523 31.7969C40.6395 31.4841 40.1123 31.4841 39.7999 31.7969L39.3311 32.2654C39.0381 32.5583 38.5887 32.6171 38.2374 32.4412C37.8468 32.2459 37.4561 32.0701 37.0461 31.953C36.6554 31.8358 36.3819 31.4647 36.3819 31.0546V30.4099C36.3819 29.9609 36.0107 29.5898 35.5614 29.5898H33.8036C33.3546 29.5898 32.9834 29.9609 32.9834 30.4099V31.0546C32.9834 31.4647 32.7099 31.8358 32.3193 31.953C31.9092 32.0899 31.4991 32.2459 31.1279 32.4412C30.7568 32.6366 30.3078 32.5583 30.0343 32.2654L29.5654 31.7969C29.253 31.4841 28.7254 31.4841 28.413 31.7969L27.1828 33.0272C26.87 33.3396 26.87 33.8672 27.1828 34.1796L27.6512 34.629C27.9442 34.9219 28.0029 35.3709 27.8271 35.7226C27.6318 36.1133 27.4559 36.5039 27.3388 36.9334C27.2217 37.3241 26.8505 37.5976 26.4404 37.5976H25.7957C25.3468 37.5976 24.9756 37.9687 24.9756 38.4177V40.1755C24.9756 40.6249 25.3468 40.9961 25.7957 40.9961H26.4404C26.8505 40.9961 27.2217 41.2696 27.3388 41.6602C27.4757 42.0703 27.6318 42.4804 27.8271 42.871C28.0224 43.2422 27.9442 43.6912 27.6512 43.9647L27.1828 44.4335C26.87 44.7459 26.87 45.2735 27.1828 45.5859L28.413 46.8162C28.7254 47.129 29.253 47.129 29.5654 46.8162L30.0343 46.3477C30.1514 46.1524 30.3856 46.0547 30.6396 46.0547Z" fill="#231F20"/>
<path d="M34.1935 41.2498C34.057 41.2498 33.9204 41.1914 33.8422 41.0937L32.4556 39.5701C32.2797 39.3748 32.2992 39.0624 32.4945 38.8866C32.6898 38.7107 32.9827 38.7305 33.1781 38.9258L34.2134 40.0584L36.186 38.0858C36.3813 37.8905 36.6937 37.91 36.8695 38.1053C37.0454 38.3006 37.0454 38.5936 36.8695 38.7889L34.5452 41.1132C34.4476 41.2108 34.3305 41.2498 34.1935 41.2498Z" fill="#231F20"/>
<path d="M34.624 45.7031C31.0691 45.7031 28.1787 42.8123 28.1787 39.2578C28.1787 35.7033 31.0691 32.8125 34.624 32.8125C38.1786 32.8125 41.0693 35.7033 41.0693 39.2578C41.0693 42.8322 38.1786 45.7031 34.624 45.7031ZM34.624 33.8085C31.6161 33.8085 29.1553 36.2499 29.1553 39.2773C29.1553 42.3046 31.5967 44.746 34.624 44.746C37.6514 44.746 40.0928 42.3046 40.0928 39.2773C40.0928 36.2499 37.6514 33.8085 34.624 33.8085Z" fill="#231F20"/>
<path d="M34.6241 43.8282C32.1045 43.8282 30.0537 41.7774 30.0537 39.2578C30.0537 36.7382 32.1045 34.6874 34.6241 34.6874C37.1437 34.6874 39.1945 36.7382 39.1945 39.2578C39.1945 41.7968 37.1437 43.8282 34.6241 43.8282ZM34.6241 35.6834C32.6317 35.6834 31.0303 37.2852 31.0303 39.2772C31.0303 41.2696 32.6317 42.871 34.6241 42.871C36.6161 42.871 38.2179 41.2696 38.2179 39.2772C38.2179 37.2852 36.6161 35.6834 34.6241 35.6834Z" fill="#231F20"/>
</svg>
