<svg width="120" height="40" viewBox="0 0 120 40" fill="none" xmlns="http://www.w3.org/2000/svg">
<g clip-path="url(#clip0)">
<path d="M110.57 0.50013H110.135H9.53468H110.57ZM110.57 0.50013C110.786 0.500323 111.002 0.500802 111.216 0.501992L111.219 0.002M110.57 0.50013H110.635V0.000196401C110.83 0.000425702 111.025 0.000922715 111.219 0.002M111.219 0.002C111.467 0.00359168 111.721 0.00778841 111.972 0.0119309C112.028 0.0128635 112.085 0.0137933 112.141 0.01469C112.811 0.0221378 113.48 0.0812328 114.141 0.19145M111.219 0.002L111.216 0.50199C111.462 0.503564 111.712 0.507708 111.963 0.511847C112.019 0.512784 112.076 0.51372 112.133 0.514632L112.135 0.514659C112.779 0.521819 113.422 0.578607 114.058 0.684519M114.141 0.19145L114.057 0.684367C114.057 0.684418 114.057 0.684469 114.058 0.684519M114.141 0.19145C114.804 0.30437 115.448 0.515697 116.049 0.81845L114.141 0.19145ZM114.058 0.684519C114.671 0.78903 115.266 0.984402 115.822 1.2642M114.058 0.684519L115.822 1.2642M115.822 1.2642C116.93 1.83384 117.832 2.73613 118.402 3.84445C118.68 4.39814 118.873 4.99094 118.973 5.60255L118.974 5.60465C119.081 6.24118 119.141 6.88481 119.152 7.5302C119.156 7.83305 119.156 8.1374 119.156 8.44447L119.156 8.45523C119.164 8.81125 119.164 9.16913 119.164 9.53626V30.4649C119.164 30.835 119.164 31.191 119.156 31.548L119.156 31.548V31.5587C119.156 31.8695 119.156 32.167 119.152 32.4738C119.141 33.1192 119.081 33.7629 118.974 34.3994L118.973 34.4018C118.873 35.0135 118.681 35.6064 118.402 36.1601C118.119 36.7095 117.752 37.211 117.314 37.6463L117.311 37.6492C116.876 38.0878 116.374 38.4538 115.824 38.7335C115.267 39.0144 114.672 39.2112 114.058 39.3176C113.422 39.4226 112.779 39.4794 112.134 39.4874L112.13 39.4876C111.828 39.4943 111.519 39.4981 111.219 39.4981L111.216 39.4981C110.858 39.5001 110.494 39.5001 110.135 39.5001H9.53468C9.16778 39.5001 8.80681 39.5001 8.44268 39.4981H8.43995C8.13807 39.4981 7.83808 39.4943 7.532 39.4875L7.52759 39.4875C6.88185 39.479 6.23765 39.4222 5.60039 39.3176C4.98864 39.2122 4.39619 39.0155 3.84285 38.7341L3.84229 38.7339C3.29087 38.4543 2.78791 38.0881 2.35262 37.6491L2.35264 37.6491L2.34872 37.6452C1.90982 37.2122 1.54397 36.7109 1.2654 36.1609L1.26517 36.1605C0.98402 35.6068 0.789245 35.0133 0.687609 34.4007L0.687419 34.3996C0.580367 33.7634 0.52276 33.1198 0.515115 32.4747H0.515196L0.514927 32.4657C0.508722 32.258 0.506349 32.0579 0.503897 31.8511C0.502749 31.7543 0.501584 31.656 0.5 31.5548V8.44844C0.501607 8.34704 0.502782 8.24764 0.503943 8.1494C0.506379 7.94341 0.508754 7.74249 0.514921 7.53874L0.515006 7.53874L0.515115 7.52953C0.522757 6.88439 0.580364 6.24082 0.68742 5.60457L0.687563 5.60371C0.7895 4.99135 0.984296 4.39814 1.26522 3.84456L1.26566 3.8437C1.54455 3.29151 1.91061 2.78786 2.34974 2.35213L2.35117 2.35071C2.78884 1.91292 3.29228 1.54627 3.84323 1.26403C4.39627 0.983685 4.98842 0.788365 5.59972 0.684667C6.23686 0.579183 6.88111 0.522395 7.52688 0.514795L7.52688 0.514799L7.52891 0.514767C7.59386 0.51374 7.65832 0.512677 7.72241 0.511619L115.822 1.2642ZM0.19435 34.4825C0.0830134 33.8209 0.0231008 33.1516 0.01515 32.4806C0.00880994 32.2684 0.00634396 32.0608 0.00385846 31.8515C0.00270592 31.7545 0.00154917 31.6571 0 31.5587L0.19435 34.4825ZM0.19435 34.4825C0.304336 35.1455 0.515108 35.7877 0.81935 36.3868L0.19435 34.4825Z" stroke="#919191"/>
<path d="M24.7689 20.3006C24.7796 19.466 25.0013 18.6476 25.4134 17.9216C25.8254 17.1957 26.4143 16.5857 27.1254 16.1486C26.6737 15.5034 26.0777 14.9725 25.3849 14.5979C24.6921 14.2234 23.9215 14.0155 23.1343 13.9909C21.455 13.8146 19.8271 14.9957 18.9714 14.9957C18.0991 14.9957 16.7816 14.0084 15.3629 14.0376C14.4452 14.0672 13.5509 14.3341 12.767 14.8121C11.9831 15.2902 11.3364 15.9632 10.89 16.7654C8.95595 20.1139 10.3985 25.0349 12.2511 27.7415C13.178 29.0669 14.2613 30.5473 15.6788 30.4948C17.0658 30.4373 17.5839 29.6103 19.2582 29.6103C20.9169 29.6103 21.403 30.4948 22.8492 30.4614C24.3376 30.4373 25.2753 29.1302 26.1697 27.7923C26.8357 26.8479 27.3481 25.8042 27.6881 24.6998C26.8234 24.3341 26.0855 23.7219 25.5664 22.9396C25.0472 22.1573 24.7699 21.2395 24.7689 20.3006ZM22.0372 12.2108C22.8488 11.2366 23.2486 9.98445 23.1518 8.72021C21.9119 8.85044 20.7667 9.44299 19.9442 10.3798C19.542 10.8375 19.234 11.3699 19.0378 11.9467C18.8416 12.5235 18.7609 13.1333 18.8005 13.7412C19.4206 13.7476 20.0341 13.6132 20.5948 13.3481C21.1554 13.083 21.6486 12.6942 22.0372 12.2108Z" fill="#606060"/>
<path d="M42.3022 27.1397H37.5688L36.4321 30.4962H34.4272L38.9106 18.0782H40.9936L45.477 30.4962H43.438L42.3022 27.1397ZM38.0591 25.5909H41.8111L39.9615 20.1436H39.9097L38.0591 25.5909ZM55.1597 25.9698C55.1597 28.7833 53.6538 30.5909 51.3813 30.5909C50.8057 30.621 50.2332 30.4884 49.7294 30.2082C49.2256 29.9281 48.8109 29.5118 48.5327 29.0069H48.4897V33.4913H46.6313V21.4424H48.4302V22.9483H48.4644C48.7553 22.4458 49.177 22.0316 49.6847 21.7498C50.1923 21.4679 50.7668 21.329 51.3472 21.3477C53.645 21.3477 55.1597 23.1641 55.1597 25.9698ZM53.2495 25.9698C53.2495 24.1368 52.3022 22.9317 50.8569 22.9317C49.437 22.9317 48.4819 24.1622 48.4819 25.9698C48.4819 27.794 49.437 29.0157 50.8569 29.0157C52.3022 29.0157 53.2495 27.8194 53.2495 25.9698ZM65.1245 25.9698C65.1245 28.7833 63.6186 30.5909 61.3462 30.5909C60.7705 30.621 60.198 30.4884 59.6942 30.2082C59.1904 29.9281 58.7757 29.5118 58.4976 29.0069H58.4546V33.4913H56.5962V21.4424H58.395V22.9483H58.4292C58.7201 22.4458 59.1418 22.0316 59.6495 21.7498C60.1571 21.468 60.7317 21.329 61.312 21.3477C63.6099 21.3477 65.1245 23.1641 65.1245 25.9698ZM63.2143 25.9698C63.2143 24.1368 62.2671 22.9317 60.8218 22.9317C59.4018 22.9317 58.4468 24.1622 58.4468 25.9698C58.4468 27.794 59.4018 29.0157 60.8218 29.0157C62.2671 29.0157 63.2144 27.8194 63.2144 25.9698H63.2143ZM71.7104 27.0362C71.8481 28.2676 73.0444 29.0762 74.6792 29.0762C76.2456 29.0762 77.3726 28.2676 77.3726 27.1572C77.3726 26.1934 76.6929 25.6162 75.0835 25.2207L73.4741 24.833C71.1939 24.2822 70.1353 23.2158 70.1353 21.4854C70.1353 19.3428 72.0024 17.8711 74.6538 17.8711C77.2778 17.8711 79.0767 19.3428 79.1372 21.4854H77.2612C77.1489 20.2461 76.1245 19.4981 74.6274 19.4981C73.1303 19.4981 72.1059 20.2549 72.1059 21.3565C72.1059 22.2344 72.7602 22.751 74.3608 23.1465L75.729 23.4824C78.2768 24.0849 79.3354 25.1084 79.3354 26.9248C79.3354 29.248 77.4848 30.7031 74.5415 30.7031C71.7876 30.7031 69.9282 29.2822 69.8081 27.0361L71.7104 27.0362ZM83.3462 19.2999V21.4424H85.0679V22.9141H83.3462V27.9053C83.3462 28.6807 83.6909 29.042 84.4477 29.042C84.6521 29.0385 84.8562 29.0241 85.0591 28.999V30.4619C84.7188 30.5255 84.3729 30.5543 84.0268 30.5479C82.1938 30.5479 81.479 29.8594 81.479 28.1035V22.9141H80.1626V21.4424H81.479V19.2999H83.3462ZM86.065 25.9698C86.065 23.1212 87.7427 21.3311 90.3589 21.3311C92.9839 21.3311 94.6538 23.1211 94.6538 25.9698C94.6538 28.8262 92.9927 30.6085 90.3589 30.6085C87.7261 30.6085 86.065 28.8262 86.065 25.9698ZM92.7603 25.9698C92.7603 24.0157 91.8648 22.8624 90.3589 22.8624C88.8531 22.8624 87.9585 24.0245 87.9585 25.9698C87.9585 27.9317 88.8531 29.0762 90.3589 29.0762C91.8648 29.0762 92.7602 27.9317 92.7602 25.9698H92.7603ZM96.186 21.4424H97.9585V22.9834H98.0015C98.1214 22.5021 98.4034 22.0768 98.8 21.7789C99.1965 21.481 99.6836 21.3288 100.179 21.3477C100.393 21.3469 100.607 21.3702 100.816 21.417V23.1553C100.546 23.0727 100.264 23.0348 99.9809 23.043C99.711 23.0321 99.4418 23.0797 99.192 23.1825C98.9421 23.2854 98.7175 23.4412 98.5335 23.6391C98.3496 23.8369 98.2106 24.0723 98.1262 24.329C98.0417 24.5856 98.0139 24.8575 98.0444 25.126V30.4961H96.186L96.186 21.4424ZM109.384 27.837C109.134 29.4805 107.534 30.6084 105.486 30.6084C102.852 30.6084 101.217 28.8438 101.217 26.0127C101.217 23.1729 102.861 21.3311 105.408 21.3311C107.913 21.3311 109.488 23.0518 109.488 25.7969V26.4336H103.093V26.5459C103.064 26.8791 103.105 27.2148 103.216 27.5307C103.326 27.8465 103.502 28.1353 103.732 28.3778C103.963 28.6204 104.242 28.8111 104.552 28.9374C104.861 29.0637 105.195 29.1227 105.529 29.1104C105.968 29.1515 106.409 29.0498 106.785 28.8204C107.162 28.591 107.455 28.246 107.62 27.837L109.384 27.837ZM103.102 25.1348H107.628C107.645 24.8352 107.6 24.5354 107.495 24.2542C107.39 23.973 107.229 23.7165 107.02 23.5007C106.812 23.2849 106.561 23.1146 106.283 23.0004C106.006 22.8861 105.708 22.8305 105.408 22.837C105.105 22.8352 104.805 22.8933 104.525 23.008C104.245 23.1228 103.99 23.2919 103.776 23.5055C103.562 23.7191 103.392 23.9731 103.276 24.2527C103.16 24.5324 103.101 24.8322 103.102 25.1348V25.1348Z" fill="#606060"/>
<path d="M36.7383 11.2534H37.5361C37.6735 11.2705 37.8129 11.259 37.9455 11.2195C38.0782 11.1801 38.2013 11.1136 38.307 11.0242C38.4127 10.9349 38.4987 10.8246 38.5596 10.7003C38.6206 10.576 38.6552 10.4405 38.6611 10.3022C38.6611 9.75193 38.2471 9.39646 37.5449 9.39646C37.4042 9.3768 37.261 9.38553 37.1237 9.42214C36.9864 9.45875 36.8579 9.52249 36.7456 9.60961C36.6334 9.69672 36.5397 9.80544 36.4702 9.92935C36.4007 10.0533 36.3567 10.1898 36.3408 10.331H35.4648C35.4799 10.0747 35.5476 9.82428 35.6636 9.59527C35.7797 9.36626 35.9417 9.16359 36.1394 8.99989C36.3372 8.83618 36.5666 8.71494 36.8133 8.64372C37.0599 8.5725 37.3186 8.55282 37.5732 8.58591C38.748 8.58591 39.5752 9.24362 39.5752 10.1904C39.578 10.5076 39.4719 10.8161 39.2746 11.0645C39.0773 11.3129 38.8008 11.486 38.4912 11.5551V11.6255C38.8582 11.6417 39.2038 11.8027 39.4525 12.073C39.7012 12.3434 39.8328 12.7013 39.8184 13.0683C39.7912 13.3322 39.7116 13.588 39.5843 13.8208C39.457 14.0535 39.2845 14.2585 39.077 14.4237C38.8694 14.5889 38.631 14.7111 38.3756 14.7829C38.1202 14.8548 37.8531 14.875 37.5898 14.8423C37.326 14.8782 37.0577 14.8607 36.8008 14.7907C36.5439 14.7208 36.3037 14.5998 36.0946 14.4351C35.8854 14.2703 35.7116 14.0651 35.5834 13.8317C35.4553 13.5983 35.3754 13.3415 35.3486 13.0766H36.2383C36.292 13.6474 36.8164 14.0156 37.5898 14.0156C38.3633 14.0156 38.8682 13.6021 38.8682 13.0191C38.8682 12.4277 38.3926 12.0635 37.5615 12.0635H36.7383V11.2534ZM40.8291 13.4243C40.8291 12.6137 41.4336 12.1465 42.5039 12.08L43.7236 12.0097V11.6211C43.7236 11.1455 43.4101 10.8769 42.8018 10.8769C42.3057 10.8769 41.9629 11.0591 41.8633 11.3774H41.0029C41.0937 10.604 41.8223 10.1079 42.8437 10.1079C43.9727 10.1079 44.6094 10.6699 44.6094 11.6211V14.6977H43.7529V14.0649H43.6826C43.5399 14.2919 43.3395 14.477 43.1019 14.6012C42.8642 14.7254 42.5979 14.7843 42.3301 14.7719C42.141 14.7916 41.95 14.7714 41.7692 14.7127C41.5885 14.654 41.422 14.5581 41.2806 14.4311C41.1392 14.3042 41.0259 14.149 40.9482 13.9755C40.8704 13.8021 40.8298 13.6143 40.8291 13.4243ZM43.7236 13.0395V12.6631L42.624 12.7334C42.0039 12.7749 41.7226 12.9858 41.7226 13.3828C41.7226 13.788 42.0742 14.0239 42.5576 14.0239C42.6993 14.0382 42.8423 14.0239 42.9783 13.9818C43.1144 13.9398 43.2405 13.8707 43.3493 13.7789C43.4581 13.6871 43.5473 13.5743 43.6116 13.4472C43.6759 13.3202 43.714 13.1816 43.7236 13.0395ZM46.9678 10.9428V14.6977H46.0791V10.1948H49.044V10.9428L46.9678 10.9428ZM54.4297 12.4443C54.4297 13.875 53.7061 14.772 52.5693 14.772C52.2903 14.791 52.0116 14.7299 51.7661 14.5959C51.5206 14.4619 51.3185 14.2606 51.1836 14.0156H51.1133V16.1948H50.2246V10.1948H51.0801V10.939H51.1465C51.2838 10.6854 51.4886 10.4747 51.7381 10.3302C51.9876 10.1857 52.2723 10.113 52.5605 10.1201C53.706 10.1201 54.4297 11.0131 54.4297 12.4443ZM53.5156 12.4443C53.5156 11.4931 53.0654 10.9184 52.3125 10.9184C51.5645 10.9184 51.0967 11.5053 51.0967 12.4482C51.0967 13.3867 51.5645 13.9741 52.3086 13.9741C53.0654 13.9741 53.5156 13.3994 53.5156 12.4443ZM55.6133 16.3105V15.5454C55.7094 15.5576 55.8063 15.5631 55.9033 15.562C56.0926 15.576 56.2805 15.5196 56.4308 15.4036C56.5811 15.2877 56.6833 15.1203 56.7177 14.9336L56.7841 14.7143L55.1543 10.1948H56.122L57.251 13.7714H57.3213L58.4463 10.1948H59.3887L57.71 14.8838C57.3252 15.9795 56.8994 16.331 55.9815 16.331C55.9072 16.331 55.6963 16.3227 55.6133 16.3105ZM60.081 13.4199H60.9658C61.0527 13.8169 61.4248 14.0239 61.9453 14.0239C62.5371 14.0239 62.9004 13.7631 62.9004 13.3579C62.9004 12.9238 62.5742 12.7168 61.9453 12.7168H61.2715V12.0263H61.9336C62.4707 12.0263 62.7441 11.8198 62.7441 11.4434C62.7441 11.1128 62.4795 10.8604 61.9336 10.8604C61.4365 10.8604 61.0732 11.0713 61.0156 11.4268H60.1592C60.2232 11.0183 60.445 10.6513 60.7768 10.4046C61.1086 10.158 61.524 10.0515 61.9336 10.1079C63.0039 10.1079 63.6162 10.5918 63.6162 11.3525C63.6212 11.5644 63.5533 11.7715 63.4239 11.9393C63.2945 12.1071 63.1114 12.2254 62.9053 12.2744V12.3447C63.1507 12.3764 63.376 12.497 63.5384 12.6838C63.7007 12.8706 63.7889 13.1104 63.7861 13.3579C63.7861 14.2139 63.0576 14.7803 61.9453 14.7803C60.9619 14.7802 60.1631 14.3296 60.081 13.4199ZM65.0659 14.6977V10.1948H65.9468V13.292H66.0171L68.0923 10.1948H68.9731V14.6977H68.0923V11.584H68.0259L65.9468 14.6977L65.0659 14.6977ZM73.8257 10.9428H72.4077V14.6977H71.518V10.9428H70.1V10.1948H73.8257V10.9428ZM78.6128 13.4819C78.4917 13.8934 78.2299 14.2493 77.8731 14.4874C77.5162 14.7255 77.0871 14.8307 76.6606 14.7846C76.364 14.7925 76.0692 14.7356 75.7966 14.6181C75.5241 14.5006 75.2805 14.3252 75.0826 14.104C74.8847 13.8829 74.7373 13.6213 74.6506 13.3375C74.5639 13.0537 74.54 12.7544 74.5806 12.4604C74.541 12.1655 74.5654 11.8656 74.6519 11.5809C74.7383 11.2962 74.885 11.0335 75.0818 10.8104C75.2787 10.5873 75.5212 10.4092 75.7929 10.288C76.0646 10.1667 76.3592 10.1053 76.6567 10.1079C77.9097 10.1079 78.6665 10.9639 78.6665 12.3779V12.688H75.4868V12.7378C75.4727 12.9031 75.4934 13.0694 75.5475 13.2263C75.6015 13.3831 75.6878 13.5269 75.8007 13.6484C75.9137 13.7699 76.0508 13.8664 76.2032 13.9317C76.3557 13.9971 76.5202 14.0298 76.686 14.0278C76.8985 14.0532 77.1136 14.0148 77.3042 13.9176C77.4948 13.8204 77.6522 13.6687 77.7563 13.4819L78.6128 13.4819ZM75.4868 12.0307H77.7602C77.7714 11.8797 77.751 11.7279 77.7001 11.5853C77.6492 11.4426 77.569 11.3122 77.4647 11.2023C77.3605 11.0925 77.2344 11.0057 77.0945 10.9474C76.9547 10.8892 76.8042 10.8609 76.6528 10.8642C76.4991 10.8621 76.3465 10.8909 76.204 10.9488C76.0616 11.0067 75.9322 11.0925 75.8235 11.2013C75.7148 11.31 75.629 11.4394 75.5712 11.5819C75.5133 11.7244 75.4847 11.877 75.4868 12.0307H75.4868ZM82.3804 10.1948H84.4106C85.2915 10.1948 85.8081 10.6411 85.8081 11.3398C85.8095 11.5615 85.7346 11.777 85.5962 11.9501C85.4577 12.1232 85.2639 12.2436 85.0474 12.291V12.3613C85.3103 12.3779 85.5569 12.4949 85.7361 12.6881C85.9153 12.8812 86.0134 13.1359 86.0102 13.3994C86.0102 14.185 85.4194 14.6977 84.4311 14.6977H82.3804V10.1948ZM83.2612 10.8769V12.0429H84.1421C84.6792 12.0429 84.936 11.8364 84.936 11.4555C84.936 11.1045 84.7124 10.8769 84.2407 10.8769L83.2612 10.8769ZM83.2612 12.6963V14.0156H84.315C84.8404 14.0156 85.1216 13.7837 85.1216 13.3579C85.1216 12.9072 84.8033 12.6963 84.2036 12.6963L83.2612 12.6963Z" fill="#606060"/>
</g>
<defs>
<clipPath id="clip0">
<rect width="119.664" height="40" fill="white"/>
</clipPath>
</defs>
</svg>
