<svg width="68" height="68" viewBox="0 0 68 68" fill="none" xmlns="http://www.w3.org/2000/svg">
<path d="M18.589 21.5H16.589C16.2204 21.5 15.9224 21.1648 15.9224 20.75C15.9224 20.3353 16.2204 20 16.589 20H18.589H27.9224H51.2557C51.6244 20 51.9224 20.3353 51.9224 20.75C51.9224 21.1648 51.6244 21.5 51.2557 21.5H27.9224H18.589Z" fill="#555555"/>
<circle cx="24" cy="21" r="4.5" fill="#FDF415" stroke="#555555"/>
<path d="M18.6667 34.5H16.6667C16.298 34.5 16 34.1648 16 33.75C16 33.3353 16.298 33 16.6667 33H18.6667H28H51.3333C51.702 33 52 33.3353 52 33.75C52 34.1648 51.702 34.5 51.3333 34.5H28H18.6667Z" fill="#555555"/>
<circle cx="34" cy="34" r="4.5" fill="#FDF415" stroke="#555555"/>
<path d="M18.589 47.5H16.589C16.2204 47.5 15.9224 47.1648 15.9224 46.75C15.9224 46.3353 16.2204 46 16.589 46H18.589H27.9224H51.2557C51.6244 46 51.9224 46.3353 51.9224 46.75C51.9224 47.1648 51.6244 47.5 51.2557 47.5H27.9224H18.589Z" fill="#555555"/>
<circle cx="44" cy="47" r="4.5" fill="#FDF415" stroke="#555555"/>
</svg>
