<svg width="41" height="41" viewBox="0 0 41 41" fill="none" xmlns="http://www.w3.org/2000/svg">
<path d="M26.6667 22.2184C26.6667 17.901 23.1845 14.4011 18.8889 14.4011" stroke="#005EC8"/>
<path d="M30 22.2184C30 16.0507 25.0254 11.0508 18.8889 11.0508" stroke="#005EC8"/>
<path d="M33.3334 22.2184C33.3334 14.2004 26.8664 7.70056 18.8889 7.70056" stroke="#005EC8"/>
<path d="M36.6667 22.2184C36.6667 12.3501 28.7073 4.35028 18.8889 4.35028" stroke="#005EC8"/>
<path d="M40 22.2184C40 10.4998 30.5483 1 18.8889 1" stroke="#005EC8"/>
<path d="M23.9444 22.2184C23.9444 25.0285 21.6786 27.3022 18.8889 27.3022C16.0991 27.3022 13.8333 25.0285 13.8333 22.2184C13.8333 19.4083 16.0991 17.1346 18.8889 17.1346C21.6786 17.1346 23.9444 19.4083 23.9444 22.2184Z" stroke="#005EC8"/>
<path d="M9.90094 26.076L6.39693 24.3151L9.86279 20.8317L11.6148 24.3535L9.90094 26.076Z" stroke="#005EC8"/>
<path d="M16.7657 29.5283L20.2698 31.2892L16.8039 34.7727L15.0519 31.2509L16.7657 29.5283Z" stroke="#005EC8"/>
<path d="M15.1408 28.2124L9.80207 33.5783L9.65427 33.7269L9.65601 33.9367L9.65601 33.9367V33.9368L9.65602 33.9369L9.65602 33.9378L9.65604 33.9437L9.65596 33.9703C9.65581 33.9944 9.65539 34.0309 9.65431 34.0783C9.65216 34.1733 9.64738 34.3117 9.63684 34.4818C9.61569 34.823 9.57168 35.2866 9.48088 35.78C9.38965 36.2758 9.25393 36.7862 9.05572 37.2281C8.85584 37.6737 8.60886 38.0131 8.31584 38.2146C6.7874 39.2657 4.89515 38.8938 3.49971 37.4912C2.11337 36.0978 1.77157 34.2205 2.78739 32.6395C2.98526 32.3315 3.3236 32.0661 3.76836 31.845C4.20947 31.6258 4.72054 31.4674 5.21722 31.3547C5.71168 31.2426 6.17711 31.1791 6.51987 31.1437C6.69074 31.1261 6.82988 31.1156 6.92536 31.1095C6.97307 31.1065 7.00979 31.1046 7.03403 31.1034L7.06082 31.1022L7.06682 31.102L7.0677 31.102L7.06787 31.102L7.06791 31.102L7.06797 31.102L7.26484 31.0956L7.40431 30.9554L12.6403 25.6929C12.6674 25.7455 12.6961 25.7999 12.7261 25.8557C12.9617 26.2937 13.3067 26.8639 13.7 27.2487C14.0719 27.6125 14.6126 27.9334 15.0268 28.1529C15.0656 28.1734 15.1036 28.1933 15.1408 28.2124Z" stroke="#005EC8"/>
</svg>
