<svg width="40" height="40" viewBox="0 0 40 40" fill="none" xmlns="http://www.w3.org/2000/svg">
<path d="M23.0456 36.5167L14.6962 27.8488H18.246H18.5808L18.7083 27.5392L19.7696 24.9625L22.1525 30.3357C22.1526 30.336 22.1527 30.3362 22.1528 30.3364C22.5993 31.3494 24.0207 31.387 24.5105 30.385C24.5106 30.3848 24.5107 30.3845 24.5109 30.3842L26.5575 26.226L27.2187 27.5696L27.3562 27.8488H27.6673H31.9701L23.6161 36.5166L23.615 36.5177C23.4553 36.6845 23.2064 36.6845 23.0467 36.5177L23.0456 36.5167ZM23.4026 26.7146L20.9129 21.0955L20.9123 21.0944C20.4417 20.0391 18.9552 20.0645 18.5169 21.128L18.5166 21.1288L16.8409 25.2162H12.2782C10.3988 22.7069 10.5497 19.0714 12.7587 16.7746L12.8772 16.6542L12.8773 16.6542L12.8812 16.6501C15.2709 14.1659 19.1822 14.1659 21.5719 16.6501L21.5722 16.6504L22.9733 18.1044L23.334 18.4787L23.694 18.1038L25.0942 16.6457C25.0943 16.6455 25.0945 16.6453 25.0946 16.6452C27.4891 14.1661 31.3947 14.1662 33.7841 16.6437C33.7847 16.6442 33.7852 16.6448 33.7858 16.6453L33.9029 16.7693L34.2663 16.4259L33.9061 16.7727C36.1169 19.0693 36.2684 22.7062 34.3885 25.2162H28.9729L27.7242 22.6792C27.2447 21.705 25.8704 21.7049 25.3908 22.679C25.3908 22.6791 25.3908 22.6792 25.3907 22.6792L23.4026 26.7146Z" fill="#FDF415" stroke="#005EC8"/>
<rect x="0.5" y="11.9286" width="39" height="27.5714" rx="3.5" stroke="#005EC8"/>
<line x1="10.9762" y1="1.90479" x2="10.9762" y2="11.4286" stroke="#005EC8"/>
<line x1="5.2619" y1="1.90479" x2="5.2619" y2="11.4286" stroke="#005EC8"/>
<rect x="2.40479" y="32.881" width="4.71429" height="4.71429" rx="0.5" stroke="#005EC8"/>
<circle cx="5.23808" cy="1.42857" r="0.928571" stroke="#005EC8"/>
<circle cx="10.9524" cy="1.42857" r="0.928571" stroke="#005EC8"/>
</svg>
