<svg width="40" height="40" viewBox="0 0 40 40" fill="none" xmlns="http://www.w3.org/2000/svg">
<path d="M20.7554 16.9412H18.774V19.7152H16V21.6966H18.774V24.4706H20.7554V21.6966H23.5294V19.7152H20.7554V16.9412Z" stroke="#005EC8"/>
<path d="M34.3823 34.3823H38.0882V38.0882H34.3823V34.3823Z" fill="#FDF415" stroke="#005EC8"/>
<path fill-rule="evenodd" clip-rule="evenodd" d="M0 0H18.8235V15.5294H14.5882V25.8824H18.8235V28.2353H16.4706H14.1176H9.41176H0V0ZM0.941176 0.941176H17.8824V14.5882H16H13.6471V26.8235H17.8824V27.2941H15.7647H13.6471H9.41176H0.941176V0.941176Z" fill="#005EC8"/>
<path fill-rule="evenodd" clip-rule="evenodd" d="M21.1765 12.7059V15.5294H24.9412V25.8824H21.1765V40H40V12.7059H30.5882H25.8824H23.5294H21.1765ZM22.1176 39.0588V26.8235H25.8824V14.5882H22.1176V13.6471H24.2353H26.3529H30.5882H39.0588V39.0588H22.1176Z" fill="#005EC8"/>
<path d="M1.91174 1.91174H5.61763V5.61763H1.91174V1.91174Z" fill="#FDF415" stroke="#005EC8"/>
<path d="M33.6507 29.7867H28.3897V29.0533L31.1691 25.965C31.5809 25.4981 31.864 25.1195 32.0184 24.829C32.1765 24.5349 32.2555 24.2316 32.2555 23.9191C32.2555 23.5 32.1287 23.1562 31.875 22.8878C31.6213 22.6195 31.2831 22.4853 30.8603 22.4853C30.3529 22.4853 29.9577 22.6305 29.6746 22.9209C29.3952 23.2077 29.2555 23.6084 29.2555 24.1231H28.2353C28.2353 23.3842 28.4724 22.7867 28.9467 22.3309C29.4246 21.875 30.0625 21.647 30.8603 21.647C31.6066 21.647 32.1967 21.8437 32.6305 22.2371C33.0643 22.6268 33.2812 23.147 33.2812 23.7978C33.2812 24.5882 32.7776 25.5294 31.7702 26.6213L29.6195 28.954H33.6507V29.7867Z" fill="#005EC8"/>
<path d="M10.6121 18.421H9.5864V11.6213L7.52942 12.3769V11.4504L10.4522 10.353H10.6121V18.421Z" fill="#005EC8"/>
</svg>
