<svg width="41" height="41" viewBox="0 0 41 41" fill="none" xmlns="http://www.w3.org/2000/svg">
<path d="M23.5 13.6585C23.5 18.759 19.2584 22.9146 14 22.9146C8.74158 22.9146 4.5 18.759 4.5 13.6585C4.5 8.5581 8.74158 4.40244 14 4.40244C19.2584 4.40244 23.5 8.5581 23.5 13.6585Z" stroke="#005EC8"/>
<path d="M27.5 13.6585C27.5 20.9142 21.4676 26.8171 14 26.8171C6.53245 26.8171 0.5 20.9142 0.5 13.6585C0.5 6.40284 6.53245 0.5 14 0.5C21.4676 0.5 27.5 6.40284 27.5 13.6585Z" stroke="#005EC8"/>
<path d="M40 35.0872C39.4848 39.1056 38.3267 40.2585 34.4 39.9537C34.4 39.9537 30.1284 31.6002 25.2 28.349C23.3149 27.1054 20 25.7286 20 25.7286C22.9313 25.0917 24.9983 22.8924 26 20.4878C26 20.4878 27.1727 23.821 28.4 25.7286C31.7358 30.9137 40 35.0872 40 35.0872Z" stroke="#005EC8"/>
<mask id="path-4-inside-1" fill="white">
<path d="M11.004 28.6007L10.7955 30.3201L9.41067 29.2797L11.004 28.6007Z"/>
</mask>
<path d="M11.004 28.6007L11.9968 28.7211L12.2053 27.0016L10.612 27.6807L11.004 28.6007ZM10.7955 30.3201L10.1948 31.1196L11.5796 32.16L11.7882 30.4405L10.7955 30.3201ZM9.41067 29.2797L9.0186 28.3598L7.42522 29.0389L8.81002 30.0793L9.41067 29.2797ZM10.0113 28.4802L9.80274 30.1997L11.7882 30.4405L11.9968 28.7211L10.0113 28.4802ZM11.3961 29.5206L10.0113 28.4802L8.81002 30.0793L10.1948 31.1196L11.3961 29.5206ZM9.80274 30.1997L11.3961 29.5206L10.612 27.6807L9.0186 28.3598L9.80274 30.1997Z" fill="#005EC8" mask="url(#path-4-inside-1)"/>
<path d="M20.1839 35.4854L20.3287 34.6315L20.9958 35.1838L20.1839 35.4854Z" stroke="#005EC8"/>
<path d="M9.41874 13.5995L13.4022 11.9018L12.8807 16.2004L9.41874 13.5995Z" stroke="#005EC8"/>
</svg>
