<svg width="314" height="314" viewBox="0 0 314 314" fill="none" xmlns="http://www.w3.org/2000/svg">
<path d="M282.6 144.768H283.35V144.018V117.851C283.35 112.485 287.701 108.134 293.067 108.134H303.534C308.9 108.134 313.25 112.485 313.25 117.851V201.583C313.25 206.95 308.9 211.302 303.534 211.302H293.067C287.701 211.302 283.35 206.95 283.35 201.583V175.418V174.668H282.6H272.134H271.384V175.418V201.583C271.384 209.841 264.691 216.534 256.433 216.534H245.967H245.963C243.539 216.544 241.184 217.329 239.24 218.776L239.238 218.778L184.81 259.596C181.312 262.209 177.066 263.623 172.699 263.634H62.799C54.5435 263.634 47.8505 256.942 47.8505 248.684V217.284V216.534H47.1005H31.3995H30.6495V217.284V243.451C30.6495 248.818 26.2995 253.168 20.933 253.168H10.4665C5.10007 253.168 0.75 248.818 0.75 243.451V159.717C0.75 154.351 5.10007 150.001 10.4665 150.001H20.933C26.2995 150.001 30.6495 154.351 30.6495 159.717V185.884V186.634H31.3995H47.1005H47.8505V185.884V149.251C47.8505 140.995 54.5435 134.302 62.799 134.302L78.9719 134.302L78.9788 134.302C81.2253 134.281 83.4186 133.619 85.2999 132.388L85.3059 132.384L124.363 106.28C124.364 106.28 124.365 106.279 124.366 106.278C127.708 104.095 131.606 102.924 135.597 102.9H141.299H142.049V102.15V91.6835V90.9335H141.299H115.134C109.768 90.9335 105.417 86.5835 105.417 81.217V75.9858C105.434 61.9538 116.804 50.584 130.833 50.5675H183.167C197.197 50.584 208.566 61.9538 208.583 75.9858V81.217C208.583 86.5835 204.232 90.9335 198.866 90.9335H172.701H171.951V91.6835V102.15V102.9H172.701H256.433C264.691 102.9 271.384 109.593 271.384 117.851V144.018V144.768H272.134H282.6ZM198.866 81.967H199.616V81.217V75.985C199.616 66.8986 192.252 59.534 183.167 59.534H130.833C121.748 59.534 114.384 66.8986 114.384 75.985V81.217V81.967H115.134H198.866ZM151.766 90.9335H151.016V91.6835V102.15V102.9H151.766H162.234H162.984V102.15V91.6835V90.9335H162.234H151.766ZM20.933 244.201H21.683V243.451V159.717V158.967H20.933H10.4665H9.71651V159.717V243.451V244.201H10.4665H20.933ZM30.6495 206.817V207.567H31.3995H47.1005H47.8505V206.817V196.351V195.601H47.1005H31.3995H30.6495V196.351V206.817ZM179.428 252.426L179.43 252.424L233.855 211.606C233.855 211.606 233.856 211.606 233.856 211.605C237.356 208.993 241.602 207.577 245.968 207.567H256.433C259.739 207.567 262.417 204.889 262.417 201.583V117.851C262.417 114.545 259.739 111.867 256.433 111.867L135.595 111.867L135.588 111.867C133.342 111.887 131.148 112.55 129.267 113.781L129.261 113.785L90.2044 139.888C90.2031 139.889 90.2019 139.89 90.2006 139.891C86.859 142.073 82.961 143.245 78.9702 143.268H62.799C59.4957 143.268 56.817 145.947 56.817 149.251V248.684C56.817 251.989 59.4955 254.668 62.799 254.668H172.701H172.704C175.126 254.658 177.483 253.873 179.428 252.426ZM271.384 164.951V165.701H272.134H282.6H283.35V164.951V154.485V153.735H282.6H272.134H271.384V154.485V164.951ZM303.534 202.333H304.284V201.583V117.851V117.101H303.534H293.067H292.317V117.851V201.583V202.333H293.067H303.534Z" fill="#ADADAD" stroke="#ADADAD" stroke-width="1.5"/>
<g clip-path="url(#clip0)">
<path d="M180.525 166.813H176.373V161.277C176.373 150.595 167.683 141.904 157 141.904C146.317 141.904 137.627 150.595 137.627 161.277V166.813H133.475C132.71 166.813 132.091 167.432 132.091 168.196V202.792C132.091 205.845 134.574 208.327 137.627 208.327H176.373C179.426 208.327 181.909 205.845 181.909 202.792V168.196C181.909 167.432 181.29 166.813 180.525 166.813ZM161.143 195.72C161.187 196.111 161.061 196.502 160.799 196.796C160.537 197.089 160.161 197.257 159.768 197.257H154.232C153.839 197.257 153.463 197.089 153.201 196.796C152.939 196.503 152.813 196.111 152.857 195.72L153.73 187.87C152.312 186.839 151.465 185.208 151.465 183.418C151.465 180.366 153.947 177.883 157 177.883C160.053 177.883 162.535 180.366 162.535 183.418C162.535 185.208 161.688 186.839 160.271 187.87L161.143 195.72ZM168.07 166.813H145.929V161.277C145.929 155.173 150.896 150.207 157 150.207C163.104 150.207 168.07 155.173 168.07 161.277V166.813Z" fill="#005EC8"/>
</g>
<path d="M73.2662 175.276C70.3771 175.276 68.0342 177.619 68.0342 180.508V227.609C68.0342 230.5 70.3771 232.843 73.2662 232.843C76.1578 232.843 78.5007 230.5 78.5007 227.609V180.508C78.5007 177.619 76.1578 175.276 73.2662 175.276Z" fill="#ADADAD"/>
<defs>
<clipPath id="clip0">
<rect width="66.4231" height="66.4231" fill="white" transform="translate(123.788 141.904)"/>
</clipPath>
</defs>
</svg>
