<svg width="315" height="315" viewBox="0 0 315 315" fill="none" xmlns="http://www.w3.org/2000/svg">
<g clip-path="url(#clip0)">
<path d="M72.2146 133.159C68.7803 133.159 65.6417 134.896 63.8176 137.811L51.3735 157.722C50.0229 159.88 49.9532 162.608 51.1861 164.836C52.4214 167.064 54.7717 168.448 57.3192 168.448H93.3128C97.1796 168.448 100.323 165.302 100.323 161.438V140.167C100.323 136.302 97.1796 133.156 93.3128 133.156H72.2146V133.159ZM91.1018 159.227H61.3086L71.6402 142.7C71.7652 142.5 71.9791 142.38 72.2146 142.38H91.1018V159.227Z" fill="#ADADAD"/>
<path d="M307.313 66.4455H160.167C157.62 66.4455 155.555 68.5099 155.555 71.0573C155.555 73.6048 157.62 75.6692 160.167 75.6692H305.777V188.764H263.096C262.822 188.764 262.555 188.793 262.295 188.838C258.967 187.601 255.369 186.92 251.615 186.92C237.907 186.92 226.268 195.942 222.317 208.36H114.765V197.985H214.593C217.141 197.985 219.205 195.921 219.205 193.376C219.205 190.828 217.141 188.764 214.593 188.764H114.765V186.332C114.765 183.787 112.7 181.722 110.155 181.722C107.608 181.722 105.544 183.787 105.544 186.332V208.36H87.4543C83.5009 195.942 71.8644 186.92 58.1538 186.92C44.4457 186.92 32.8068 195.942 28.8558 208.36H10.2979C9.70432 208.36 9.22127 207.877 9.22127 207.286V201.734H15.9768C20.3916 201.734 23.982 198.141 23.982 193.729V185.649C23.982 181.234 20.3916 177.644 15.9768 177.644H9.52888C10.173 175.601 11.7976 173.933 13.9124 173.304L39.4542 165.705C40.5212 165.387 41.4368 164.693 42.0328 163.751L63.5563 129.752C63.7534 129.439 64.0947 129.252 64.4648 129.252H105.544V166.152C105.544 168.697 107.608 170.761 110.155 170.761C112.7 170.761 114.765 168.697 114.765 166.152V75.6692H139.876C142.424 75.6692 144.488 73.6048 144.488 71.0573C144.488 68.5099 142.424 66.4455 139.876 66.4455H113.229C108.99 66.4455 105.544 69.8942 105.544 74.1311V120.028H64.4648C60.9128 120.028 57.6612 121.819 55.7626 124.818L35.1643 157.358L11.2833 164.464C4.64068 166.44 0 172.662 0 179.593V207.286C0 212.962 4.61905 217.581 10.2979 217.581H27.4163C27.4163 217.608 27.4139 217.634 27.4139 217.663C27.4139 234.613 41.2037 248.403 58.1538 248.403C75.1064 248.403 88.8962 234.613 88.8962 217.663C88.8962 217.634 88.8938 217.608 88.8938 217.581H220.878C220.878 217.608 220.875 217.634 220.875 217.663C220.875 234.613 234.665 248.403 251.618 248.403C268.568 248.403 282.358 234.613 282.358 217.663C282.358 217.312 282.343 216.966 282.331 216.62C290.887 214.089 297.289 206.81 298.712 197.985H307.316C311.552 197.985 315.001 194.539 315.001 190.299V74.1311C314.999 69.8942 311.55 66.4455 307.313 66.4455V66.4455ZM14.7584 192.51H9.22127V186.865H14.7584V192.51ZM58.1538 239.181C46.289 239.181 36.6351 229.528 36.6351 217.663C36.6351 205.798 46.289 196.144 58.1538 196.144C68.5431 196.144 77.2356 203.544 79.2375 213.349C79.2616 213.645 79.3145 213.933 79.3938 214.209C79.574 215.334 79.6725 216.488 79.6725 217.663C79.6725 229.528 70.0187 239.181 58.1538 239.181ZM251.615 239.181C239.751 239.181 230.097 229.528 230.097 217.663C230.097 205.798 239.751 196.144 251.615 196.144C263.48 196.144 273.134 205.798 273.134 217.663C273.134 229.528 263.48 239.181 251.615 239.181ZM280.613 207.468C279.38 203.976 277.539 200.773 275.213 197.985H289.289C288.097 202.342 284.857 205.889 280.613 207.468Z" fill="#ADADAD" stroke="white" stroke-width="2"/>
<path d="M58.153 201.554C49.2705 201.554 42.0439 208.781 42.0439 217.663C42.0439 226.546 49.2705 233.77 58.153 233.77C67.0354 233.77 74.262 226.546 74.262 217.663C74.262 208.781 67.0354 201.554 58.153 201.554ZM58.153 224.549C54.3558 224.549 51.2677 221.461 51.2677 217.663C51.2677 213.866 54.3558 210.776 58.153 210.776C61.9501 210.776 65.0407 213.866 65.0407 217.663C65.0407 221.461 61.9501 224.549 58.153 224.549Z" fill="#ADADAD"/>
<path d="M251.618 201.554C242.735 201.554 235.511 208.781 235.511 217.663C235.511 226.546 242.735 233.77 251.618 233.77C260.5 233.77 267.727 226.546 267.727 217.663C267.727 208.781 260.5 201.554 251.618 201.554ZM251.618 224.549C247.821 224.549 244.733 221.461 244.733 217.663C244.733 213.866 247.821 210.776 251.618 210.776C255.415 210.776 258.506 213.866 258.506 217.663C258.506 221.461 255.415 224.549 251.618 224.549Z" fill="#ADADAD"/>
<path d="M212.333 133.583L214.667 138.25L219.917 144.667L218.75 153.417L212.333 158.667L203 156.917L199.5 151.083L200.083 142.333L205.917 137.667L207.083 133.583H212.333Z" fill="#FDF415"/>
<path d="M231.064 114.144H224.666C224.057 114.144 223.563 114.638 223.563 115.247C223.563 115.855 224.057 116.349 224.666 116.349H231.064C231.673 116.349 232.167 115.855 232.167 115.247C232.167 114.638 231.673 114.144 231.064 114.144Z" fill="#005EC8" stroke="#005EC8" stroke-width="0.5"/>
<path d="M224.666 107.412H227.571C228.18 107.412 228.673 106.918 228.673 106.309C228.673 105.699 228.18 105.206 227.571 105.206H224.666C224.057 105.206 223.563 105.699 223.563 106.309C223.563 106.918 224.057 107.412 224.666 107.412Z" fill="#005EC8" stroke="#005EC8" stroke-width="0.5"/>
<path d="M224.666 98.4724H228.601C229.209 98.4724 229.703 97.979 229.703 97.3695C229.703 96.7607 229.209 96.2667 228.601 96.2667H224.666C224.057 96.2667 223.563 96.7607 223.563 97.3695C223.563 97.979 224.057 98.4724 224.666 98.4724Z" fill="#005EC8" stroke="#005EC8" stroke-width="0.5"/>
<path d="M228.601 132.021H224.666C224.057 132.021 223.563 132.514 223.563 133.124C223.563 133.732 224.057 134.226 224.666 134.226H228.601C229.209 134.226 229.703 133.732 229.703 133.124C229.703 132.514 229.209 132.021 228.601 132.021Z" fill="#005EC8" stroke="#005EC8" stroke-width="0.5"/>
<path d="M224.666 125.287H227.571C228.18 125.287 228.673 124.794 228.673 124.184C228.673 123.575 228.18 123.081 227.571 123.081H224.666C224.057 123.081 223.563 123.575 223.563 124.184C223.563 124.794 224.057 125.287 224.666 125.287Z" fill="#005EC8" stroke="#005EC8" stroke-width="0.5"/>
<path d="M219.877 135.079V99.498C219.877 93.9975 215.403 89.5223 209.902 89.5223C204.402 89.5223 199.927 93.9975 199.927 99.498V135.079C195.806 138.2 193.363 143.088 193.363 148.271C193.363 157.391 200.782 164.811 209.902 164.811C219.022 164.811 226.442 157.391 226.442 148.271C226.442 143.088 223.999 138.2 219.877 135.079ZM209.902 162.605C201.998 162.605 195.569 156.175 195.569 148.271C195.569 143.612 197.847 139.226 201.664 136.541C201.958 136.334 202.132 135.998 202.132 135.639V99.498C202.132 95.2135 205.618 91.728 209.902 91.728C214.186 91.728 217.672 95.2135 217.672 99.498V135.639C217.672 135.998 217.846 136.334 218.14 136.541C221.957 139.227 224.236 143.612 224.236 148.271C224.236 156.175 217.806 162.605 209.902 162.605Z" fill="#005EC8" stroke="#005EC8" stroke-width="0.5"/>
<path d="M214.729 137.265V99.4985C214.729 96.8361 212.564 94.6706 209.902 94.6706C207.24 94.6706 205.074 96.8361 205.074 99.4985V102.913C205.074 103.522 205.568 104.016 206.177 104.016C206.786 104.016 207.28 103.522 207.28 102.913V99.4985C207.28 98.0527 208.456 96.8763 209.902 96.8763C211.348 96.8763 212.524 98.0527 212.524 99.4985V132.18H207.28V107.335C207.28 106.726 206.786 106.232 206.177 106.232C205.568 106.232 205.074 106.726 205.074 107.335V137.265C200.895 139.148 198.138 143.365 198.138 147.992C198.138 154.478 203.415 159.755 209.901 159.755C216.388 159.755 221.665 154.478 221.665 147.992C221.666 143.365 218.908 139.148 214.729 137.265ZM209.902 157.55C204.631 157.55 200.344 153.262 200.344 147.992C200.344 144.021 202.843 140.422 206.562 139.037C206.994 138.876 207.28 138.463 207.28 138.003V134.386H212.524V138.003C212.524 138.463 212.81 138.876 213.242 139.037C216.961 140.422 219.46 144.021 219.46 147.992C219.46 153.262 215.172 157.55 209.902 157.55Z" fill="#005EC8" stroke="#005EC8" stroke-width="0.5"/>
</g>
<defs>
<clipPath id="clip0">
<rect width="315" height="315" fill="white"/>
</clipPath>
</defs>
</svg>
