<svg width="40" height="40" viewBox="0 0 40 40" fill="none" xmlns="http://www.w3.org/2000/svg">
<ellipse id="hovered" cx="19.6921" cy="22.7693" rx="4.92308" ry="4.92308" fill="#FDF415"/>
<g clip-path="url(#clip0)">
<path d="M38.6667 13.6615H37.3334C36.597 13.6615 36.0001 14.2584 36.0001 14.9948V18.3282H34.6667V14.9948C34.6667 13.8901 33.7714 12.9947 32.6666 12.9947H22.0001V11.6614H25.3333C26.0696 11.6614 26.6666 11.0645 26.6666 10.3281V9.66156C26.6644 7.82135 25.1733 6.33026 23.3334 6.32812H16.6666C14.8267 6.33026 13.3356 7.82135 13.3334 9.66156V10.3281C13.3334 11.0645 13.9304 11.6614 14.6667 11.6614H17.9999V12.9947H17.2733C16.7462 12.9977 16.2314 13.1525 15.7901 13.4409L10.8139 16.7667C10.5896 16.9135 10.3281 16.9925 10.0601 16.9949H7.99988C6.89545 16.9949 6.00006 17.8903 6.00006 18.9948V23.6615H3.99994V20.3281C3.99994 19.5917 3.40302 18.9948 2.66663 18.9948H1.33331C0.596924 18.9948 0 19.5917 0 20.3281V30.9949C0 31.7313 0.596924 32.3282 1.33331 32.3282H2.66663C3.40302 32.3282 3.99994 31.7313 3.99994 30.9949V27.6614H6.00006V31.6614C6.00006 32.7661 6.89545 33.6615 7.99988 33.6615H22.0001C22.5769 33.66 23.1378 33.4732 23.5999 33.1281L30.5334 27.9282C30.7648 27.756 31.0449 27.6627 31.3333 27.6614H32.6666C33.7714 27.6614 34.6667 26.7661 34.6667 25.6613V22.3282H36.0001V25.6613C36.0001 26.3977 36.597 26.9949 37.3334 26.9949H38.6667C39.4031 26.9949 40 26.3977 40 25.6613V14.9948C40 14.2584 39.4031 13.6615 38.6667 13.6615V13.6615ZM14.6667 9.66156C14.6667 8.55682 15.5621 7.66144 16.6666 7.66144H23.3334C24.4379 7.66144 25.3333 8.55682 25.3333 9.66156V10.3281H14.6667V9.66156ZM19.3332 11.6614H20.6668V12.9947H19.3332V11.6614ZM2.66663 30.9949H1.33331V20.3281H2.66663V30.9949ZM3.99994 26.3281V24.9948H6.00006V26.3281H3.99994ZM33.3334 25.6613C33.3334 26.0297 33.035 26.3281 32.6666 26.3281H31.3333C30.7565 26.3293 30.1956 26.5164 29.7333 26.8616L22.8 32.0615C22.5687 32.2336 22.2882 32.327 22.0001 32.3282H7.99988C7.63184 32.3282 7.33337 32.0297 7.33337 31.6614V18.9948C7.33337 18.6267 7.63184 18.3282 7.99988 18.3282H10.0601C10.5872 18.3252 11.102 18.1705 11.5433 17.8821L16.5195 14.5563C16.7438 14.4095 17.0053 14.3304 17.2733 14.328H32.6666C33.035 14.328 33.3334 14.6265 33.3334 14.9948V25.6613ZM34.6667 20.9949V19.6616H36.0001V20.9949H34.6667ZM38.6667 25.6613H37.3334V14.9948H38.6667V25.6613Z" fill="#5B5B5B"/>
<path d="M19.9672 16.875C16.7544 16.875 14.1406 19.4888 14.1406 22.7016C14.1406 25.9143 16.7544 28.5281 19.9672 28.5281C23.18 28.5281 25.7938 25.9143 25.7938 22.7016C25.7938 19.4888 23.18 16.875 19.9672 16.875ZM19.9672 27.2883C17.4381 27.2883 15.3803 25.2308 15.3803 22.7016C15.3803 20.1723 17.4381 18.1148 19.9672 18.1148C22.4963 18.1148 24.5541 20.1723 24.5541 22.7016C24.5541 25.2308 22.4963 27.2883 19.9672 27.2883Z" fill="black"/>
<path d="M23.0038 22.5217H20.3853V19.3733C20.3853 19.1084 20.1705 18.8936 19.9055 18.8936C19.6406 18.8936 19.4258 19.1084 19.4258 19.3733V23.0014C19.4258 23.2664 19.6406 23.4812 19.9055 23.4812H23.0038C23.2687 23.4812 23.4835 23.2664 23.4835 23.0014C23.4835 22.7365 23.2687 22.5217 23.0038 22.5217Z" fill="black"/>
<path d="M9.33301 22.3281C8.96497 22.3281 8.6665 22.6266 8.6665 22.9946V28.9947C8.6665 29.363 8.96497 29.6615 9.33301 29.6615C9.70136 29.6615 9.99982 29.363 9.99982 28.9947V22.9946C9.99982 22.6266 9.70136 22.3281 9.33301 22.3281Z" fill="#5B5B5B"/>
</g>
<defs>
<clipPath id="clip0">
<rect width="40" height="40" fill="white"/>
</clipPath>
</defs>
</svg>
