<svg width="40" height="40" viewBox="0 0 40 40" fill="none" xmlns="http://www.w3.org/2000/svg">
<path id="hovered" d="M5.23069 11.3845L7.99993 16.3076L8.61531 19.9999L6.76916 21.8461L2.46146 21.5384L0.307617 18.1538L3.07685 11.9999L5.23069 11.3845Z" fill="#FDF415"/>
<g clip-path="url(#clip0)">
<path d="M23.5704 35.1187C23.6403 35.5849 23.9237 35.9916 24.3368 36.2183C24.75 36.4453 25.2452 36.4664 25.676 36.2751L32.0513 33.4589C32.3671 33.3198 32.5242 32.9628 32.4138 32.6357L29.2147 23.1305C28.7027 21.6309 27.1765 20.7265 25.6153 20.9975L24.6154 21.1769C22.9031 21.4756 21.7461 23.0921 22.0161 24.8096L23.5704 35.1187ZM25.1381 35.0552C25.0874 35.079 25.0285 35.0766 24.98 35.0485C24.9297 35.022 24.8952 34.9723 24.8882 34.9155L23.3297 24.6149C23.2976 24.3931 23.3052 24.1673 23.3525 23.9482L24.4796 24.8388C25.0239 25.2633 25.4301 25.8399 25.6461 26.4959L28.0888 33.7555L25.1381 35.0552ZM24.8476 22.4941L25.8471 22.3147C25.9545 22.2954 26.0635 22.286 26.1727 22.286C26.9754 22.2881 27.6888 22.7989 27.9494 23.5583L30.9563 32.4899L29.312 33.2157L26.9089 26.0752C26.6111 25.1726 26.0522 24.3787 25.3028 23.7944L24.0808 22.8279C24.3078 22.66 24.5699 22.5459 24.8476 22.4941V22.4941Z" fill="#5B5B5B"/>
<path d="M1.70919 6.33126L11.6623 9.264C11.7968 9.30397 11.9219 9.37079 12.0296 9.46049L15.5403 12.3853L16.1062 12.8585L20.693 36.6997C20.9249 37.9116 21.6968 38.9518 22.79 39.5242C23.8833 40.0962 25.1778 40.1383 26.3058 39.6383L32.7013 36.8129C33.3244 37.551 34.3523 37.803 35.2463 37.4369L38.6196 36.0532C39.7555 35.5876 40.2989 34.2896 39.8339 33.1537L33.6905 18.1574L34.1463 17.6308C34.9967 16.6459 34.8896 15.1588 33.9071 14.3057L26.8779 8.21563C26.4047 7.80587 25.7881 7.60114 25.1641 7.64629C24.5399 7.69145 23.9592 7.98283 23.5498 8.45606L22.4129 9.7711L19.8579 7.64233H19.8539L15.1216 3.79302C14.8791 3.59531 14.5993 3.44825 14.2991 3.36037L3.51729 0.182626C2.26877 -0.184119 0.958919 0.529845 0.590648 1.77806L0.113451 3.39851C-0.0647344 3.99898 0.00361079 4.64551 0.302926 5.19593C0.602242 5.74605 1.10812 6.1546 1.70919 6.33126V6.33126ZM22.9932 11.1407L24.5585 9.33051C24.7364 9.12487 24.9887 8.99825 25.2602 8.97841C25.5315 8.95889 25.7997 9.04798 26.0053 9.22586L33.0345 15.3135C33.4617 15.6842 33.508 16.3304 33.1385 16.7585L32.4148 17.5954C32.2501 17.7855 32.2061 18.0522 32.3013 18.2847L38.6007 33.6556C38.7868 34.1099 38.5692 34.6292 38.1149 34.8154L34.7404 36.1984C34.5219 36.2878 34.2769 36.2869 34.0591 36.1957C33.8415 36.1045 33.6691 35.9302 33.5797 35.7118C33.5117 35.5452 33.3793 35.4131 33.2121 35.3456C33.0452 35.2782 32.8581 35.281 32.6934 35.3539L25.7673 38.4139C25.0106 38.7483 24.1429 38.7193 23.4103 38.3354C22.6774 37.9516 22.1597 37.2547 22.0035 36.4422L17.3718 12.3679C17.3426 12.2169 17.262 12.0805 17.1439 11.9819L16.9346 11.8074L19.4881 9.06934L22.0636 11.2143C22.3424 11.4462 22.7559 11.4123 22.9932 11.1383V11.1407ZM1.39187 3.77716L1.86785 2.15548C1.94443 1.89431 2.12201 1.67463 2.36091 1.54434C2.59981 1.41437 2.88052 1.38447 3.14139 1.46166L13.9164 4.63361C14.047 4.67205 14.1685 4.73582 14.2737 4.82156L18.4568 8.22082L15.9094 10.9537L12.8827 8.43074C12.6356 8.22418 12.3488 8.0707 12.0397 7.98009L2.08509 5.04948C1.54229 4.88929 1.2323 4.31995 1.39187 3.77716Z" fill="#5B5B5B"/>
<path d="M4.66694 22.9944C5.91272 23.0224 7.11578 22.54 7.99694 21.6589C8.87811 20.7777 9.3608 19.5746 9.33242 18.3286C9.33242 16.2038 6.75025 12.3667 5.67382 11.1248C5.41386 10.8448 5.04894 10.6858 4.66694 10.6858C4.28464 10.6858 3.91972 10.8448 3.65977 11.1248C2.58333 12.3667 0.00116005 16.2038 0.00116005 18.3286C-0.0269103 19.5746 0.455473 20.7777 1.33664 21.6589C2.2178 22.54 3.42086 23.0224 4.66694 22.9944ZM4.66694 11.9966C5.84254 13.3525 7.99938 16.7856 7.99938 18.3286C8.0302 19.2216 7.68908 20.0872 7.0572 20.7191C6.42561 21.351 5.5597 21.6921 4.66694 21.6613C3.77388 21.6921 2.90827 21.351 2.27639 20.7191C1.6445 20.0872 1.30338 19.2216 1.3342 18.3286C1.3342 16.7862 3.49165 13.3531 4.66694 11.9966V11.9966Z" fill="#5B5B5B"/>
<path d="M19.1102 12.5171C18.9387 12.5611 18.7913 12.6712 18.701 12.8235C18.6107 12.976 18.5848 13.1582 18.629 13.3296L18.9622 14.6349C19.0379 14.9296 19.3033 15.1359 19.6075 15.1362C19.6633 15.1365 19.7189 15.1295 19.7729 15.1155C20.1296 15.0245 20.345 14.6615 20.254 14.3048L19.9209 12.9992C19.8772 12.8277 19.7674 12.6807 19.6154 12.5904C19.4635 12.5 19.2816 12.4735 19.1102 12.5171V12.5171Z" fill="#5B5B5B"/>
<path d="M19.6809 16.8158L20.6255 20.8149C20.6966 21.1154 20.9651 21.3281 21.2739 21.3281C21.3257 21.3284 21.377 21.3223 21.4273 21.3101C21.7849 21.2259 22.007 20.868 21.9237 20.5101L20.9794 16.511C20.9245 16.2791 20.7503 16.0939 20.5221 16.0256C20.2938 15.9569 20.0464 16.0155 19.8728 16.1787C19.6995 16.3423 19.6263 16.5857 19.6809 16.8176V16.8158Z" fill="#5B5B5B"/>
</g>
<defs>
<clipPath id="clip0">
<rect width="40" height="40" fill="white"/>
</clipPath>
</defs>
</svg>
