<svg width="54" height="72" viewBox="0 0 54 72" fill="none" xmlns="http://www.w3.org/2000/svg">
<g filter="url(#filter0_d)">
<path fill-rule="evenodd" clip-rule="evenodd" d="M19.3028 0C17.6562 0 16.3214 1.3348 16.3214 2.98137C16.3214 3.04815 16.3236 3.11443 16.3279 3.18012H14C8.47715 3.18012 4 7.65729 4 13.1801V54C4 59.5229 8.47715 64 14 64H40C45.5228 64 50 59.5228 50 54V13.1801C50 7.65728 45.5228 3.18012 40 3.18012H38.0828C38.0871 3.11443 38.0893 3.04815 38.0893 2.98137C38.0893 1.3348 36.7545 0 35.1079 0H19.3028ZM17.726 8.74534C17.1771 8.74534 16.7322 9.19028 16.7322 9.73913C16.7322 10.288 17.1771 10.7329 17.726 10.7329H44.4884C45.0372 10.7329 45.4822 10.288 45.4822 9.73913C45.4822 9.19028 45.0372 8.74534 44.4884 8.74534H17.726ZM17.726 15.1056C17.1772 15.1056 16.7322 15.5505 16.7322 16.0994C16.7322 16.6482 17.1772 17.0932 17.726 17.0932H36.2742C36.823 17.0932 37.2679 16.6482 37.2679 16.0994C37.2679 15.5505 36.823 15.1056 36.2742 15.1056H17.726ZM16.7322 12.9193C16.7322 12.3704 17.1772 11.9255 17.726 11.9255H44.4884C45.0373 11.9255 45.4822 12.3704 45.4822 12.9193C45.4822 13.4681 45.0373 13.913 44.4884 13.913H17.726C17.1772 13.913 16.7322 13.4681 16.7322 12.9193ZM17.726 19.0807C17.1772 19.0807 16.7322 19.5257 16.7322 20.0745C16.7322 20.6234 17.1772 21.0683 17.726 21.0683H44.4884C45.0373 21.0683 45.4822 20.6234 45.4822 20.0745C45.4822 19.5257 45.0373 19.0807 44.4884 19.0807H17.726ZM17.7261 25.441C17.1772 25.441 16.7323 25.8859 16.7323 26.4348C16.7323 26.9836 17.1772 27.4286 17.7261 27.4286H36.2742C36.8231 27.4286 37.268 26.9836 37.268 26.4348C37.268 25.8859 36.8231 25.441 36.2742 25.441H17.7261ZM16.7323 23.2546C16.7323 22.7058 17.1772 22.2609 17.7261 22.2609H44.4885C45.0373 22.2609 45.4823 22.7058 45.4823 23.2546C45.4823 23.8035 45.0373 24.2484 44.4885 24.2484H17.7261C17.1772 24.2484 16.7323 23.8035 16.7323 23.2546ZM16.7322 51.0807C16.7322 50.5319 17.1772 50.087 17.726 50.087H44.4884C45.0373 50.087 45.4822 50.5319 45.4822 51.0807C45.4822 51.6296 45.0373 52.0745 44.4884 52.0745H17.726C17.1772 52.0745 16.7322 51.6296 16.7322 51.0807ZM16.7323 57.441C16.7323 56.8921 17.1772 56.4472 17.7261 56.4472H36.2742C36.8231 56.4472 37.268 56.8921 37.268 57.441C37.268 57.9898 36.8231 58.4348 36.2742 58.4348H17.7261C17.1772 58.4348 16.7323 57.9898 16.7323 57.441ZM17.7261 53.2671C17.1772 53.2671 16.7323 53.712 16.7323 54.2609C16.7323 54.8097 17.1772 55.2547 17.7261 55.2547H44.4885C45.0373 55.2547 45.4823 54.8097 45.4823 54.2609C45.4823 53.712 45.0373 53.2671 44.4885 53.2671H17.7261ZM17.726 39.7515C17.1772 39.7515 16.7322 40.1965 16.7322 40.7453C16.7322 41.2942 17.1772 41.7391 17.726 41.7391H44.4884C45.0373 41.7391 45.4822 41.2942 45.4822 40.7453C45.4822 40.1965 45.0373 39.7515 44.4884 39.7515H17.726ZM17.7261 46.1118C17.1772 46.1118 16.7323 46.5567 16.7323 47.1056C16.7323 47.6544 17.1772 48.0994 17.7261 48.0994H36.2742C36.8231 48.0994 37.268 47.6544 37.268 47.1056C37.268 46.5567 36.8231 46.1118 36.2742 46.1118H17.7261ZM16.7323 43.9255C16.7323 43.3766 17.1772 42.9317 17.7261 42.9317H44.4885C45.0373 42.9317 45.4823 43.3766 45.4823 43.9255C45.4823 44.4743 45.0373 44.9192 44.4885 44.9192H17.7261C17.1772 44.9192 16.7323 44.4743 16.7323 43.9255ZM16.7322 30.4099C16.7322 29.8611 17.1772 29.4161 17.726 29.4161H44.4884C45.0373 29.4161 45.4822 29.8611 45.4822 30.4099C45.4822 30.9588 45.0373 31.4037 44.4884 31.4037H17.726C17.1772 31.4037 16.7322 30.9588 16.7322 30.4099ZM16.7323 36.7702C16.7323 36.2213 17.1772 35.7764 17.7261 35.7764H36.2742C36.8231 35.7764 37.268 36.2213 37.268 36.7702C37.268 37.319 36.8231 37.764 36.2742 37.764H17.7261C17.1772 37.764 16.7323 37.319 16.7323 36.7702ZM17.7261 32.5963C17.1772 32.5963 16.7323 33.0412 16.7323 33.5901C16.7323 34.1389 17.1772 34.5838 17.7261 34.5838H44.4885C45.0373 34.5838 45.4823 34.1389 45.4823 33.5901C45.4823 33.0412 45.0373 32.5963 44.4885 32.5963H17.7261ZM11.3005 8.74535C9.76373 8.74535 8.51791 9.99116 8.51791 11.528C8.51791 13.0647 9.76373 14.3106 11.3005 14.3106H11.4853C13.0221 14.3106 14.2679 13.0647 14.2679 11.528C14.2679 9.99116 13.0221 8.74535 11.4853 8.74535H11.3005ZM11.3005 39.7516C9.76367 39.7516 8.51786 40.9974 8.51786 42.5342C8.51786 44.071 9.76367 45.3168 11.3005 45.3168H11.4852C13.022 45.3168 14.2679 44.071 14.2679 42.5342C14.2679 40.9974 13.022 39.7516 11.4852 39.7516H11.3005ZM8.51786 52.8696C8.51786 51.3328 9.76367 50.087 11.3005 50.087H11.4852C13.022 50.087 14.2679 51.3328 14.2679 52.8696C14.2679 54.4064 13.022 55.6522 11.4852 55.6522H11.3005C9.76367 55.6522 8.51786 54.4064 8.51786 52.8696ZM11.3005 29.4161C9.76367 29.4161 8.51786 30.662 8.51786 32.1988C8.51786 33.7355 9.76367 34.9814 11.3005 34.9814H11.4852C13.022 34.9814 14.2679 33.7355 14.2679 32.1988C14.2679 30.662 13.022 29.4161 11.4852 29.4161H11.3005ZM8.51786 21.8634C8.51786 20.3266 9.76367 19.0807 11.3005 19.0807H11.4852C13.022 19.0807 14.2679 20.3266 14.2679 21.8634C14.2679 23.4001 13.022 24.646 11.4852 24.646H11.3005C9.76367 24.646 8.51786 23.4001 8.51786 21.8634ZM11.3401 9.93789C10.4619 9.93789 9.75 10.6498 9.75 11.528C9.75 12.4061 10.4619 13.118 11.3401 13.118H11.4457C12.3238 13.118 13.0357 12.4061 13.0357 11.528C13.0357 10.6498 12.3238 9.93789 11.4457 9.93789H11.3401ZM9.75 42.5342C9.75 41.656 10.4619 40.9441 11.3401 40.9441H11.4457C12.3238 40.9441 13.0357 41.656 13.0357 42.5342C13.0357 43.4123 12.3238 44.1242 11.4457 44.1242H11.3401C10.4619 44.1242 9.75 43.4123 9.75 42.5342ZM11.3401 20.2733C10.4619 20.2733 9.75 20.9852 9.75 21.8634C9.75 22.7415 10.4619 23.4534 11.3401 23.4534H11.4457C12.3238 23.4534 13.0357 22.7415 13.0357 21.8634C13.0357 20.9852 12.3238 20.2733 11.4457 20.2733H11.3401Z" fill="white"/>
</g>
<defs>
<filter id="filter0_d" x="0" y="0" width="54" height="72" filterUnits="userSpaceOnUse" color-interpolation-filters="sRGB">
<feFlood flood-opacity="0" result="BackgroundImageFix"/>
<feColorMatrix in="SourceAlpha" type="matrix" values="0 0 0 0 0 0 0 0 0 0 0 0 0 0 0 0 0 0 127 0"/>
<feOffset dy="4"/>
<feGaussianBlur stdDeviation="2"/>
<feColorMatrix type="matrix" values="0 0 0 0 0 0 0 0 0 0 0 0 0 0 0 0 0 0 0.25 0"/>
<feBlend mode="normal" in2="BackgroundImageFix" result="effect1_dropShadow"/>
<feBlend mode="normal" in="SourceGraphic" in2="effect1_dropShadow" result="shape"/>
</filter>
</defs>
</svg>
