<svg width="40" height="40" viewBox="0 0 40 40" fill="none" xmlns="http://www.w3.org/2000/svg">
<path d="M18.7871 36.728C15.6642 36.728 13.123 34.1871 13.123 31.064C13.123 28.6924 14.597 26.5809 16.8083 25.757V5.30011C16.8083 4.2088 17.6961 3.32104 18.7871 3.32104C19.8784 3.32104 20.7662 4.2088 20.7662 5.30011V25.757C22.9775 26.5809 24.4512 28.6924 24.4512 31.064C24.4512 34.1871 21.9106 36.728 18.7871 36.728Z" fill="white"/>
<path d="M30.0302 13.0811H26.6309C26.3074 13.0811 26.0449 13.3435 26.0449 13.667C26.0449 13.9905 26.3074 14.2529 26.6309 14.2529H30.0302C30.3537 14.2529 30.6161 13.9905 30.6161 13.667C30.6161 13.3435 30.3537 13.0811 30.0302 13.0811Z" fill="#5B5B5B"/>
<path d="M26.6309 9.50391H28.1741C28.4979 9.50391 28.7601 9.24146 28.7601 8.91797C28.7601 8.59418 28.4979 8.33203 28.1741 8.33203H26.6309C26.3074 8.33203 26.0449 8.59418 26.0449 8.91797C26.0449 9.24146 26.3074 9.50391 26.6309 9.50391Z" fill="#5B5B5B"/>
<path d="M26.6309 4.75513H28.7213C29.0448 4.75513 29.3073 4.49298 29.3073 4.16919C29.3073 3.8457 29.0448 3.58325 28.7213 3.58325H26.6309C26.3074 3.58325 26.0449 3.8457 26.0449 4.16919C26.0449 4.49298 26.3074 4.75513 26.6309 4.75513Z" fill="#5B5B5B"/>
<path d="M28.7213 22.5791H26.6309C26.3074 22.5791 26.0449 22.8412 26.0449 23.165C26.0449 23.4885 26.3074 23.751 26.6309 23.751H28.7213C29.0448 23.751 29.3073 23.4885 29.3073 23.165C29.3073 22.8412 29.0448 22.5791 28.7213 22.5791Z" fill="#5B5B5B"/>
<path d="M26.6309 19.0017H28.1741C28.4979 19.0017 28.7601 18.7396 28.7601 18.4158C28.7601 18.0923 28.4979 17.8298 28.1741 17.8298H26.6309C26.3074 17.8298 26.0449 18.0923 26.0449 18.4158C26.0449 18.7396 26.3074 19.0017 26.6309 19.0017Z" fill="#5B5B5B"/>
<path d="M24.0869 24.2035V5.29999C24.0869 2.37762 21.7096 0 18.7872 0C15.8649 0 13.4872 2.37762 13.4872 5.29999V24.2035C11.2979 25.8618 10 28.4589 10 31.2128C10 36.058 13.942 40 18.7872 40C23.6325 40 27.5745 36.058 27.5745 31.2128C27.5745 28.4589 26.2766 25.8618 24.0869 24.2035ZM18.7872 38.8281C14.588 38.8281 11.1719 35.412 11.1719 31.2128C11.1719 28.7372 12.3825 26.4072 14.4104 24.9805C14.5663 24.8706 14.6591 24.6918 14.6591 24.501V5.29999C14.6591 3.02368 16.5109 1.17188 18.7872 1.17188C21.0632 1.17188 22.915 3.02368 22.915 5.29999V24.501C22.915 24.6918 23.0078 24.8706 23.1638 24.9805C25.192 26.4075 26.4026 28.7372 26.4026 31.2128C26.4026 35.412 22.9861 38.8281 18.7872 38.8281Z" fill="#5B5B5B"/>
<path d="M21.3518 25.3648V5.30011C21.3518 3.88562 20.2013 2.73511 18.7871 2.73511C17.3729 2.73511 16.2221 3.88562 16.2221 5.30011V7.11438C16.2221 7.43787 16.4846 7.70032 16.808 7.70032C17.1318 7.70032 17.394 7.43787 17.394 7.11438V5.30011C17.394 4.53198 18.019 3.90698 18.7871 3.90698C19.5552 3.90698 20.1799 4.53198 20.1799 5.30011V22.6637H17.394V9.46362C17.394 9.13983 17.1318 8.87769 16.808 8.87769C16.4846 8.87769 16.2221 9.13983 16.2221 9.46362V25.3648C14.002 26.3655 12.5371 28.6058 12.5371 31.064C12.5371 34.5103 15.3408 37.314 18.7868 37.314C22.2332 37.314 25.0368 34.5103 25.0368 31.064C25.0371 28.6058 23.572 26.3655 21.3518 25.3648ZM18.7871 36.1421C15.9868 36.1421 13.709 33.8643 13.709 31.064C13.709 28.9546 15.0365 27.0424 17.0128 26.3063C17.242 26.2208 17.3943 26.0017 17.3943 25.7573V23.8356H20.1799V25.7573C20.1799 26.0017 20.3322 26.2208 20.5614 26.3063C22.5377 27.0424 23.8652 28.9543 23.8652 31.064C23.8652 33.8643 21.5871 36.1421 18.7871 36.1421Z" fill="#5B5B5B"/>
</svg>
