<svg width="50" height="72" viewBox="0 0 50 72" fill="none" xmlns="http://www.w3.org/2000/svg">
<g filter="url(#filter0_d)">
<path fill-rule="evenodd" clip-rule="evenodd" d="M46 20.3956C46 31.6598 27.1724 64 25 64C22.8276 64 4 31.6598 4 20.3956C4 9.13142 13.402 0 25 0C36.598 0 46 9.13142 46 20.3956ZM37.3103 20.044C37.3103 26.8413 31.6367 32.3516 24.6379 32.3516C17.6392 32.3516 11.9655 26.8413 11.9655 20.044C11.9655 13.2466 17.6392 7.73626 24.6379 7.73626C31.6367 7.73626 37.3103 13.2466 37.3103 20.044ZM25 27.4286C29.3992 27.4286 32.9655 23.9649 32.9655 19.6923C32.9655 15.4197 29.3992 11.956 25 11.956C20.6008 11.956 17.0345 15.4197 17.0345 19.6923C17.0345 23.9649 20.6008 27.4286 25 27.4286Z" fill="white"/>
</g>
<defs>
<filter id="filter0_d" x="0" y="0" width="50" height="72" filterUnits="userSpaceOnUse" color-interpolation-filters="sRGB">
<feFlood flood-opacity="0" result="BackgroundImageFix"/>
<feColorMatrix in="SourceAlpha" type="matrix" values="0 0 0 0 0 0 0 0 0 0 0 0 0 0 0 0 0 0 127 0"/>
<feOffset dy="4"/>
<feGaussianBlur stdDeviation="2"/>
<feColorMatrix type="matrix" values="0 0 0 0 0 0 0 0 0 0 0 0 0 0 0 0 0 0 0.25 0"/>
<feBlend mode="normal" in2="BackgroundImageFix" result="effect1_dropShadow"/>
<feBlend mode="normal" in="SourceGraphic" in2="effect1_dropShadow" result="shape"/>
</filter>
</defs>
</svg>
