<svg width="40" height="40" viewBox="0 0 40 40" fill="none" xmlns="http://www.w3.org/2000/svg">
<path d="M17.231 23.3847L20.3079 22.7693H21.8463L23.6925 25.8462L21.5386 28.9231L21.231 34.7693H18.7694V29.8462L17.231 28.3077V23.3847Z" fill="#FDF415"/>
<path d="M31.7188 15.3912V11.7188C31.7188 5.25696 26.4618 0 20 0C13.5382 0 8.28125 5.25696 8.28125 11.7188V15.3912C6.50024 15.7541 5.15625 17.3325 5.15625 19.2188V23.6539C5.15625 24.0854 5.50598 24.4351 5.9375 24.4351C6.36902 24.4351 6.71875 24.0854 6.71875 23.6539V19.2188C6.71875 17.9263 7.77008 16.875 9.0625 16.875H30.9375C32.2299 16.875 33.2812 17.9263 33.2812 19.2188V36.0938C33.2812 37.1121 32.6282 37.9807 31.7188 38.3032V33.5938C31.7188 33.1622 31.369 32.8125 30.9375 32.8125C30.506 32.8125 30.1562 33.1622 30.1562 33.5938V38.4375H9.0625C7.77008 38.4375 6.71875 37.3862 6.71875 36.0938V29.9219C6.71875 29.4904 6.36902 29.1406 5.9375 29.1406C5.50598 29.1406 5.15625 29.4904 5.15625 29.9219V36.0938C5.15625 38.2477 6.90857 40 9.0625 40H30.9375C33.0914 40 34.8438 38.2477 34.8438 36.0938V19.2188C34.8438 17.3325 33.4998 15.7541 31.7188 15.3912ZM14.0625 15.3125V11.7188C14.0625 8.44482 16.7261 5.78125 20 5.78125C23.2739 5.78125 25.9375 8.44482 25.9375 11.7188V15.3125H14.0625ZM27.5 15.3125V11.7188C27.5 7.58331 24.1354 4.21875 20 4.21875C15.8646 4.21875 12.5 7.58331 12.5 11.7188V15.3125H9.84375V11.7188C9.84375 6.11847 14.3997 1.5625 20 1.5625C25.6003 1.5625 30.1562 6.11847 30.1562 11.7188V15.3125H27.5Z" fill="#5B5B5B"/>
<path d="M5.9375 27.5381C6.14288 27.5381 6.3446 27.4548 6.48987 27.3092C6.63513 27.1639 6.71875 26.9625 6.71875 26.7568C6.71875 26.5515 6.63513 26.3497 6.48987 26.2048C6.3446 26.0592 6.14288 25.9756 5.9375 25.9756C5.73212 25.9756 5.5304 26.0592 5.38513 26.2048C5.23987 26.3497 5.15625 26.5515 5.15625 26.7568C5.15625 26.9625 5.23987 27.1639 5.38513 27.3092C5.5304 27.4548 5.73212 27.5381 5.9375 27.5381Z" fill="#5B5B5B"/>
<path d="M20.0002 35.7814C21.2926 35.7814 22.3439 34.73 22.3439 33.4376V29.2891C23.5176 28.5121 24.229 27.2059 24.229 25.7747C24.229 23.4486 22.3363 21.5559 20.0103 21.5559C17.6839 21.5559 15.7915 23.4486 15.7915 25.7747C15.7915 27.1956 16.4949 28.4968 17.6564 29.2756V33.4376C17.6564 34.73 18.7078 35.7814 20.0002 35.7814ZM17.354 25.7747C17.354 24.3098 18.5454 23.1184 20.0103 23.1184C21.4748 23.1184 22.6665 24.3098 22.6665 25.7747C22.6665 26.7805 22.108 27.6884 21.2093 28.1447C20.9468 28.2777 20.7814 28.5469 20.7814 28.8414V33.4376C20.7814 33.8685 20.4311 34.2189 20.0002 34.2189C19.5693 34.2189 19.2189 33.8685 19.2189 33.4376V28.831C19.2189 28.5386 19.0557 28.2707 18.7957 28.1367C17.9064 27.6783 17.354 26.7732 17.354 25.7747Z" fill="#5B5B5B"/>
<path d="M30.9375 31.1719C31.1438 31.1719 31.3446 31.0883 31.4899 30.943C31.6351 30.7977 31.7188 30.5969 31.7188 30.3906C31.7188 30.1843 31.6351 29.9835 31.4899 29.8383C31.3446 29.693 31.1438 29.6094 30.9375 29.6094C30.7321 29.6094 30.5304 29.693 30.3851 29.8383C30.2399 29.9835 30.1562 30.1852 30.1562 30.3906C30.1562 30.596 30.2399 30.7977 30.3851 30.943C30.5304 31.0883 30.7321 31.1719 30.9375 31.1719Z" fill="#5B5B5B"/>
</svg>
