<svg width="59" height="50" viewBox="0 0 59 50" fill="none" xmlns="http://www.w3.org/2000/svg">
<g filter="url(#filter0_d)">
<path fill-rule="evenodd" clip-rule="evenodd" d="M29.5 41C40.8218 41 50 31.8218 50 20.5C50 9.17816 40.8218 0 29.5 0C18.1782 0 9 9.17816 9 20.5C9 31.8218 18.1782 41 29.5 41ZM8.78981 9.43842C10.6904 5.93649 13.3998 3.31865 16.4997 1.91046L15.6725 0.0895389C12.1215 1.70268 9.10952 4.65657 7.03202 8.4844C4.95455 12.3122 3.90221 16.8435 4.00715 21.4366C4.11208 26.0296 5.36966 30.4816 7.62186 34.1597C9.87441 37.8384 13.0227 40.5776 16.6491 41.9364L17.3509 40.0636C14.1993 38.8827 11.3812 36.4693 9.3275 33.1153C7.27344 29.7608 6.10412 25.6581 6.00663 21.3909C5.90914 17.1238 6.88916 12.9404 8.78981 9.43842ZM42.5003 1.91046C45.6002 3.31865 48.3096 5.93649 50.2102 9.43842C52.1108 12.9404 53.0909 17.1238 52.9934 21.3909C52.8959 25.6581 51.7266 29.7608 49.6725 33.1153C47.6188 36.4693 44.8007 38.8827 41.6491 40.0636L42.3509 41.9364C45.9773 40.5776 49.1256 37.8384 51.3781 34.1597C53.6303 30.4816 54.8879 26.0296 54.9928 21.4366C55.0978 16.8435 54.0454 12.3122 51.968 8.4844C49.8905 4.65657 46.8785 1.70268 43.3275 0.0895389L42.5003 1.91046ZM25.0106 11.4792C24.8917 10.0632 25.7825 8.75797 27.1445 8.35268L27.9109 8.12461C28.4693 7.95847 29.0639 7.95847 29.6222 8.12461L30.3887 8.35268C31.7507 8.75797 32.6415 10.0632 32.5225 11.4792L31.3416 25.5355C31.2291 26.874 30.1099 27.9032 28.7666 27.9032C27.4233 27.9032 26.304 26.874 26.1915 25.5355L25.0106 11.4792ZM31.1427 32.6169C31.1427 33.9186 30.0788 34.9738 28.7666 34.9738C27.4543 34.9738 26.3905 33.9186 26.3905 32.6169C26.3905 31.3153 27.4543 30.2601 28.7666 30.2601C30.0788 30.2601 31.1427 31.3153 31.1427 32.6169Z" fill="white"/>
</g>
<defs>
<filter id="filter0_d" x="0" y="0" width="59" height="49.9364" filterUnits="userSpaceOnUse" color-interpolation-filters="sRGB">
<feFlood flood-opacity="0" result="BackgroundImageFix"/>
<feColorMatrix in="SourceAlpha" type="matrix" values="0 0 0 0 0 0 0 0 0 0 0 0 0 0 0 0 0 0 127 0"/>
<feOffset dy="4"/>
<feGaussianBlur stdDeviation="2"/>
<feColorMatrix type="matrix" values="0 0 0 0 0 0 0 0 0 0 0 0 0 0 0 0 0 0 0.25 0"/>
<feBlend mode="normal" in2="BackgroundImageFix" result="effect1_dropShadow"/>
<feBlend mode="normal" in="SourceGraphic" in2="effect1_dropShadow" result="shape"/>
</filter>
</defs>
</svg>
