<svg width="80" height="80" viewBox="0 0 80 80" fill="none" xmlns="http://www.w3.org/2000/svg">
<rect id="hovered" y="59" width="80" height="5" rx="2.5" fill="#FDF415"/>
<path d="M27.6342 40.9189H24.5592C23.9141 40.9189 23.3916 41.4414 23.3916 42.0859C23.3916 42.7305 23.9141 43.2535 24.5592 43.2535H27.6342C28.2787 43.2535 28.8011 42.7305 28.8011 42.0859C28.8011 41.4414 28.2787 40.9189 27.6342 40.9189Z" fill="#005EC8"/>
<path d="M69.5599 16.5625H16.6016C14.7272 16.5625 13.045 17.6056 12.2113 19.2841L3.59619 36.6333C3.2074 37.4152 3.00232 38.2904 3.00232 39.1632V39.7784C1.27197 40.2686 0 41.861 0 43.7463V48.8824C0 50.7678 1.27197 52.3608 3.00232 52.851V54.2004C3.00232 55.874 4.36401 57.2351 6.0376 57.2351H12.6361C13.2611 60.672 16.2744 63.2867 19.8889 63.2867C23.504 63.2867 26.5173 60.672 27.1423 57.2351H57.1045C57.7301 60.672 60.7434 63.2867 64.3579 63.2867C67.9724 63.2867 70.9857 60.672 71.6113 57.2351H76.9647C78.6383 57.2351 80 55.874 80 54.2004V27.0026C80 21.2463 75.3168 16.5625 69.5599 16.5625V16.5625ZM3.00232 50.2753C2.59583 49.9463 2.33459 49.4446 2.33459 48.8824V43.7463C2.33459 43.1842 2.59583 42.6825 3.00232 42.3541V50.2753ZM19.8895 60.9521C17.1106 60.9521 14.8492 58.6914 14.8492 55.9125C14.8492 53.1335 17.1106 50.8728 19.8895 50.8728C22.6685 50.8728 24.9292 53.1335 24.9292 55.9125C24.9292 58.6914 22.6685 60.9521 19.8895 60.9521ZM64.3579 60.9521C61.579 60.9521 59.3182 58.6914 59.3182 55.9125C59.3182 53.1335 61.579 50.8728 64.3579 50.8728C67.1368 50.8728 69.3976 53.1335 69.3976 55.9125C69.3976 58.6914 67.1368 60.9521 64.3579 60.9521ZM77.6654 35.5182H69.5795C68.9349 35.5182 68.4125 36.0413 68.4125 36.6858C68.4125 37.3303 68.9349 37.8534 69.5795 37.8534H77.6654V54.2004C77.6654 54.5868 77.3511 54.9005 76.9647 54.9005H71.6614C71.1664 51.3116 68.0811 48.5382 64.3579 48.5382C60.6348 48.5382 57.5494 51.3116 57.0544 54.9005H27.193C26.698 51.3116 23.6121 48.5382 19.8895 48.5382C16.1664 48.5382 13.0811 51.3116 12.5861 54.9005H6.0376C5.65125 54.9005 5.33691 54.5868 5.33691 54.2004V39.1632C5.33691 38.7152 5.42908 38.266 5.60364 37.8534H12.5146V39.8297C12.5146 41.0437 13.3167 42.1112 14.4641 42.4261C14.9585 42.5623 15.4706 42.6312 15.9869 42.6312C18.8385 42.6312 21.1951 40.5865 21.6559 37.8534H64.1022C64.7467 37.8534 65.2698 37.3303 65.2698 36.6858C65.2698 36.0413 64.7473 35.5188 64.1022 35.5188H21.5723C21.3379 34.5679 20.86 33.6841 20.163 32.9443C19.0961 31.8115 17.6636 31.1664 16.1292 31.1292C15.5884 31.1157 15.0525 31.178 14.5343 31.3135C14.0424 31.4417 13.6133 31.7029 13.2776 32.0502H12.8375L15.7501 26.0553H26.4594V32.0502H25.3564C24.7113 32.0502 24.1888 32.5726 24.1888 33.2178C24.1888 33.8623 24.7113 34.3848 25.3564 34.3848H26.6925C27.851 34.3848 28.7939 33.4424 28.7939 32.2839V25.8215C28.7939 24.6631 27.851 23.7207 26.6925 23.7207H15.6042C14.8053 23.7207 14.0631 24.1852 13.714 24.9036L10.575 31.3654C10.2563 32.0209 10.2972 32.7814 10.6836 33.399C11.0699 34.0161 11.7358 34.3848 12.4646 34.3848H12.5146V35.5188H6.75598L14.3024 20.3229C14.7388 19.444 15.6201 18.8977 16.6016 18.8977H69.5599C74.0289 18.8977 77.6654 22.5336 77.6654 27.0032V35.5182ZM14.8492 39.8297V33.9307C14.8492 33.7616 14.9622 33.6145 15.1239 33.5718C15.4041 33.4991 15.694 33.4619 15.9875 33.4619C16.0156 33.4619 16.0437 33.4619 16.0724 33.4625C16.9781 33.4851 17.8271 33.869 18.4631 34.5447C19.101 35.2216 19.4342 36.0956 19.4019 37.0044C19.3359 38.8501 17.8357 40.296 15.9869 40.296C15.6799 40.296 15.3754 40.2557 15.0824 40.1752C14.9475 40.1379 14.8492 39.9927 14.8492 39.8297Z" fill="#005EC8"/>
<path d="M47.949 23.7202H32.2294C31.0703 23.7202 30.1279 24.6632 30.1279 25.8217V32.2834C30.1279 33.4419 31.0709 34.3843 32.2294 34.3843H47.949C49.1074 34.3843 50.0498 33.4419 50.0498 32.2834V25.8217C50.0504 24.6626 49.1074 23.7202 47.949 23.7202ZM47.7158 32.0503H32.4625V26.0548H47.7158V32.0503Z" fill="#005EC8"/>
<path d="M65.6908 23.7202H53.4856C52.3271 23.7202 51.3848 24.6632 51.3848 25.8217V32.2834C51.3848 33.4419 52.3271 34.3843 53.4856 34.3843H69.2058C70.3643 34.3843 71.3066 33.4419 71.3066 32.2834V29.3367C71.3066 26.2397 68.7871 23.7202 65.6908 23.7202ZM68.972 32.0503H53.7194V26.0548H65.6908C67.5005 26.0548 68.972 27.527 68.972 29.3367V32.0503Z" fill="#005EC8"/>
<path d="M21.6273 55.9126C21.6273 56.8721 20.8491 57.6503 19.8896 57.6503C18.9296 57.6503 18.1514 56.8721 18.1514 55.9126C18.1514 54.9525 18.9296 54.1743 19.8896 54.1743C20.8491 54.1743 21.6273 54.9525 21.6273 55.9126Z" fill="#005EC8"/>
<path d="M66.0961 55.9126C66.0961 56.8721 65.3179 57.6503 64.3578 57.6503C63.3977 57.6503 62.6201 56.8721 62.6201 55.9126C62.6201 54.9525 63.3977 54.1743 64.3578 54.1743C65.3179 54.1743 66.0961 54.9525 66.0961 55.9126Z" fill="#005EC8"/>
</svg>
