<svg width="80" height="80" viewBox="0 0 80 80" fill="none" xmlns="http://www.w3.org/2000/svg">
<rect y="65" width="80" height="5" rx="2.5" fill="#FDF415"/>
<g clip-path="url(#clip0)">
<path d="M14.9993 63.6044C14.9993 64.2849 14.4475 64.8367 13.767 64.8367C13.0864 64.8367 12.5347 64.2849 12.5347 63.6044C12.5347 62.9238 13.0864 62.3721 13.767 62.3721C14.4475 62.3721 14.9993 62.9238 14.9993 63.6044Z" fill="#005EC8"/>
<path d="M54.0368 63.6044C54.0368 64.2849 53.4851 64.8367 52.8046 64.8367C52.124 64.8367 51.5723 64.2849 51.5723 63.6044C51.5723 62.9238 52.124 62.3721 52.8046 62.3721C53.4851 62.3721 54.0368 62.9238 54.0368 63.6044Z" fill="#005EC8"/>
<path d="M67.9563 63.6044C67.9563 64.2849 67.4046 64.8367 66.724 64.8367C66.0435 64.8367 65.4917 64.2849 65.4917 63.6044C65.4917 62.9238 66.0435 62.3721 66.724 62.3721C67.4046 62.3721 67.9563 62.9238 67.9563 63.6044Z" fill="#005EC8"/>
<path d="M79.8384 60.9028L75.9034 52.7265C74.8072 50.4487 72.4653 48.9771 69.9378 48.9771H67.7949L63.8294 41.2153L69.9586 36.399C71.5711 35.1319 72.7253 33.3368 73.2106 31.344L75.1332 23.4363C75.4383 22.1808 75.1551 20.8783 74.3568 19.8621L67.9872 11.7566C67.1888 10.7404 65.9901 10.1575 64.6974 10.1575L56.5595 10.1562C56.5589 10.1562 56.5589 10.1562 56.5583 10.1562C54.5081 10.1562 52.4909 10.8539 50.8796 12.1204L34.4153 25.0586C32.8034 26.3257 31.6486 28.1214 31.164 30.1136L29.2414 38.0213C28.9362 39.2768 29.2194 40.5793 30.0171 41.5955L30.6775 42.4353C29.3464 43.5047 28.5352 45.1355 28.5352 46.8909V48.9771H25.1801V35.9912C25.1801 34.2633 23.7744 32.8577 22.0465 32.8577H9.78029C4.38721 32.8577 0 37.2449 0 42.638V50.6513C0 51.2934 0.52002 51.8134 1.16211 51.8134C1.8042 51.8134 2.32422 51.2934 2.32422 50.6513V47.049H13.9319C16.3227 47.049 18.2672 45.1044 18.2672 42.7137V35.1819H22.0465C22.4927 35.1819 22.8565 35.5451 22.8565 35.9912V53.7299C22.8565 54.1456 22.5183 54.4831 22.1033 54.4831H12.5385C8.69081 54.4831 5.44251 57.223 4.70948 60.8967H4.26636C4.23524 60.8967 4.20411 60.8991 4.17359 60.9016H3.13416C2.68738 60.9016 2.32422 60.5384 2.32422 60.0916V55.9962C2.32422 55.3547 1.8042 54.8347 1.16211 54.8347C0.52002 54.8347 0 55.3547 0 55.9968V60.0916C0 61.8195 1.40564 63.2258 3.13416 63.2258H5.72877C5.76112 63.2258 5.79285 63.2233 5.8252 63.2209H7.48353C7.4756 63.3479 7.47071 63.4754 7.47071 63.6042C7.47071 67.0765 10.2954 69.9012 13.7671 69.9012C17.2394 69.9012 20.0635 67.0765 20.0635 63.6042C20.0635 63.4754 20.0586 63.3479 20.0507 63.2209H27.5824C27.6947 64.4459 28.7268 65.409 29.9811 65.409H34.867C36.1207 65.409 37.1528 64.4459 37.2657 63.2209H46.5198C46.5119 63.3479 46.507 63.4754 46.507 63.6042C46.507 67.0765 49.3317 69.9012 52.8034 69.9012C56.2757 69.9012 59.1004 67.0765 59.1004 63.6042C59.1004 63.4754 59.0949 63.3479 59.0876 63.2209H60.4395C60.4316 63.3479 60.4267 63.4754 60.4267 63.6042C60.4267 67.0765 63.2514 69.9012 66.7231 69.9012C70.1954 69.9012 73.0201 67.0765 73.0201 63.6042C73.0201 63.4754 73.0146 63.3479 73.0073 63.2209L78.3778 63.2258C78.9387 63.2258 79.4514 62.942 79.7499 62.4677C80.0489 61.9929 80.0819 61.4075 79.8384 60.9028ZM15.943 42.7137C15.943 43.8227 15.0409 44.7248 13.9319 44.7248H2.32422V42.638C2.32422 38.5267 5.66895 35.1819 9.78029 35.1819H15.943V42.7137ZM73.8093 53.7342L77.259 60.9016H76.407C76.3758 60.8991 76.3453 60.8967 76.3136 60.8967H75.9742C75.8332 60.8759 75.7087 60.7862 75.6459 60.6556L72.5953 54.3183C72.107 53.3039 71.0639 52.6484 69.9385 52.6484H49.5502C48.4266 52.6484 47.4158 53.2728 46.9129 54.2768L43.7159 60.6617C43.6469 60.7996 43.5126 60.8851 43.3613 60.8967H42.0917L45.7081 53.6738C46.4411 52.2108 47.9133 51.3013 49.5496 51.3013H69.9378C71.5785 51.3013 73.0976 52.2565 73.8093 53.7342ZM65.1856 48.9771H53.9527L61.9679 42.6789L65.1856 48.9771ZM56.5595 12.4799L64.6974 12.4817C65.2717 12.4817 65.8045 12.7405 66.1598 13.1921L72.5294 21.2976C72.8846 21.7499 73.0104 22.3291 72.8743 22.887L70.9516 30.7947C70.8699 31.1316 70.7606 31.4606 70.6294 31.7798L55.5256 12.5604C55.8668 12.5079 56.2116 12.4799 56.5583 12.4799H56.5595ZM31.4997 38.57L33.4223 30.6623C33.5047 30.3253 33.6133 29.9964 33.7446 29.6772L35.915 32.4384C36.1439 32.7301 36.485 32.8827 36.8293 32.8827C37.0807 32.8827 37.334 32.8015 37.5464 32.6343C38.0512 32.2376 38.1385 31.507 37.7424 31.0022L35.0727 27.605C35.3125 27.3468 35.5726 27.1051 35.8515 26.886L52.3151 13.9478C52.5947 13.7286 52.8901 13.5333 53.1989 13.3606L69.3019 33.8526C69.0614 34.1108 68.802 34.3525 68.523 34.5716L52.0588 47.5098C51.7799 47.7289 51.4838 47.9242 51.1756 48.097L41.07 35.2375C40.6733 34.7327 39.9427 34.6454 39.4385 35.0415C38.9338 35.4383 38.8459 36.1689 39.2426 36.6736L48.8489 48.8972C48.5078 48.949 48.1629 48.9771 47.8162 48.9771H47.815L39.6772 48.9759C39.1028 48.9759 38.5694 48.7165 38.2148 48.2648L31.8451 40.1593C31.4899 39.7077 31.3642 39.1285 31.4997 38.57ZM30.8594 46.8909C30.8594 45.857 31.3331 44.8963 32.1125 44.2615L35.8185 48.9771H30.8594V46.8909ZM44.5142 51.3013C44.1736 51.7029 43.8746 52.1467 43.6304 52.6331L43.6231 52.6484H25.1801V51.3013H44.5142ZM13.7671 67.577C11.5766 67.577 9.79433 65.7948 9.79433 63.6042C9.79433 61.4136 11.5766 59.632 13.7671 59.632C15.9577 59.632 17.7399 61.4136 17.7399 63.6042C17.7399 65.7948 15.9577 67.577 13.7671 67.577ZM13.7671 57.3078C11.2641 57.3078 9.0973 58.7763 8.08351 60.8967H7.10145C7.78505 58.5261 9.97316 56.8073 12.5385 56.8073H22.1033C23.3576 56.8073 24.4379 56.0517 24.9164 54.972H27.5715V60.8967H19.4513C18.4369 58.7763 16.2708 57.3078 13.7671 57.3078ZM34.9531 59.2445V62.9993C34.9531 63.0463 34.9146 63.0854 34.867 63.0854H29.9811C29.9341 63.0854 29.8951 63.0463 29.8951 62.9993V54.972H42.4592L39.5014 60.8796C39.4983 60.8851 39.4971 60.8912 39.4941 60.8967H37.2767V59.2445C37.2767 58.6024 36.7566 58.0823 36.1152 58.0823C35.4731 58.0823 34.9531 58.6024 34.9531 59.2445ZM52.804 67.577C50.6135 67.577 48.8312 65.7948 48.8312 63.6042C48.8312 61.4136 50.6135 59.632 52.804 59.632C54.9946 59.632 56.7762 61.4136 56.7762 63.6042C56.7762 65.7948 54.9946 67.577 52.804 67.577ZM66.7237 67.577C64.5332 67.577 62.7509 65.7948 62.7509 63.6042C62.7509 61.4136 64.5332 59.632 66.7237 59.632C68.9143 59.632 70.6965 61.4136 70.6965 63.6042C70.6965 65.7948 68.9143 67.577 66.7237 67.577ZM66.7237 57.3078C64.2207 57.3078 62.0539 58.7763 61.0395 60.8967H58.4876C57.4732 58.7763 55.3071 57.3078 52.8034 57.3078C50.3004 57.3078 48.1342 58.7763 47.1198 60.8967H46.197L48.9912 55.3174C49.0992 55.1014 49.3079 54.9726 49.5496 54.9726H69.9378C70.1728 54.9726 70.3993 55.1148 70.5012 55.3266L73.1825 60.8973H72.4073C71.3935 58.7763 69.2274 57.3078 66.7237 57.3078Z" fill="#005EC8"/>
<path d="M15.9747 50.9804H13.3997C12.7332 50.9804 12.1924 50.4402 12.1924 49.7737C12.1924 49.1066 12.7332 48.5664 13.3997 48.5664H15.9741C16.6412 48.5664 17.1814 49.1066 17.1814 49.7737C17.1814 50.4402 16.6412 50.9804 15.9747 50.9804Z" fill="#005EC8"/>
</g>
<defs>
<clipPath id="clip0">
<rect width="80" height="80" fill="white"/>
</clipPath>
</defs>
</svg>
