<svg width="80" height="80" viewBox="0 0 80 80" fill="none" xmlns="http://www.w3.org/2000/svg">
<rect id="hovered" y="56" width="80" height="5" rx="2.5" fill="#FDF415"/>
<g clip-path="url(#clip0)">
<path d="M76.3245 34.7717H65.282L56.0919 28.2715C54.8175 27.37 53.3185 26.8933 51.7572 26.8933H51.283V22.9834C51.283 21.3385 49.9451 20 48.2996 20H39.173C37.5275 20 36.189 21.3385 36.189 22.9834V26.8933H35.3821C33.6945 26.8933 32.0374 27.4707 30.7153 28.5193L22.8369 34.7717H20.4303C18.811 34.7717 17.1973 34.9841 15.6335 35.4028L3.98071 38.5248C1.63696 39.1443 0 41.2708 0 43.6951V51.7963C0 53.4332 1.33118 54.7644 2.96814 54.7644H10.918C11.6302 57.8076 14.3646 60.0812 17.6221 60.0812C20.8789 60.0812 23.6133 57.8076 24.3262 54.7644H47.6416C48.2874 54.7644 48.811 54.2407 48.811 53.595C48.811 52.9492 48.2874 52.4255 47.6416 52.4255H24.4647C24.0808 48.9893 21.1591 46.308 17.6221 46.308C14.0845 46.308 11.1627 48.9893 10.7794 52.4255H2.96814C2.62146 52.4255 2.33948 52.1436 2.33948 51.7963V47.1918C2.78748 47.9102 3.59558 48.4229 4.68445 48.4229C5.27588 48.4229 5.95032 48.2715 6.69434 47.9205C8.86414 46.897 9.98291 45.0281 9.29688 43.5736C8.61084 42.1191 6.4563 41.7944 4.2865 42.818C3.38257 43.2446 2.7301 43.7933 2.33948 44.447V43.6957C2.33948 42.3315 3.2605 41.1353 4.58313 40.7849L16.2396 37.663C17.6056 37.2968 19.0155 37.1112 20.4309 37.1112H29.3439C29.9896 37.1112 30.5133 36.5875 30.5133 35.9418C30.5133 35.2954 29.9896 34.7717 29.3439 34.7717H26.6003L32.1698 30.3522C33.0798 29.6301 34.2206 29.2322 35.3821 29.2322H42.0648V34.7717H34.9054C34.2596 34.7717 33.736 35.2954 33.736 35.9412C33.736 36.5875 34.2596 37.1112 34.9054 37.1112H76.3245C77.0612 37.1112 77.6605 37.7106 77.6605 38.4473V39.0033H73.4863C71.5747 39.0033 70.0195 40.5591 70.0195 42.4707C70.0195 44.3823 71.5747 45.9381 73.4863 45.9381H77.6605V51.7963C77.6605 52.1436 77.3785 52.4255 77.0319 52.4255H68.5419C68.158 48.9886 65.2362 46.308 61.6992 46.308C58.1622 46.308 55.2405 48.9886 54.8566 52.4255H53.0475C52.4011 52.4255 51.8781 52.9486 51.8781 53.595C51.8781 54.2407 52.4011 54.7644 53.0475 54.7644H54.9957C55.708 57.8076 58.4424 60.0812 61.6992 60.0812C64.9567 60.0812 67.691 57.8076 68.4033 54.7644H77.0319C78.6688 54.7644 80 53.4332 80 51.7963V38.4473C80 36.4209 78.3514 34.7717 76.3245 34.7717ZM38.5284 22.9834C38.5284 22.6282 38.8177 22.3395 39.173 22.3395H48.2996C48.6548 22.3395 48.9441 22.6282 48.9441 22.9834V26.8567H38.5284V22.9834ZM17.6221 48.6475C20.1294 48.6475 22.1692 50.6873 22.1692 53.1946C22.1692 55.7019 20.1294 57.7423 17.6221 57.7423C15.1147 57.7423 13.0743 55.7019 13.0743 53.1946C13.0743 50.6873 15.1141 48.6475 17.6221 48.6475ZM4.32983 45.6702C4.3927 45.5542 4.61243 45.2509 5.28442 44.9335C5.88989 44.6478 6.41296 44.5605 6.76941 44.5605C6.91895 44.5605 7.03918 44.5758 7.12341 44.5984C7.00073 44.8676 6.55457 45.3998 5.6958 45.8051C5.01099 46.1285 4.42749 46.1798 4.30786 45.9271C4.27917 45.8655 4.25903 45.7996 4.32983 45.6702ZM44.4043 29.2322H51.7572C52.832 29.2322 53.8635 29.5605 54.7412 30.1813L61.2311 34.7717H44.4043V29.2322ZM61.6992 57.7423C59.1919 57.7423 57.1521 55.7019 57.1521 53.1946C57.1521 50.6873 59.1919 48.6469 61.6992 48.6469C64.2065 48.6469 66.2469 50.6873 66.2469 53.1946C66.2469 55.7019 64.2072 57.7423 61.6992 57.7423ZM73.4863 43.5986C72.865 43.5986 72.359 43.0927 72.359 42.4707C72.359 41.8488 72.865 41.3428 73.4863 41.3428H77.6605V43.5986H73.4863Z" fill="#005EC8"/>
<path d="M19.1627 53.1943C19.1627 54.0452 18.473 54.7349 17.6222 54.7349C16.7708 54.7349 16.0811 54.0452 16.0811 53.1943C16.0811 52.3435 16.7708 51.6538 17.6222 51.6538C18.473 51.6538 19.1627 52.3435 19.1627 53.1943Z" fill="#005EC8"/>
<path d="M63.2404 53.1943C63.2404 54.0452 62.5507 54.7349 61.6998 54.7349C60.8484 54.7349 60.1587 54.0452 60.1587 53.1943C60.1587 52.3435 60.8484 51.6538 61.6998 51.6538C62.5507 51.6538 63.2404 52.3435 63.2404 53.1943Z" fill="#005EC8"/>
<path d="M40.8356 47.8528H37.8638C37.605 47.8528 37.395 47.6428 37.395 47.384V43.9429H41.3043V47.384C41.3043 47.6428 41.095 47.8528 40.8356 47.8528Z" fill="#005EC8"/>
<path d="M48.6549 47.8528H45.6831C45.4243 47.8528 45.2144 47.6428 45.2144 47.384V43.9429H49.1237V47.384C49.1237 47.6428 48.9143 47.8528 48.6549 47.8528Z" fill="#005EC8"/>
<path d="M37.3953 43.943H33.9541C33.6953 43.943 33.4854 43.733 33.4854 43.4742V40.5024C33.4854 40.243 33.6953 40.0337 33.9541 40.0337H36.9265C37.1853 40.0337 37.3953 40.243 37.3953 40.5024V43.943Z" fill="#005EC8"/>
<path d="M45.2141 43.943H41.3042V40.5024C41.3042 40.243 41.5142 40.0337 41.7729 40.0337H44.7454C45.0042 40.0337 45.2141 40.243 45.2141 40.5024V43.943Z" fill="#005EC8"/>
<path d="M52.5647 43.943H49.1235V40.5024C49.1235 40.243 49.3335 40.0337 49.5923 40.0337H52.5647C52.8235 40.0337 53.0334 40.243 53.0334 40.5024V43.4742C53.0334 43.733 52.8235 43.943 52.5647 43.943Z" fill="#005EC8"/>
</g>
<defs>
<clipPath id="clip0">
<rect width="80" height="80" fill="white"/>
</clipPath>
</defs>
</svg>
