<svg width="80" height="80" viewBox="0 0 80 80" fill="none" xmlns="http://www.w3.org/2000/svg">
<path fill-rule="evenodd" clip-rule="evenodd" d="M36.189 20.2188H51.283V20.255H51.7572C53.3185 20.255 54.8175 20.8259 56.0919 21.9055L65.282 29.69H76.3245C78.3514 29.69 80 31.665 80 34.0917V50.0781C80 52.0384 78.6688 53.6326 77.0319 53.6326H68.4033C67.691 57.2771 64.9567 59.9998 61.6992 59.9998C58.4424 59.9998 55.708 57.2771 54.9957 53.6326H53.0475C52.4011 53.6326 51.8781 53.0055 51.8781 52.2321C51.8781 51.4581 52.4011 50.8317 53.0475 50.8317H54.8566C55.2405 46.7157 58.1622 43.5055 61.6992 43.5055C65.2362 43.5055 68.158 46.7157 68.5419 50.8317H77.0319C77.3785 50.8317 77.6605 50.494 77.6605 50.0781V43.0625H73.4863C71.5747 43.0625 70.0195 41.1993 70.0195 38.91C70.0195 36.6208 71.5747 34.7576 73.4863 34.7576H77.6605V34.0917C77.6605 33.2095 77.0612 32.4917 76.3245 32.4917H34.9054C34.2596 32.4917 33.736 31.8645 33.736 31.0905C33.736 30.3171 34.2596 29.69 34.9054 29.69H42.0648V23.056H35.3821C34.2206 23.056 33.0798 23.5326 32.1698 24.3973L26.6003 29.69H29.3439C29.9896 29.69 30.5133 30.3171 30.5133 31.0912C30.5133 31.8645 29.9896 32.4917 29.3439 32.4917H20.4309C19.0155 32.4917 17.6056 32.7139 16.2396 33.1524L4.58313 36.8912C3.2605 37.3108 2.33948 38.7434 2.33948 40.377V41.2768C2.7301 40.494 3.38257 39.8369 4.2865 39.326C6.4563 38.1002 8.61084 38.489 9.29688 40.2309C9.98291 41.9727 8.86414 44.2108 6.69434 45.4366C5.95032 45.8569 5.27588 46.0382 4.68445 46.0382C3.59558 46.0382 2.78748 45.4242 2.33948 44.5639V50.0781C2.33948 50.494 2.62146 50.8317 2.96814 50.8317H10.7794C11.1627 46.7165 14.0845 43.5055 17.6221 43.5055C21.1591 43.5055 24.0808 46.7165 24.4647 50.8317H47.6416C48.2874 50.8317 48.811 51.4588 48.811 52.2321C48.811 53.0055 48.2874 53.6326 47.6416 53.6326H24.3262C23.6133 57.2771 20.8789 59.9998 17.6221 59.9998C14.3646 59.9998 11.6302 57.2771 10.918 53.6326H2.96814C1.33118 53.6326 0 52.0384 0 50.0781V40.3763C0 37.473 1.63696 34.9264 3.98071 34.1845L15.6335 30.4458C17.1973 29.9444 18.811 29.69 20.4303 29.69H22.8369L30.7153 22.2023C32.0374 20.9465 33.6945 20.255 35.3821 20.255H36.189V20.2188ZM22.1692 51.7526C22.1692 48.7499 20.1294 46.3071 17.6221 46.3071C15.1141 46.3071 13.0743 48.7499 13.0743 51.7526C13.0743 54.7553 15.1147 57.1989 17.6221 57.1989C20.1294 57.1989 22.1692 54.7553 22.1692 51.7526ZM5.28442 41.8594C4.61243 42.2395 4.3927 42.6028 4.32983 42.7416C4.25903 42.8966 4.27917 42.9755 4.30786 43.0494C4.42749 43.352 5.01099 43.2906 5.6958 42.9032C6.55457 42.4178 7.00073 41.7804 7.12341 41.4581C7.03918 41.4311 6.91895 41.4128 6.76941 41.4128C6.41296 41.4128 5.88989 41.5173 5.28442 41.8594ZM51.7572 23.056H44.4043V29.69H61.2311L54.7412 24.1926C53.8635 23.4492 52.832 23.056 51.7572 23.056ZM57.1521 51.7526C57.1521 54.7553 59.1919 57.1989 61.6992 57.1989C64.2072 57.1989 66.2469 54.7553 66.2469 51.7526C66.2469 48.7499 64.2065 46.3064 61.6992 46.3064C59.1919 46.3064 57.1521 48.7499 57.1521 51.7526ZM72.359 38.91C72.359 39.6549 72.865 40.2608 73.4863 40.2608H77.6605V37.5593H73.4863C72.865 37.5593 72.359 38.1652 72.359 38.91Z" fill="#005EC8"/>
<path d="M19.1637 52.1943C19.1637 53.0452 18.474 53.7349 17.6232 53.7349C16.7717 53.7349 16.082 53.0452 16.082 52.1943C16.082 51.3435 16.7717 50.6538 17.6232 50.6538C18.474 50.6538 19.1637 51.3435 19.1637 52.1943Z" fill="#005EC8"/>
<path d="M63.2399 52.1943C63.2399 53.0452 62.5502 53.7349 61.6993 53.7349C60.8479 53.7349 60.1582 53.0452 60.1582 52.1943C60.1582 51.3435 60.8479 50.6538 61.6993 50.6538C62.5502 50.6538 63.2399 51.3435 63.2399 52.1943Z" fill="#005EC8"/>
</svg>
