<svg width="80" height="80" viewBox="0 0 80 80" fill="none" xmlns="http://www.w3.org/2000/svg">
<g clip-path="url(#clip0)">
<path d="M18.3403 33.8185C17.4681 33.8185 16.671 34.2598 16.2077 35.0001L13.0473 40.0569C12.7043 40.605 12.6866 41.2977 12.9997 41.8635C13.3134 42.4293 13.9104 42.7809 14.5573 42.7809H23.6986C24.6806 42.7809 25.4789 41.9819 25.4789 41.0005V35.5983C25.4789 34.6168 24.6806 33.8179 23.6986 33.8179H18.3403V33.8185ZM23.137 40.439H15.5705L18.1944 36.2416C18.2261 36.1909 18.2805 36.1604 18.3403 36.1604H23.137V40.439Z" fill="#005EC8"/>
<path d="M78.0478 16.875H40.6773C40.0304 16.875 39.5061 17.3993 39.5061 18.0463C39.5061 18.6932 40.0304 19.2175 40.6773 19.2175H77.6578V47.9399H66.818C66.7484 47.9399 66.6806 47.9473 66.6147 47.9589C65.7694 47.6445 64.8557 47.4718 63.9023 47.4718C60.4209 47.4718 57.465 49.7631 56.4616 52.9167H29.1466V50.2818H54.4999C55.1469 50.2818 55.6712 49.7576 55.6712 49.1112C55.6712 48.4642 55.1469 47.9399 54.4999 47.9399H29.1466V47.3223C29.1466 46.6759 28.6223 46.1516 27.976 46.1516C27.329 46.1516 26.8047 46.6759 26.8047 47.3223V52.9167H22.2106C21.2066 49.7631 18.2513 47.4718 14.7692 47.4718C11.2878 47.4718 8.33188 49.7631 7.32846 52.9167H2.61535C2.46459 52.9167 2.34191 52.794 2.34191 52.6439V51.234H4.0576C5.17881 51.234 6.09067 50.3215 6.09067 49.2009V47.1489C6.09067 46.0277 5.17881 45.1159 4.0576 45.1159H2.42003C2.58361 44.5971 2.9962 44.1735 3.53331 44.0136L10.0201 42.0836C10.2911 42.0031 10.5236 41.8267 10.675 41.5874L16.1413 32.9528C16.1913 32.8735 16.278 32.8259 16.372 32.8259H26.8047V42.1972C26.8047 42.8435 27.329 43.3678 27.976 43.3678C28.6223 43.3678 29.1466 42.8435 29.1466 42.1972V19.2175H35.5242C36.1711 19.2175 36.6954 18.6932 36.6954 18.0463C36.6954 17.3993 36.1711 16.875 35.5242 16.875H28.7566C27.6799 16.875 26.8047 17.7509 26.8047 18.8269V30.4833H16.372C15.4699 30.4833 14.6441 30.9381 14.1619 31.6998L8.93063 39.9639L2.86559 41.7687C1.17858 42.2704 0 43.8506 0 45.6108V52.6439C0 54.0855 1.17309 55.2586 2.61535 55.2586H6.96286C6.96286 55.2654 6.96225 55.2721 6.96225 55.2794C6.96225 59.5842 10.4644 63.0864 14.7692 63.0864C19.0746 63.0864 22.5768 59.5842 22.5768 55.2794C22.5768 55.2721 22.5762 55.2654 22.5762 55.2586H56.096C56.096 55.2654 56.0954 55.2721 56.0954 55.2794C56.0954 59.5842 59.5975 63.0864 63.9029 63.0864C68.2077 63.0864 71.7099 59.5842 71.7099 55.2794C71.7099 55.1903 71.7063 55.1024 71.7032 55.0145C73.8761 54.3718 75.502 52.5231 75.8633 50.2818H78.0484C79.1244 50.2818 80.0003 49.4066 80.0003 48.33V18.8269C79.9997 17.7509 79.1238 16.875 78.0478 16.875V16.875ZM3.74815 48.8915H2.34191V47.4578H3.74815V48.8915ZM14.7692 60.7445C11.7559 60.7445 9.30416 58.2927 9.30416 55.2794C9.30416 52.2661 11.7559 49.8143 14.7692 49.8143C17.4078 49.8143 19.6154 51.6936 20.1238 54.1838C20.1299 54.2589 20.1434 54.3321 20.1635 54.4023C20.2093 54.688 20.2343 54.9809 20.2343 55.2794C20.2343 58.2927 17.7825 60.7445 14.7692 60.7445ZM63.9023 60.7445C60.889 60.7445 58.4373 58.2927 58.4373 55.2794C58.4373 52.2661 60.889 49.8143 63.9023 49.8143C66.9156 49.8143 69.3674 52.2661 69.3674 55.2794C69.3674 58.2927 66.9156 60.7445 63.9023 60.7445ZM71.2668 52.6903C70.9537 51.8034 70.4862 50.9899 69.8954 50.2818H73.4702C73.1674 51.3884 72.3447 52.2893 71.2668 52.6903Z" fill="#005EC8"/>
<path d="M14.7689 51.1885C12.5131 51.1885 10.6777 53.0238 10.6777 55.2797C10.6777 57.5355 12.5131 59.3702 14.7689 59.3702C17.0248 59.3702 18.8601 57.5355 18.8601 55.2797C18.8601 53.0238 17.0248 51.1885 14.7689 51.1885ZM14.7689 57.0283C13.8046 57.0283 13.0203 56.244 13.0203 55.2797C13.0203 54.3153 13.8046 53.5304 14.7689 53.5304C15.7333 53.5304 16.5182 54.3153 16.5182 55.2797C16.5182 56.244 15.7333 57.0283 14.7689 57.0283Z" fill="#005EC8"/>
<path d="M63.9031 51.1885C61.6472 51.1885 59.8125 53.0238 59.8125 55.2797C59.8125 57.5355 61.6472 59.3702 63.9031 59.3702C66.1589 59.3702 67.9943 57.5355 67.9943 55.2797C67.9943 53.0238 66.1589 51.1885 63.9031 51.1885ZM63.9031 57.0283C62.9387 57.0283 62.1544 56.244 62.1544 55.2797C62.1544 54.3153 62.9387 53.5304 63.9031 53.5304C64.8674 53.5304 65.6523 54.3153 65.6523 55.2797C65.6523 56.244 64.8674 57.0283 63.9031 57.0283Z" fill="#005EC8"/>
</g>
<defs>
<clipPath id="clip0">
<rect width="80" height="80" fill="white"/>
</clipPath>
</defs>
</svg>
