<svg width="99" height="39" viewBox="0 0 99 39" fill="none" xmlns="http://www.w3.org/2000/svg">
<path d="M46.3799 29.2269V8.96304H50.0479V18.2832H50.1386C50.4187 17.8427 50.9103 17.1106 51.6122 16.088L56.9342 8.96304H61.4739L54.4982 17.5918L61.9249 29.2269H57.5955L51.883 19.9369L50.049 22.1019V29.2269H46.3799ZM79.3341 18.0427V28.2948C77.2897 29.0561 75.1245 29.4372 72.8395 29.4372C69.412 29.4372 66.7552 28.5354 64.8712 26.7318C62.9872 24.9479 62.0447 22.4622 62.0447 19.2756C62.0645 16.0682 63.107 13.5127 65.1722 11.6091C67.2364 9.70553 69.9526 8.75269 73.3207 8.75269C75.5859 8.75269 77.3803 9.07342 78.703 9.7149L77.8907 12.6911C76.6274 12.11 75.0943 11.8195 73.2905 11.8195C71.0659 11.8195 69.2819 12.4558 67.9384 13.7283C66.5949 15.0008 65.9242 16.7899 65.9242 19.0944C65.9242 21.3792 66.5657 23.1734 67.8488 24.4762C69.1319 25.7789 70.8357 26.4308 72.9603 26.4308C74.2236 26.4308 75.1558 26.3006 75.7567 26.0403V20.9595H72.1782V18.0437H79.3341V18.0427ZM83.122 29.2269V8.96304H86.7901V18.2832H86.8807C87.1608 17.8427 87.6524 17.1106 88.3543 16.088L93.6763 8.96304H98.216L91.2403 17.5918L98.667 29.2269H94.3376L88.6251 19.9369L86.7911 22.1019V29.2269H83.122Z" fill="black"/>
<path fill-rule="evenodd" clip-rule="evenodd" d="M25.8828 26.5016L33.5647 13.2503L41.2455 0H25.8828H10.52L18.2009 13.2503L25.8828 26.5016ZM25.8828 18.3977L30.0008 11.1998L34.1187 4.00195H25.8838H17.6489L21.7669 11.1998L25.8828 18.3977Z" fill="#01C914"/>
<path fill-rule="evenodd" clip-rule="evenodd" d="M15.3628 32.4571L23.0436 19.2058L30.7245 5.95557H15.3628H0L7.68086 19.2058L15.3628 32.4571ZM15.3628 24.3533L19.4807 17.1554L23.5987 9.95751H15.3638H7.12784L11.2458 17.1554L15.3628 24.3533Z" fill="#005EC8"/>
<path fill-rule="evenodd" clip-rule="evenodd" d="M25.9243 38.9481L33.6051 25.6968L41.286 12.4465H25.9243H10.5615L18.2424 25.6968L25.9243 38.9481ZM25.9243 30.8442L30.0423 23.6464L34.1602 16.4485H25.9253H17.6904L21.8084 23.6464L25.9243 30.8442Z" fill="#FDB615"/>
</svg>
