<svg width="56" height="56" viewBox="0 0 56 56" fill="none" xmlns="http://www.w3.org/2000/svg">
<path d="M29.4459 26.6488V27.3058H30.1029H40.448C41.1173 27.3058 41.6867 27.8661 41.6867 28.5897C41.6867 29.3136 41.117 29.8742 40.448 29.8742H28.2082C27.5392 29.8742 26.9696 29.3136 26.9696 28.5897V13.9099C26.9696 13.1861 27.539 12.6258 28.2082 12.6258C28.877 12.6258 29.4459 13.1856 29.4459 13.9099V26.6488Z" fill="#FDF415" stroke="#5B5B5B" stroke-width="1.31411"/>
<circle cx="28" cy="9.4375" r="1.6875" fill="#5B5B5B"/>
<circle cx="28.8438" cy="46.5625" r="1.6875" fill="#5B5B5B"/>
<circle cx="46.5625" cy="28" r="1.6875" fill="#5B5B5B"/>
<circle cx="9.4375" cy="28" r="1.6875" fill="#5B5B5B"/>
<circle cx="18.2969" cy="44.4531" r="1.26562" fill="#5B5B5B"/>
<circle cx="38.5469" cy="44.4531" r="1.26562" fill="#5B5B5B"/>
<circle cx="45.2969" cy="19.1406" r="1.26562" fill="#5B5B5B"/>
<circle cx="11.5469" cy="19.1406" r="1.26562" fill="#5B5B5B"/>
<circle cx="11.5469" cy="36.8594" r="1.26562" fill="#5B5B5B"/>
<circle cx="17.4531" cy="12.3906" r="1.26562" fill="#5B5B5B"/>
<circle cx="39.3906" cy="12.3906" r="1.26562" fill="#5B5B5B"/>
<circle cx="45.2969" cy="36.8594" r="1.26562" fill="#5B5B5B"/>
<path d="M2.6875 28.1055C2.6875 14.0908 14.0911 2.6875 28.1055 2.6875C42.1198 2.6875 53.5234 14.0908 53.5234 28.1055C53.5234 42.1198 42.1198 53.5234 28.1055 53.5234C14.0911 53.5234 2.6875 42.1198 2.6875 28.1055ZM6.52883 28.1055C6.52883 40.0034 16.2075 49.6809 28.1055 49.6809C40.0034 49.6809 49.6821 40.0034 49.6821 28.1055C49.6821 16.2073 40.0034 6.52953 28.1055 6.52953C16.2075 6.52953 6.52883 16.2073 6.52883 28.1055Z" fill="#5B5B5B" stroke="#F5F7F9"/>
<path d="M1 28C1 13.113 13.1134 1 28 1C42.8866 1 55 13.113 55 28C55 42.8866 42.8866 55 28 55C13.1134 55 1 42.8866 1 28ZM5.08042 28C5.08042 40.6385 15.3615 50.9183 28 50.9183C40.6385 50.9183 50.9196 40.6385 50.9196 28C50.9196 15.3613 40.6385 5.08116 28 5.08116C15.3615 5.08116 5.08042 15.3613 5.08042 28Z" stroke="#5B5B5B"/>
</svg>
