<svg width="45" height="45" viewBox="0 0 45 45" fill="none" xmlns="http://www.w3.org/2000/svg">
<path d="M0.75 22.5C0.75 10.5077 10.5077 0.75 22.5 0.75C34.4923 0.75 44.25 10.5077 44.25 22.5C44.25 34.4923 34.4923 44.25 22.5 44.25C10.5077 44.25 0.75 34.4923 0.75 22.5ZM4.03716 22.5C4.03716 32.6812 12.3193 40.9624 22.5 40.9624C32.6807 40.9624 40.9628 32.6812 40.9628 22.5C40.9628 12.3188 32.6807 4.03762 22.5 4.03762C12.3193 4.03762 4.03716 12.3188 4.03716 22.5Z" fill="#5B5B5B" stroke="#F5F7F9" stroke-width="1.5"/>
<path d="M34.2249 21.8056H24.1133V9.64778C24.1133 8.62467 23.2838 7.79517 22.2607 7.79517C21.2376 7.79517 20.4081 8.62467 20.4081 9.64778V23.6582C20.4081 24.6813 21.2376 25.5108 22.2607 25.5108H34.2249C35.248 25.5108 36.0775 24.6813 36.0775 23.6582C36.0775 22.6351 35.248 21.8056 34.2249 21.8056Z" fill="#FDF415"/>
</svg>
