<svg width="74" height="74" viewBox="0 0 74 74" fill="none" xmlns="http://www.w3.org/2000/svg">
<circle cx="37" cy="37" r="37" fill="#005EC8"/>
<path d="M45.4567 50C43.3412 50 41.4646 49.3102 39.8268 47.9307C38.2572 46.4854 37.4724 44.4818 37.4724 41.9197C37.4724 37.4526 38.9738 33.5109 41.9764 30.0949C44.979 26.6131 49.6535 24.2482 56 23L55.5905 27.1387C48.6299 28.6496 45.1496 31.4088 45.1496 35.4161C45.1496 36.2701 45.4908 36.9927 46.1732 37.5839C46.8556 38.1095 47.6063 38.635 48.4252 39.1606C49.3123 39.6861 50.0971 40.3431 50.7795 41.1314C51.4619 41.854 51.8032 42.8723 51.8032 44.1861C51.8032 46.0912 51.189 47.5365 49.9606 48.5219C48.7323 49.5073 47.231 50 45.4567 50ZM24.9843 50C22.8688 50 20.9921 49.3102 19.3543 47.9307C17.7848 46.4854 17 44.4818 17 41.9197C17 37.4526 18.5013 33.5109 21.5039 30.0949C24.5066 26.6131 29.1811 24.2482 35.5276 23L35.1181 27.1387C28.1575 28.6496 24.6772 31.4088 24.6772 35.4161C24.6772 36.2701 25.0184 36.9927 25.7008 37.5839C26.3832 38.1095 27.1339 38.635 27.9528 39.1606C28.8399 39.6861 29.6247 40.3431 30.3071 41.1314C30.9895 41.854 31.3307 42.8723 31.3307 44.1861C31.3307 46.0912 30.7165 47.5365 29.4882 48.5219C28.2598 49.5073 26.7585 50 24.9843 50Z" fill="white"/>
</svg>
