<svg width="68" height="64" viewBox="0 0 68 64" fill="none" xmlns="http://www.w3.org/2000/svg">
<path d="M62.9 0.266846H5.1C2.26671 0.266846 0 2.53356 0 5.36685V39.9336V45.0336C0 47.8668 2.26671 50.1336 5.1 50.1336H26.86L25.16 56.9336H24.9333C21.76 56.9336 19.2666 59.4268 19.2666 62.6003C19.2666 63.2803 19.7199 63.7336 20.3999 63.7336H47.5999C48.2799 63.7336 48.7332 63.2803 48.7332 62.6003C48.7332 59.427 46.2399 56.9336 43.0664 56.9336H42.8397L41.1397 50.1336H62.9C65.7333 50.1336 68 47.8668 68 45.0336V39.9336V5.36685C68 2.53342 65.7333 0.266846 62.9 0.266846ZM2.26671 5.36685C2.26671 3.78013 3.51342 2.53356 5.1 2.53356H62.9C64.4867 2.53356 65.7333 3.78027 65.7333 5.36685V38.8001H2.26671V5.36685ZM46.3533 61.4668H21.76C22.2133 60.1068 23.46 59.2001 24.9333 59.2001H26.0666H41.9333H43.18C44.6533 59.2001 45.9 60.1068 46.3533 61.4668ZM40.46 56.9334H27.54L29.24 50.1334H38.76L40.46 56.9334ZM65.7333 45.0334C65.7333 46.6201 64.4866 47.8667 62.9 47.8667H39.6667H28.3334H5.1C3.51329 47.8667 2.26671 46.62 2.26671 45.0334V41.0667H65.7334V45.0334H65.7333Z" fill="black"/>
<path d="M49.8659 9.8594L46.3498 6.34332C46.2407 6.23428 46.1118 6.14875 45.9675 6.08885C45.6815 5.97038 45.3579 5.97038 45.0719 6.08885C44.9276 6.14862 44.7975 6.23428 44.6896 6.34332L41.1735 9.8594C40.7151 10.3179 40.7151 11.0588 41.1735 11.5172C41.4021 11.7457 41.7023 11.8606 42.0024 11.8606C42.3026 11.8606 42.6027 11.7457 42.8313 11.5172L44.3472 10.0012V13.0331C44.3472 15.6195 42.2439 17.7227 39.6576 17.7227H29.1059C25.2265 17.7227 22.0714 20.8776 22.0714 24.7572C22.0714 25.4044 22.5955 25.9297 23.2439 25.9297C23.8922 25.9297 24.4163 25.4044 24.4163 24.7572C24.4163 22.1708 26.5197 20.0676 29.1059 20.0676H39.6576C43.5371 20.0676 46.6922 16.9127 46.6922 13.0331V10.0012L48.2081 11.5172C48.4367 11.7457 48.7368 11.8606 49.037 11.8606C49.3371 11.8606 49.6373 11.7457 49.8659 11.5172C50.3243 11.0588 50.3243 10.3179 49.8659 9.8594Z" fill="#FDF415"/>
<path d="M26.7611 28.2746C26.7611 30.2172 25.1866 31.7919 23.2438 31.7919C21.3011 31.7919 19.7266 30.2174 19.7266 28.2746C19.7266 26.3319 21.3011 24.7573 23.2438 24.7573C25.1866 24.7573 26.7611 26.3319 26.7611 28.2746Z" fill="#005EC8"/>
</svg>
